<svg width="616" height="615" viewBox="0 0 616 615" fill="none" xmlns="http://www.w3.org/2000/svg">
<g clip-path="url(#clip0_1750_473)">
<path d="M192.853 0.484375H16.5889" stroke="white" stroke-width="1.5"/>
<path d="M396.345 0.484375H220.082" stroke="white" stroke-width="1.5"/>
<path d="M599.838 0.484375H423.574" stroke="white" stroke-width="1.5"/>
<path d="M192.853 205.754H16.5889" stroke="white" stroke-width="1.5"/>
<path d="M396.345 205.754H220.082" stroke="white" stroke-width="1.5"/>
<path d="M599.838 205.754H423.574" stroke="white" stroke-width="1.5"/>
<path d="M192.853 409.246H16.5889" stroke="white" stroke-width="1.5"/>
<path d="M396.345 409.246H220.082" stroke="white" stroke-width="1.5"/>
<path d="M599.838 409.246H423.574" stroke="white" stroke-width="1.5"/>
<path d="M1.19824 422.86V599.124" stroke="white" stroke-width="1.5"/>
<path d="M1.19824 219.368V395.632" stroke="white" stroke-width="1.5"/>
<path d="M1.19824 15.8755V192.139" stroke="white" stroke-width="1.5"/>
<path d="M206.467 422.86V599.124" stroke="white" stroke-width="1.5"/>
<path d="M206.467 219.368V395.632" stroke="white" stroke-width="1.5"/>
<path d="M206.467 15.8755V192.139" stroke="white" stroke-width="1.5"/>
<path d="M409.959 422.86V599.124" stroke="white" stroke-width="1.5"/>
<path d="M409.959 219.368V395.632" stroke="white" stroke-width="1.5"/>
<path d="M409.959 15.8755V192.139" stroke="white" stroke-width="1.5"/>
<path d="M615.229 422.86V599.124" stroke="white" stroke-width="1.5"/>
<path d="M615.229 219.368V395.632" stroke="white" stroke-width="1.5"/>
<path d="M615.229 15.8755V192.139" stroke="white" stroke-width="1.5"/>
<path d="M192.853 614.515H16.5889" stroke="white" stroke-width="1.5"/>
<path d="M396.345 614.515H220.082" stroke="white" stroke-width="1.5"/>
<path d="M599.838 614.515H423.574" stroke="white" stroke-width="1.5"/>
<path d="M255.699 303.5V289.5H263.979C264.449 289.5 264.819 289.87 264.819 290.34V290.41C264.819 290.88 264.449 291.25 263.979 291.25H257.539V295.52H261.489C261.959 295.52 262.329 295.88 262.329 296.36V296.42C262.329 296.9 261.959 297.27 261.489 297.27H257.539V301.75H263.979C264.449 301.75 264.819 302.12 264.819 302.59V302.66C264.819 303.13 264.449 303.5 263.979 303.5H255.699ZM268.681 303.5C268.161 303.5 267.781 303.13 267.781 302.64V289.5H269.751L274.861 299.77V290.36C274.861 289.87 275.251 289.5 275.761 289.5H275.801C276.341 289.5 276.701 289.87 276.701 290.36V303.5H274.731L269.621 293.23V302.64C269.621 303.13 269.251 303.5 268.721 303.5H268.681ZM284.093 303.5C282.853 303.5 282.263 302.78 281.793 301.94L279.993 298.7C279.523 297.86 279.413 297.24 279.413 296.5C279.413 295.76 279.523 295.14 279.993 294.3L281.793 291.06C282.263 290.22 282.853 289.5 284.093 289.5H287.533C288.013 289.5 288.373 289.87 288.373 290.34V290.41C288.373 290.88 288.013 291.25 287.533 291.25H284.373C283.953 291.25 283.713 291.35 283.323 292.05L281.683 294.99C281.383 295.53 281.263 295.95 281.263 296.5C281.263 297.05 281.383 297.47 281.683 298.01L283.323 300.95C283.713 301.65 283.953 301.75 284.373 301.75H287.533C288.013 301.75 288.373 302.12 288.373 302.59V302.66C288.373 303.13 288.013 303.5 287.533 303.5H284.093ZM292.375 303.5C291.865 303.5 291.445 303.17 291.445 302.55V289.5H298.045C299.965 289.5 301.005 290.48 301.005 292.57V293.43C301.005 295.52 299.945 296.43 298.025 296.43H296.58L300.535 301.95C300.705 302.185 300.785 302.405 300.785 302.607C300.785 302.842 300.678 303.057 300.485 303.25C300.315 303.42 300.075 303.508 299.833 303.508C299.56 303.508 299.285 303.395 299.115 303.15L294.385 296.43H293.285V302.55C293.285 303.15 292.915 303.5 292.405 303.5H292.375ZM297.825 294.69C298.755 294.69 299.155 294.45 299.155 293.55V292.46C299.155 291.56 298.785 291.25 297.835 291.25H293.285V294.69H297.825ZM308.157 303.5C307.607 303.5 307.257 303.15 307.257 302.58V297.29L303.707 292.31V290.42C303.707 289.88 304.037 289.5 304.607 289.5H304.647C305.177 289.5 305.547 289.83 305.547 290.42V291.94L308.177 295.7H308.217L310.887 291.94V290.42C310.887 289.83 311.257 289.5 311.787 289.5H311.827C312.397 289.5 312.727 289.88 312.727 290.42V292.31L309.097 297.29V302.58C309.097 303.12 308.747 303.5 308.197 303.5H308.157ZM316.149 303.5C315.629 303.5 315.269 303.15 315.269 302.55V289.5H322.249C323.879 289.5 325.149 290.58 325.149 292.34V293.54C325.149 295.32 323.799 296.24 322.239 296.24H317.109V302.55C317.109 303.15 316.749 303.5 316.229 303.5H316.149ZM322.089 294.51C322.819 294.51 323.289 294.28 323.289 293.51V292.31C323.289 291.55 322.849 291.25 322.119 291.25H317.109V294.51H322.089ZM332.182 303.5C331.662 303.5 331.282 303.13 331.282 302.64V291.25H328.022C327.552 291.25 327.182 290.88 327.182 290.41V290.34C327.182 289.87 327.552 289.5 328.022 289.5H336.382C336.852 289.5 337.222 289.87 337.222 290.34V290.41C337.222 290.88 336.852 291.25 336.382 291.25H333.122V302.64C333.122 303.13 332.752 303.5 332.222 303.5H332.182ZM339.644 303.5V289.5H347.924C348.394 289.5 348.764 289.87 348.764 290.34V290.41C348.764 290.88 348.394 291.25 347.924 291.25H341.484V295.52H345.434C345.904 295.52 346.274 295.88 346.274 296.36V296.42C346.274 296.9 345.904 297.27 345.434 297.27H341.484V301.75H347.924C348.394 301.75 348.764 302.12 348.764 302.59V302.66C348.764 303.13 348.394 303.5 347.924 303.5H339.644ZM352.796 303.5C352.316 303.5 351.956 303.14 351.956 302.66V290.34C351.956 289.86 352.316 289.5 352.796 289.5H356.646C357.886 289.5 358.456 290.23 358.946 291.06L360.796 294.17C361.246 294.927 361.389 295.475 361.389 296.215C361.389 296.265 361.389 296.317 361.386 296.37C361.366 297.19 361.246 297.76 360.796 298.58L358.946 301.94C358.486 302.77 357.886 303.5 356.646 303.5H352.796ZM356.476 301.75C357.076 301.75 357.226 301.49 357.506 300.96L359.106 297.93C359.396 297.38 359.546 297.01 359.546 296.37C359.546 295.73 359.416 295.35 359.106 294.81L357.506 292.04C357.206 291.52 357.076 291.25 356.476 291.25H353.796V301.75H356.476ZM286.839 325.5C286.359 325.5 285.999 325.14 285.999 324.66V312.34C285.999 311.86 286.359 311.5 286.839 311.5H290.689C291.929 311.5 292.499 312.23 292.989 313.06L294.839 316.17C295.289 316.927 295.432 317.475 295.432 318.215C295.432 318.265 295.432 318.317 295.429 318.37C295.409 319.19 295.289 319.76 294.839 320.58L292.989 323.94C292.529 324.77 291.929 325.5 290.689 325.5H286.839ZM290.519 323.75C291.119 323.75 291.269 323.49 291.549 322.96L293.149 319.93C293.439 319.38 293.589 319.01 293.589 318.37C293.589 317.73 293.459 317.35 293.149 316.81L291.549 314.04C291.249 313.52 291.119 313.25 290.519 313.25H287.839V323.75H290.519ZM298.101 325.5C297.489 325.5 297.184 325.135 297.184 324.615C297.184 324.472 297.206 324.32 297.251 324.16L300.431 312.89C300.661 312.06 301.271 311.49 302.121 311.49C302.931 311.49 303.541 312.06 303.791 312.89L307.191 324.19C307.236 324.337 307.256 324.48 307.256 324.61C307.256 325.135 306.916 325.5 306.341 325.5H306.281C305.871 325.5 305.561 325.31 305.431 324.87L304.711 322.53H299.661L298.981 324.91C298.861 325.32 298.541 325.5 298.161 325.5H298.101ZM300.091 320.78H304.231L302.141 313.58H302.081L300.091 320.78ZM314.193 325.5C313.673 325.5 313.293 325.13 313.293 324.64V313.25H310.033C309.563 313.25 309.193 312.88 309.193 312.41V312.34C309.193 311.87 309.563 311.5 310.033 311.5H318.393C318.863 311.5 319.233 311.87 319.233 312.34V312.41C319.233 312.88 318.863 313.25 318.393 313.25H315.133V324.64C315.133 325.13 314.763 325.5 314.233 325.5H314.193ZM322.086 325.5C321.473 325.5 321.168 325.135 321.168 324.615C321.168 324.472 321.191 324.32 321.236 324.16L324.416 312.89C324.646 312.06 325.256 311.49 326.106 311.49C326.916 311.49 327.526 312.06 327.776 312.89L331.176 324.19C331.221 324.337 331.241 324.48 331.241 324.61C331.241 325.135 330.901 325.5 330.326 325.5H330.266C329.856 325.5 329.546 325.31 329.416 324.87L328.696 322.53H323.646L322.966 324.91C322.846 325.32 322.526 325.5 322.146 325.5H322.086ZM324.076 320.78H328.216L326.126 313.58H326.066L324.076 320.78Z" fill="#96FF5E"/>
<path d="M293.515 518.88C292.945 518.88 292.625 518.52 292.625 517.97V504.88H300.875C301.355 504.88 301.725 505.25 301.725 505.72V505.79C301.725 506.26 301.355 506.63 300.875 506.63H294.465V509.8H299.475C299.955 509.8 300.325 510.17 300.325 510.64V510.71C300.325 511.18 299.955 511.55 299.475 511.55H294.465V517.97C294.465 518.5 294.135 518.88 293.545 518.88H293.515ZM308.197 518.88C307.677 518.88 307.297 518.51 307.297 518.02V506.63H304.037C303.567 506.63 303.197 506.26 303.197 505.79V505.72C303.197 505.25 303.567 504.88 304.037 504.88H312.397C312.867 504.88 313.237 505.25 313.237 505.72V505.79C313.237 506.26 312.867 506.63 312.397 506.63H309.137V518.02C309.137 518.51 308.767 518.88 308.237 518.88H308.197ZM316.149 518.88C315.629 518.88 315.269 518.53 315.269 517.93V504.88H322.249C323.879 504.88 325.149 505.96 325.149 507.72V508.92C325.149 510.7 323.799 511.62 322.239 511.62H317.109V517.93C317.109 518.53 316.749 518.88 316.229 518.88H316.149ZM322.089 509.89C322.819 509.89 323.289 509.66 323.289 508.89V507.69C323.289 506.93 322.849 506.63 322.119 506.63H317.109V509.89H322.089Z" fill="white"/>
<path d="M254.112 111.008C252.872 111.008 252.282 110.288 251.812 109.448L250.012 106.208C249.542 105.368 249.432 104.748 249.432 104.008C249.432 103.268 249.542 102.648 250.012 101.808L251.812 98.5676C252.282 97.7276 252.872 97.0076 254.112 97.0076H257.552C258.032 97.0076 258.392 97.3776 258.392 97.8476V97.9176C258.392 98.3876 258.032 98.7576 257.552 98.7576H254.392C253.972 98.7576 253.732 98.8576 253.342 99.5576L251.702 102.498C251.402 103.038 251.282 103.458 251.282 104.008C251.282 104.558 251.402 104.978 251.702 105.518L253.342 108.458C253.732 109.158 253.972 109.258 254.392 109.258H257.552C258.032 109.258 258.392 109.628 258.392 110.098V110.168C258.392 110.638 258.032 111.008 257.552 111.008H254.112ZM262.105 97.8676C262.105 97.3676 262.485 97.0076 262.995 97.0076H263.045C263.555 97.0076 263.945 97.3676 263.945 97.8676V109.258H270.145C270.625 109.258 270.985 109.628 270.985 110.098V110.168C270.985 110.638 270.625 111.008 270.145 111.008H262.105V97.8676ZM278.237 111.108C276.997 111.108 276.457 110.398 275.937 109.548L273.697 105.868C273.197 105.048 273.117 104.448 273.117 103.948C273.117 103.448 273.187 102.828 273.697 102.028L275.937 98.4676C276.467 97.6276 276.997 96.9076 278.197 96.9076H278.257C279.497 96.9076 279.987 97.6376 280.517 98.4676L282.777 102.028C283.287 102.838 283.357 103.448 283.357 103.948C283.357 104.448 283.277 105.048 282.777 105.868L280.517 109.548C279.997 110.398 279.477 111.108 278.257 111.108H278.237ZM278.237 109.378C278.557 109.378 278.737 109.178 279.027 108.688L281.147 105.098C281.437 104.598 281.567 104.328 281.567 103.948C281.567 103.558 281.467 103.308 281.147 102.798L279.017 99.3676C278.727 98.8976 278.517 98.6776 278.237 98.6776H278.217C277.937 98.6776 277.757 98.8976 277.467 99.3676L275.337 102.798C275.057 103.238 274.927 103.508 274.927 103.948C274.927 104.378 275.067 104.638 275.337 105.098L277.447 108.668C277.747 109.178 277.897 109.378 278.217 109.378H278.237ZM287.409 111.008C286.329 111.008 285.519 110.188 285.519 109.118V97.9576C285.519 97.3376 285.919 97.0076 286.409 97.0076H286.459C286.969 97.0076 287.359 97.3376 287.359 97.9576V108.698C287.359 109.178 287.679 109.258 287.959 109.258H292.499C292.779 109.258 293.099 109.178 293.099 108.698V97.9576C293.099 97.3376 293.509 97.0076 293.999 97.0076H294.049C294.539 97.0076 294.939 97.3376 294.939 97.9576V109.118C294.939 110.188 294.129 111.008 293.049 111.008H287.409ZM298.831 111.008C298.351 111.008 297.991 110.648 297.991 110.168V97.8476C297.991 97.3676 298.351 97.0076 298.831 97.0076H302.681C303.921 97.0076 304.491 97.7376 304.981 98.5676L306.831 101.678C307.281 102.435 307.424 102.983 307.424 103.723C307.424 103.773 307.424 103.825 307.421 103.878C307.401 104.698 307.281 105.268 306.831 106.088L304.981 109.448C304.521 110.278 303.921 111.008 302.681 111.008H298.831ZM302.511 109.258C303.111 109.258 303.261 108.998 303.541 108.468L305.141 105.438C305.431 104.888 305.581 104.518 305.581 103.878C305.581 103.238 305.451 102.858 305.141 102.318L303.541 99.5476C303.241 99.0276 303.111 98.7576 302.511 98.7576H299.831V109.258H302.511ZM310.083 111.008C309.603 111.008 309.243 110.638 309.243 110.168V110.098C309.243 109.628 309.603 109.258 310.083 109.258H315.873C316.393 109.258 316.703 109.028 316.703 108.628C316.703 108.298 316.413 107.838 315.483 106.798L311.383 102.228C310.083 100.778 309.533 100.058 309.533 99.1876C309.533 97.7576 310.533 97.0076 312.133 97.0076H317.463C317.943 97.0076 318.303 97.3776 318.303 97.8576V97.9076C318.303 98.3876 317.943 98.7576 317.463 98.7576H312.513C312.053 98.7576 311.643 98.9076 311.643 99.3776C311.643 99.6476 311.933 100.038 312.873 101.098L316.953 105.668C318.243 107.118 318.833 107.888 318.833 108.788C318.833 110.118 317.813 111.008 316.303 111.008H310.083ZM322.326 111.008C321.816 111.008 321.436 110.638 321.436 110.148V97.8676C321.436 97.3776 321.816 97.0076 322.326 97.0076H322.376C322.886 97.0076 323.276 97.3776 323.276 97.8676V103.028H329.136V97.8676C329.136 97.3776 329.526 97.0076 330.036 97.0076H330.086C330.596 97.0076 330.976 97.3776 330.976 97.8676V110.148C330.976 110.638 330.616 111.008 330.086 111.008H330.036C329.526 111.008 329.136 110.638 329.136 110.148V104.778H323.276V110.148C323.276 110.638 322.906 111.008 322.376 111.008H322.326ZM334.078 111.008C333.465 111.008 333.16 110.643 333.16 110.123C333.16 109.98 333.183 109.828 333.228 109.668L336.408 98.3976C336.638 97.5676 337.248 96.9976 338.098 96.9976C338.908 96.9976 339.518 97.5676 339.768 98.3976L343.168 109.698C343.213 109.845 343.233 109.988 343.233 110.118C343.233 110.643 342.893 111.008 342.318 111.008H342.258C341.848 111.008 341.538 110.818 341.408 110.378L340.688 108.038H335.638L334.958 110.418C334.838 110.828 334.518 111.008 334.138 111.008H334.078ZM336.068 106.288H340.208L338.118 99.0876H338.058L336.068 106.288ZM346.34 111.008C345.83 111.008 345.41 110.678 345.41 110.058V97.0076H352.01C353.93 97.0076 354.97 97.9876 354.97 100.078V100.938C354.97 103.028 353.91 103.938 351.99 103.938H350.545L354.5 109.458C354.67 109.693 354.75 109.913 354.75 110.115C354.75 110.35 354.642 110.565 354.45 110.758C354.28 110.928 354.04 111.015 353.797 111.015C353.525 111.015 353.25 110.903 353.08 110.658L348.35 103.938H347.25V110.058C347.25 110.658 346.88 111.008 346.37 111.008H346.34ZM351.79 102.198C352.72 102.198 353.12 101.958 353.12 101.058V99.9676C353.12 99.0676 352.75 98.7576 351.8 98.7576H347.25V102.198H351.79ZM357.632 111.008V97.0076H365.912C366.382 97.0076 366.752 97.3776 366.752 97.8476V97.9176C366.752 98.3876 366.382 98.7576 365.912 98.7576H359.472V103.028H363.422C363.892 103.028 364.262 103.388 364.262 103.868V103.928C364.262 104.408 363.892 104.778 363.422 104.778H359.472V109.258H365.912C366.382 109.258 366.752 109.628 366.752 110.098V110.168C366.752 110.638 366.382 111.008 365.912 111.008H357.632Z" fill="white"/>
<path d="M72.0446 111.008C70.8846 111.008 70.0246 110.138 70.0246 108.988V103.878C70.0246 103.058 70.1446 102.448 70.6146 101.638L72.4046 98.5676C72.8846 97.7376 73.4646 97.0076 74.7046 97.0076H77.3746C77.8546 97.0076 78.2246 97.3776 78.2246 97.8476V97.9176C78.2246 98.3876 77.8546 98.7576 77.3746 98.7576H74.9746C74.4646 98.7576 74.2746 98.9876 73.9446 99.5476L72.3046 102.318C71.9846 102.858 71.8646 103.238 71.8646 103.878V108.568C71.8646 109.098 72.2046 109.258 72.5846 109.258H76.6946C77.0746 109.258 77.4046 109.098 77.4046 108.568V106.188H75.2946C74.8146 106.188 74.4546 105.828 74.4546 105.348V105.288C74.4546 104.808 74.8146 104.448 75.2946 104.448H79.2446V108.988C79.2446 110.138 78.3946 111.008 77.2346 111.008H72.0446ZM86.7368 111.108C85.4968 111.108 84.9568 110.398 84.4368 109.548L82.1968 105.868C81.6968 105.048 81.6168 104.448 81.6168 103.948C81.6168 103.448 81.6868 102.828 82.1968 102.028L84.4368 98.4676C84.9668 97.6276 85.4968 96.9076 86.6968 96.9076H86.7568C87.9968 96.9076 88.4868 97.6376 89.0168 98.4676L91.2768 102.028C91.7868 102.838 91.8568 103.448 91.8568 103.948C91.8568 104.448 91.7768 105.048 91.2768 105.868L89.0168 109.548C88.4968 110.398 87.9768 111.108 86.7568 111.108H86.7368ZM86.7368 109.378C87.0568 109.378 87.2368 109.178 87.5268 108.688L89.6468 105.098C89.9368 104.598 90.0668 104.328 90.0668 103.948C90.0668 103.558 89.9668 103.308 89.6468 102.798L87.5168 99.3676C87.2268 98.8976 87.0168 98.6776 86.7368 98.6776H86.7168C86.4368 98.6776 86.2568 98.8976 85.9668 99.3676L83.8368 102.798C83.5568 103.238 83.4268 103.508 83.4268 103.948C83.4268 104.378 83.5668 104.638 83.8368 105.098L85.9468 108.668C86.2468 109.178 86.3968 109.378 86.7168 109.378H86.7368ZM98.729 111.108C97.489 111.108 96.949 110.398 96.429 109.548L94.189 105.868C93.689 105.048 93.609 104.448 93.609 103.948C93.609 103.448 93.679 102.828 94.189 102.028L96.429 98.4676C96.959 97.6276 97.489 96.9076 98.689 96.9076H98.749C99.989 96.9076 100.479 97.6376 101.009 98.4676L103.269 102.028C103.779 102.838 103.849 103.448 103.849 103.948C103.849 104.448 103.769 105.048 103.269 105.868L101.009 109.548C100.489 110.398 99.969 111.108 98.749 111.108H98.729ZM98.729 109.378C99.049 109.378 99.229 109.178 99.519 108.688L101.639 105.098C101.929 104.598 102.059 104.328 102.059 103.948C102.059 103.558 101.959 103.308 101.639 102.798L99.509 99.3676C99.219 98.8976 99.009 98.6776 98.729 98.6776H98.709C98.429 98.6776 98.249 98.8976 97.959 99.3676L95.829 102.798C95.549 103.238 95.419 103.508 95.419 103.948C95.419 104.378 95.559 104.638 95.829 105.098L97.939 108.668C98.239 109.178 98.389 109.378 98.709 109.378H98.729ZM108.021 111.008C106.861 111.008 106.001 110.138 106.001 108.988V103.878C106.001 103.058 106.121 102.448 106.591 101.638L108.381 98.5676C108.861 97.7376 109.441 97.0076 110.681 97.0076H113.351C113.831 97.0076 114.201 97.3776 114.201 97.8476V97.9176C114.201 98.3876 113.831 98.7576 113.351 98.7576H110.951C110.441 98.7576 110.251 98.9876 109.921 99.5476L108.281 102.318C107.961 102.858 107.841 103.238 107.841 103.878V108.568C107.841 109.098 108.181 109.258 108.561 109.258H112.671C113.051 109.258 113.381 109.098 113.381 108.568V106.188H111.271C110.791 106.188 110.431 105.828 110.431 105.348V105.288C110.431 104.808 110.791 104.448 111.271 104.448H115.221V108.988C115.221 110.138 114.371 111.008 113.211 111.008H108.021ZM118.573 97.8676C118.573 97.3676 118.953 97.0076 119.463 97.0076H119.513C120.023 97.0076 120.413 97.3676 120.413 97.8676V109.258H126.613C127.093 109.258 127.453 109.628 127.453 110.098V110.168C127.453 110.638 127.093 111.008 126.613 111.008H118.573V97.8676ZM130.156 111.008V97.0076H138.436C138.906 97.0076 139.276 97.3776 139.276 97.8476V97.9176C139.276 98.3876 138.906 98.7576 138.436 98.7576H131.996V103.028H135.946C136.416 103.028 136.786 103.388 136.786 103.868V103.928C136.786 104.408 136.416 104.778 135.946 104.778H131.996V109.258H138.436C138.906 109.258 139.276 109.628 139.276 110.098V110.168C139.276 110.638 138.906 111.008 138.436 111.008H130.156Z" fill="white"/>
<path d="M56.7563 314.6C55.5163 314.6 54.9763 313.89 54.4563 313.04L52.2163 309.36C51.7163 308.54 51.6363 307.94 51.6363 307.44C51.6363 306.94 51.7063 306.32 52.2163 305.52L54.4563 301.96C54.9863 301.12 55.5163 300.4 56.7163 300.4H56.7763C58.0163 300.4 58.5063 301.13 59.0363 301.96L61.2963 305.52C61.8063 306.33 61.8763 306.94 61.8763 307.44C61.8763 307.94 61.7963 308.54 61.2963 309.36L59.0363 313.04C58.5163 313.89 57.9963 314.6 56.7763 314.6H56.7563ZM56.7563 312.87C57.0763 312.87 57.2563 312.67 57.5463 312.18L59.6663 308.59C59.9563 308.09 60.0863 307.82 60.0863 307.44C60.0863 307.05 59.9863 306.8 59.6663 306.29L57.5363 302.86C57.2463 302.39 57.0363 302.17 56.7563 302.17H56.7363C56.4563 302.17 56.2763 302.39 55.9863 302.86L53.8563 306.29C53.5763 306.73 53.4463 307 53.4463 307.44C53.4463 307.87 53.5863 308.13 53.8563 308.59L55.9663 312.16C56.2663 312.67 56.4163 312.87 56.7363 312.87H56.7563ZM65.1885 314.5C64.6685 314.5 64.2885 314.13 64.2885 313.64V300.5H66.2585L71.3685 310.77V301.36C71.3685 300.87 71.7585 300.5 72.2685 300.5H72.3085C72.8485 300.5 73.2085 300.87 73.2085 301.36V314.5H71.2385L66.1285 304.23V313.64C66.1285 314.13 65.7585 314.5 65.2285 314.5H65.1885ZM76.1907 314.5V300.5H84.4707C84.9407 300.5 85.3107 300.87 85.3107 301.34V301.41C85.3107 301.88 84.9407 302.25 84.4707 302.25H78.0307V306.52H81.9807C82.4507 306.52 82.8207 306.88 82.8207 307.36V307.42C82.8207 307.9 82.4507 308.27 81.9807 308.27H78.0307V312.75H84.4707C84.9407 312.75 85.3107 313.12 85.3107 313.59V313.66C85.3107 314.13 84.9407 314.5 84.4707 314.5H76.1907ZM101.335 314.5C100.855 314.5 100.495 314.14 100.495 313.66V301.34C100.495 300.86 100.855 300.5 101.335 300.5H105.185C106.425 300.5 106.995 301.23 107.485 302.06L109.335 305.17C109.785 305.927 109.928 306.475 109.928 307.215C109.928 307.265 109.928 307.317 109.925 307.37C109.905 308.19 109.785 308.76 109.335 309.58L107.485 312.94C107.025 313.77 106.425 314.5 105.185 314.5H101.335ZM105.015 312.75C105.615 312.75 105.765 312.49 106.045 311.96L107.645 308.93C107.935 308.38 108.085 308.01 108.085 307.37C108.085 306.73 107.955 306.35 107.645 305.81L106.045 303.04C105.745 302.52 105.615 302.25 105.015 302.25H102.335V312.75H105.015ZM112.867 314.5C112.357 314.5 111.937 314.17 111.937 313.55V300.5H118.537C120.457 300.5 121.497 301.48 121.497 303.57V304.43C121.497 306.52 120.437 307.43 118.517 307.43H117.072L121.027 312.95C121.197 313.185 121.277 313.405 121.277 313.607C121.277 313.842 121.17 314.057 120.977 314.25C120.807 314.42 120.567 314.508 120.325 314.508C120.052 314.508 119.777 314.395 119.607 314.15L114.877 307.43H113.777V313.55C113.777 314.15 113.407 314.5 112.897 314.5H112.867ZM118.317 305.69C119.247 305.69 119.647 305.45 119.647 304.55V303.46C119.647 302.56 119.277 302.25 118.327 302.25H113.777V305.69H118.317ZM124.599 314.5C124.129 314.5 123.759 314.13 123.759 313.66V313.59C123.759 313.12 124.129 312.75 124.599 312.75H127.769V302.25H124.599C124.129 302.25 123.759 301.88 123.759 301.41V301.34C123.759 300.87 124.129 300.5 124.599 300.5H132.819C133.299 300.5 133.659 300.87 133.659 301.34V301.41C133.659 301.88 133.299 302.25 132.819 302.25H129.609V312.75H132.819C133.299 312.75 133.659 313.12 133.659 313.59V313.66C133.659 314.13 133.299 314.5 132.819 314.5H124.599ZM140.702 314.5C140.182 314.5 139.682 314.17 139.392 313.45L135.962 305.03C135.802 304.64 135.782 304.51 135.782 304.14V301.36C135.782 300.88 136.172 300.5 136.652 300.5H136.762C137.242 300.5 137.612 300.88 137.612 301.36V304.03C137.612 304.41 137.652 304.59 137.782 304.92L140.552 312.03C140.632 312.24 140.652 312.29 140.702 312.41C140.752 312.29 140.772 312.24 140.852 312.03L143.622 304.91C143.752 304.58 143.792 304.41 143.792 304.03V301.36C143.792 300.88 144.162 300.5 144.642 300.5H144.752C145.232 300.5 145.622 300.88 145.622 301.36V304.14C145.622 304.51 145.602 304.64 145.442 305.03L142.032 313.45C141.742 314.17 141.222 314.5 140.702 314.5ZM148.144 314.5V300.5H156.424C156.894 300.5 157.264 300.87 157.264 301.34V301.41C157.264 301.88 156.894 302.25 156.424 302.25H149.984V306.52H153.934C154.404 306.52 154.774 306.88 154.774 307.36V307.42C154.774 307.9 154.404 308.27 153.934 308.27H149.984V312.75H156.424C156.894 312.75 157.264 313.12 157.264 313.59V313.66C157.264 314.13 156.894 314.5 156.424 314.5H148.144Z" fill="white"/>
<path d="M477.619 314.5C477.149 314.5 476.779 314.13 476.779 313.66V313.59C476.779 313.12 477.149 312.75 477.619 312.75H480.789V302.25H477.619C477.149 302.25 476.779 301.88 476.779 301.41V301.34C476.779 300.87 477.149 300.5 477.619 300.5H485.839C486.319 300.5 486.679 300.87 486.679 301.34V301.41C486.679 301.88 486.319 302.25 485.839 302.25H482.629V312.75H485.839C486.319 312.75 486.679 313.12 486.679 313.59V313.66C486.679 314.13 486.319 314.5 485.839 314.5H477.619ZM493.581 314.5C492.341 314.5 491.751 313.78 491.281 312.94L489.481 309.7C489.011 308.86 488.901 308.24 488.901 307.5C488.901 306.76 489.011 306.14 489.481 305.3L491.281 302.06C491.751 301.22 492.341 300.5 493.581 300.5H497.021C497.501 300.5 497.861 300.87 497.861 301.34V301.41C497.861 301.88 497.501 302.25 497.021 302.25H493.861C493.441 302.25 493.201 302.35 492.811 303.05L491.171 305.99C490.871 306.53 490.751 306.95 490.751 307.5C490.751 308.05 490.871 308.47 491.171 309.01L492.811 311.95C493.201 312.65 493.441 312.75 493.861 312.75H497.021C497.501 312.75 497.861 313.12 497.861 313.59V313.66C497.861 314.13 497.501 314.5 497.021 314.5H493.581ZM501.573 301.36C501.573 300.86 501.953 300.5 502.463 300.5H502.513C503.023 300.5 503.413 300.86 503.413 301.36V312.75H509.613C510.093 312.75 510.453 313.12 510.453 313.59V313.66C510.453 314.13 510.093 314.5 509.613 314.5H501.573V301.36ZM517.706 314.6C516.466 314.6 515.926 313.89 515.406 313.04L513.166 309.36C512.666 308.54 512.586 307.94 512.586 307.44C512.586 306.94 512.656 306.32 513.166 305.52L515.406 301.96C515.936 301.12 516.466 300.4 517.666 300.4H517.726C518.966 300.4 519.456 301.13 519.986 301.96L522.246 305.52C522.756 306.33 522.826 306.94 522.826 307.44C522.826 307.94 522.746 308.54 522.246 309.36L519.986 313.04C519.466 313.89 518.946 314.6 517.726 314.6H517.706ZM517.706 312.87C518.026 312.87 518.206 312.67 518.496 312.18L520.616 308.59C520.906 308.09 521.036 307.82 521.036 307.44C521.036 307.05 520.936 306.8 520.616 306.29L518.486 302.86C518.196 302.39 517.986 302.17 517.706 302.17H517.686C517.406 302.17 517.226 302.39 516.936 302.86L514.806 306.29C514.526 306.73 514.396 307 514.396 307.44C514.396 307.87 514.536 308.13 514.806 308.59L516.916 312.16C517.216 312.67 517.366 312.87 517.686 312.87H517.706ZM526.878 314.5C525.798 314.5 524.988 313.68 524.988 312.61V301.45C524.988 300.83 525.388 300.5 525.878 300.5H525.928C526.438 300.5 526.828 300.83 526.828 301.45V312.19C526.828 312.67 527.148 312.75 527.428 312.75H531.968C532.248 312.75 532.568 312.67 532.568 312.19V301.45C532.568 300.83 532.978 300.5 533.468 300.5H533.518C534.008 300.5 534.408 300.83 534.408 301.45V312.61C534.408 313.68 533.598 314.5 532.518 314.5H526.878ZM538.3 314.5C537.82 314.5 537.46 314.14 537.46 313.66V301.34C537.46 300.86 537.82 300.5 538.3 300.5H542.15C543.39 300.5 543.96 301.23 544.45 302.06L546.3 305.17C546.75 305.927 546.892 306.475 546.892 307.215C546.892 307.265 546.892 307.317 546.89 307.37C546.87 308.19 546.75 308.76 546.3 309.58L544.45 312.94C543.99 313.77 543.39 314.5 542.15 314.5H538.3ZM541.98 312.75C542.58 312.75 542.73 312.49 543.01 311.96L544.61 308.93C544.9 308.38 545.05 308.01 545.05 307.37C545.05 306.73 544.92 306.35 544.61 305.81L543.01 303.04C542.71 302.52 542.58 302.25 541.98 302.25H539.3V312.75H541.98Z" fill="white"/>
<path d="M460.181 518.88C459.661 518.88 459.281 518.51 459.281 518.02V504.88H461.251L466.361 515.15V505.74C466.361 505.25 466.751 504.88 467.261 504.88H467.301C467.841 504.88 468.201 505.25 468.201 505.74V518.88H466.231L461.121 508.61V518.02C461.121 518.51 460.751 518.88 460.221 518.88H460.181ZM471.183 518.88V504.88H479.463C479.933 504.88 480.303 505.25 480.303 505.72V505.79C480.303 506.26 479.933 506.63 479.463 506.63H473.023V510.9H476.973C477.443 510.9 477.813 511.26 477.813 511.74V511.8C477.813 512.28 477.443 512.65 476.973 512.65H473.023V517.13H479.463C479.933 517.13 480.303 517.5 480.303 517.97V518.04C480.303 518.51 479.933 518.88 479.463 518.88H471.183ZM483.535 518.83C483.268 518.667 483.118 518.422 483.118 518.132C483.118 517.955 483.173 517.76 483.295 517.56L486.685 511.87L483.235 506.09C483.155 505.955 483.12 505.817 483.12 505.682C483.12 505.392 483.283 505.12 483.535 504.95C483.705 504.837 483.88 504.785 484.045 504.785C484.343 504.785 484.61 504.952 484.765 505.21L487.705 510.14L490.645 505.21C490.8 504.952 491.065 504.79 491.365 504.79C491.53 504.79 491.705 504.84 491.875 504.95C492.128 505.112 492.29 505.387 492.29 505.68C492.29 505.815 492.255 505.955 492.175 506.09L488.725 511.87L492.115 517.56C492.233 517.757 492.288 517.952 492.288 518.13C492.288 518.42 492.143 518.67 491.875 518.83C491.713 518.927 491.55 518.975 491.398 518.975C491.083 518.975 490.8 518.777 490.585 518.42L487.705 513.59L484.825 518.42C484.61 518.777 484.328 518.975 484.013 518.975C483.86 518.975 483.698 518.927 483.535 518.83ZM499.697 518.88C499.177 518.88 498.797 518.51 498.797 518.02V506.63H495.537C495.067 506.63 494.697 506.26 494.697 505.79V505.72C494.697 505.25 495.067 504.88 495.537 504.88H503.897C504.367 504.88 504.737 505.25 504.737 505.72V505.79C504.737 506.26 504.367 506.63 503.897 506.63H500.637V518.02C500.637 518.51 500.267 518.88 499.737 518.88H499.697ZM511.569 518.88C510.329 518.88 509.739 518.16 509.269 517.32L507.469 514.08C506.999 513.24 506.889 512.62 506.889 511.88C506.889 511.14 506.999 510.52 507.469 509.68L509.269 506.44C509.739 505.6 510.329 504.88 511.569 504.88H515.009C515.489 504.88 515.849 505.25 515.849 505.72V505.79C515.849 506.26 515.489 506.63 515.009 506.63H511.849C511.429 506.63 511.189 506.73 510.799 507.43L509.159 510.37C508.859 510.91 508.739 511.33 508.739 511.88C508.739 512.43 508.859 512.85 509.159 513.39L510.799 516.33C511.189 517.03 511.429 517.13 511.849 517.13H515.009C515.489 517.13 515.849 517.5 515.849 517.97V518.04C515.849 518.51 515.489 518.88 515.009 518.88H511.569ZM519.562 505.74C519.562 505.24 519.942 504.88 520.452 504.88H520.502C521.012 504.88 521.402 505.24 521.402 505.74V517.13H527.602C528.082 517.13 528.442 517.5 528.442 517.97V518.04C528.442 518.51 528.082 518.88 527.602 518.88H519.562V505.74ZM535.694 518.98C534.454 518.98 533.914 518.27 533.394 517.42L531.154 513.74C530.654 512.92 530.574 512.32 530.574 511.82C530.574 511.32 530.644 510.7 531.154 509.9L533.394 506.34C533.924 505.5 534.454 504.78 535.654 504.78H535.714C536.954 504.78 537.444 505.51 537.974 506.34L540.234 509.9C540.744 510.71 540.814 511.32 540.814 511.82C540.814 512.32 540.734 512.92 540.234 513.74L537.974 517.42C537.454 518.27 536.934 518.98 535.714 518.98H535.694ZM535.694 517.25C536.014 517.25 536.194 517.05 536.484 516.56L538.604 512.97C538.894 512.47 539.024 512.2 539.024 511.82C539.024 511.43 538.924 511.18 538.604 510.67L536.474 507.24C536.184 506.77 535.974 506.55 535.694 506.55H535.674C535.394 506.55 535.214 506.77 534.924 507.24L532.794 510.67C532.514 511.11 532.384 511.38 532.384 511.82C532.384 512.25 532.524 512.51 532.794 512.97L534.904 516.54C535.204 517.05 535.354 517.25 535.674 517.25H535.694ZM544.866 518.88C543.786 518.88 542.976 518.06 542.976 516.99V505.83C542.976 505.21 543.376 504.88 543.866 504.88H543.916C544.426 504.88 544.816 505.21 544.816 505.83V516.57C544.816 517.05 545.136 517.13 545.416 517.13H549.956C550.236 517.13 550.556 517.05 550.556 516.57V505.83C550.556 505.21 550.966 504.88 551.456 504.88H551.506C551.996 504.88 552.396 505.21 552.396 505.83V516.99C552.396 518.06 551.586 518.88 550.506 518.88H544.866ZM556.288 518.88C555.808 518.88 555.448 518.52 555.448 518.04V505.72C555.448 505.24 555.808 504.88 556.288 504.88H560.138C561.378 504.88 561.948 505.61 562.438 506.44L564.288 509.55C564.738 510.307 564.881 510.855 564.881 511.595C564.881 511.645 564.881 511.697 564.878 511.75C564.858 512.57 564.738 513.14 564.288 513.96L562.438 517.32C561.978 518.15 561.378 518.88 560.138 518.88H556.288ZM559.968 517.13C560.568 517.13 560.718 516.87 560.998 516.34L562.598 513.31C562.888 512.76 563.038 512.39 563.038 511.75C563.038 511.11 562.908 510.73 562.598 510.19L560.998 507.42C560.698 506.9 560.568 506.63 559.968 506.63H557.288V517.13H559.968Z" fill="white"/>
<path d="M65.3585 518.88C64.8785 518.88 64.5185 518.52 64.5185 518.04V505.72C64.5185 505.24 64.8785 504.88 65.3585 504.88H69.2085C70.4485 504.88 71.0185 505.61 71.5085 506.44L73.3585 509.55C73.8085 510.307 73.951 510.855 73.951 511.595C73.951 511.645 73.951 511.697 73.9485 511.75C73.9285 512.57 73.8085 513.14 73.3585 513.96L71.5085 517.32C71.0485 518.15 70.4485 518.88 69.2085 518.88H65.3585ZM69.0385 517.13C69.6385 517.13 69.7885 516.87 70.0685 516.34L71.6685 513.31C71.9585 512.76 72.1085 512.39 72.1085 511.75C72.1085 511.11 71.9785 510.73 71.6685 510.19L70.0685 507.42C69.7685 506.9 69.6385 506.63 69.0385 506.63H66.3585V517.13H69.0385ZM76.8907 518.88C76.3807 518.88 75.9607 518.55 75.9607 517.93V504.88H82.5607C84.4807 504.88 85.5207 505.86 85.5207 507.95V508.81C85.5207 510.9 84.4607 511.81 82.5407 511.81H81.0957L85.0507 517.33C85.2207 517.565 85.3007 517.785 85.3007 517.987C85.3007 518.222 85.1932 518.437 85.0007 518.63C84.8307 518.8 84.5907 518.887 84.3482 518.887C84.0757 518.887 83.8007 518.775 83.6307 518.53L78.9007 511.81H77.8007V517.93C77.8007 518.53 77.4307 518.88 76.9207 518.88H76.8907ZM82.3407 510.07C83.2707 510.07 83.6707 509.83 83.6707 508.93V507.84C83.6707 506.94 83.3007 506.63 82.3507 506.63H77.8007V510.07H82.3407ZM92.7329 518.98C91.4929 518.98 90.9529 518.27 90.4329 517.42L88.1929 513.74C87.6929 512.92 87.6129 512.32 87.6129 511.82C87.6129 511.32 87.6829 510.7 88.1929 509.9L90.4329 506.34C90.9629 505.5 91.4929 504.78 92.6929 504.78H92.7529C93.9929 504.78 94.4829 505.51 95.0129 506.34L97.2729 509.9C97.7829 510.71 97.8529 511.32 97.8529 511.82C97.8529 512.32 97.7729 512.92 97.2729 513.74L95.0129 517.42C94.4929 518.27 93.9729 518.98 92.7529 518.98H92.7329ZM92.7329 517.25C93.0529 517.25 93.2329 517.05 93.5229 516.56L95.6429 512.97C95.9329 512.47 96.0629 512.2 96.0629 511.82C96.0629 511.43 95.9629 511.18 95.6429 510.67L93.5129 507.24C93.2229 506.77 93.0129 506.55 92.7329 506.55H92.7129C92.4329 506.55 92.2529 506.77 91.9629 507.24L89.8329 510.67C89.5529 511.11 89.4229 511.38 89.4229 511.82C89.4229 512.25 89.5629 512.51 89.8329 512.97L91.9429 516.54C92.2429 517.05 92.3929 517.25 92.7129 517.25H92.7329ZM100.665 518.88C100.145 518.88 99.7851 518.53 99.7851 517.93V504.88H106.765C108.395 504.88 109.665 505.96 109.665 507.72V508.92C109.665 510.7 108.315 511.62 106.755 511.62H101.625V517.93C101.625 518.53 101.265 518.88 100.745 518.88H100.665ZM106.605 509.89C107.335 509.89 107.805 509.66 107.805 508.89V507.69C107.805 506.93 107.365 506.63 106.635 506.63H101.625V509.89H106.605ZM112.377 518.88V504.88H117.827C120.247 504.88 121.467 506.25 121.467 508.45V509.01C121.467 510.44 120.847 511.54 119.437 511.8C120.847 512.04 121.467 513.21 121.467 514.56V515.5C121.467 517.64 120.127 518.88 117.937 518.88H112.377ZM117.737 517.13C119.097 517.13 119.627 516.5 119.627 515.23V514.54C119.627 513.32 118.887 512.67 117.687 512.67H114.217V517.13H117.737ZM117.687 510.92C118.867 510.92 119.627 510.33 119.627 509.01V508.48C119.627 507.34 118.997 506.63 117.847 506.63H114.217V510.92H117.687ZM128.709 518.98C127.469 518.98 126.929 518.27 126.409 517.42L124.169 513.74C123.669 512.92 123.589 512.32 123.589 511.82C123.589 511.32 123.659 510.7 124.169 509.9L126.409 506.34C126.939 505.5 127.469 504.78 128.669 504.78H128.729C129.969 504.78 130.459 505.51 130.989 506.34L133.249 509.9C133.759 510.71 133.829 511.32 133.829 511.82C133.829 512.32 133.749 512.92 133.249 513.74L130.989 517.42C130.469 518.27 129.949 518.98 128.729 518.98H128.709ZM128.709 517.25C129.029 517.25 129.209 517.05 129.499 516.56L131.619 512.97C131.909 512.47 132.039 512.2 132.039 511.82C132.039 511.43 131.939 511.18 131.619 510.67L129.489 507.24C129.199 506.77 128.989 506.55 128.709 506.55H128.689C128.409 506.55 128.229 506.77 127.939 507.24L125.809 510.67C125.529 511.11 125.399 511.38 125.399 511.82C125.399 512.25 125.539 512.51 125.809 512.97L127.919 516.54C128.219 517.05 128.369 517.25 128.689 517.25H128.709ZM136.512 518.83C136.244 518.667 136.094 518.422 136.094 518.132C136.094 517.955 136.149 517.76 136.272 517.56L139.662 511.87L136.212 506.09C136.132 505.955 136.097 505.817 136.097 505.682C136.097 505.392 136.259 505.12 136.512 504.95C136.682 504.837 136.857 504.785 137.022 504.785C137.319 504.785 137.587 504.952 137.742 505.21L140.682 510.14L143.622 505.21C143.777 504.952 144.042 504.79 144.342 504.79C144.507 504.79 144.682 504.84 144.852 504.95C145.104 505.112 145.267 505.387 145.267 505.68C145.267 505.815 145.232 505.955 145.152 506.09L141.702 511.87L145.092 517.56C145.209 517.757 145.264 517.952 145.264 518.13C145.264 518.42 145.119 518.67 144.852 518.83C144.689 518.927 144.527 518.975 144.374 518.975C144.059 518.975 143.777 518.777 143.562 518.42L140.682 513.59L137.802 518.42C137.587 518.777 137.304 518.975 136.989 518.975C136.837 518.975 136.674 518.927 136.512 518.83Z" fill="white"/>
<path d="M496.486 111.008C495.873 111.008 495.568 110.643 495.568 110.123C495.568 109.98 495.591 109.828 495.636 109.668L498.816 98.3976C499.046 97.5676 499.656 96.9976 500.506 96.9976C501.316 96.9976 501.926 97.5676 502.176 98.3976L505.576 109.698C505.621 109.845 505.641 109.988 505.641 110.118C505.641 110.643 505.301 111.008 504.726 111.008H504.666C504.256 111.008 503.946 110.818 503.816 110.378L503.096 108.038H498.046L497.366 110.418C497.246 110.828 496.926 111.008 496.546 111.008H496.486ZM498.476 106.288H502.616L500.526 99.0876H500.466L498.476 106.288ZM508.618 97.0076H508.658C509.168 97.0076 509.558 97.3776 509.558 97.8476V108.778L511.718 105.648V104.728C511.718 104.248 512.058 103.888 512.578 103.888H512.618C513.138 103.888 513.478 104.248 513.478 104.728V105.648L515.638 108.778V97.8476C515.638 97.3776 516.028 97.0076 516.538 97.0076H516.578C517.098 97.0076 517.478 97.3776 517.478 97.8476V111.008H514.998L512.598 107.448L510.178 111.008H507.718V97.8476C507.718 97.3776 508.098 97.0076 508.618 97.0076ZM520.46 111.008C519.98 111.008 519.62 110.638 519.62 110.168V110.098C519.62 109.628 519.98 109.258 520.46 109.258H526.25C526.77 109.258 527.08 109.028 527.08 108.628C527.08 108.298 526.79 107.838 525.86 106.798L521.76 102.228C520.46 100.778 519.91 100.058 519.91 99.1876C519.91 97.7576 520.91 97.0076 522.51 97.0076H527.84C528.32 97.0076 528.68 97.3776 528.68 97.8576V97.9076C528.68 98.3876 528.32 98.7576 527.84 98.7576H522.89C522.43 98.7576 522.02 98.9076 522.02 99.3776C522.02 99.6476 522.31 100.038 523.25 101.098L527.33 105.668C528.62 107.118 529.21 107.888 529.21 108.788C529.21 110.118 528.19 111.008 526.68 111.008H520.46Z" fill="white"/>
<path d="M203.02 208.671V202.307H209.384M203.462 202.749L209.915 209.201" stroke="#96FF5E" stroke-width="1.5" stroke-miterlimit="10" stroke-linecap="square"/>
<path d="M203.02 406.329V412.693H209.384M203.462 412.251L209.915 405.799" stroke="#96FF5E" stroke-width="1.5" stroke-miterlimit="10" stroke-linecap="square"/>
<path d="M407.043 202.307L413.407 202.307L413.407 208.671M412.965 202.749L406.513 209.201" stroke="#96FF5E" stroke-width="1.5" stroke-miterlimit="10" stroke-linecap="square"/>
<path d="M407.043 412.693L413.407 412.693L413.407 406.329M412.965 412.251L406.513 405.799" stroke="#96FF5E" stroke-width="1.5" stroke-miterlimit="10" stroke-linecap="square"/>
</g>
<defs>
<clipPath id="clip0_1750_473">
<rect width="615" height="615" fill="white" transform="translate(0.713379)"/>
</clipPath>
</defs>
</svg>
