<svg width="616" height="615" viewBox="0 0 616 615" fill="none" xmlns="http://www.w3.org/2000/svg">
<g clip-path="url(#clip0_1750_541)">
<path d="M599.72 614.516H16.4717" stroke="white" stroke-width="1.5"/>
<path d="M192.736 0.484375H16.4717" stroke="white" stroke-width="1.5"/>
<path d="M192.736 205.753H16.4717" stroke="white" stroke-width="1.5" stroke-dasharray="4.85 4.85"/>
<path d="M396.228 0.484375H219.964" stroke="white" stroke-width="1.5"/>
<path d="M599.72 0.484375H423.456" stroke="white" stroke-width="1.5"/>
<path d="M396.228 205.753H219.964" stroke="white" stroke-width="1.5" stroke-dasharray="4.85 4.85"/>
<path d="M599.72 205.753H423.456" stroke="white" stroke-width="1.5" stroke-dasharray="4.85 4.85"/>
<path d="M1.08057 192.139V15.8755" stroke="white" stroke-width="1.5"/>
<path d="M206.35 192.139V15.8755" stroke="white" stroke-width="1.5" stroke-dasharray="4.85 4.85"/>
<path d="M409.842 192.139V15.8755" stroke="white" stroke-width="1.5" stroke-dasharray="4.85 4.85"/>
<path d="M1.08057 599.124V219.368" stroke="white" stroke-width="1.5"/>
<path d="M615.111 192.14V15.876" stroke="white" stroke-width="1.5"/>
<path d="M615.111 599.125V219.368" stroke="white" stroke-width="1.5"/>
<path d="M98.338 112.832C97.098 112.832 96.508 112.112 96.038 111.272L94.238 108.032C93.768 107.192 93.658 106.572 93.658 105.832C93.658 105.092 93.768 104.472 94.238 103.632L96.038 100.392C96.508 99.5515 97.098 98.8315 98.338 98.8315H101.778C102.258 98.8315 102.618 99.2015 102.618 99.6715V99.7415C102.618 100.212 102.258 100.582 101.778 100.582H98.618C98.198 100.582 97.958 100.682 97.568 101.382L95.928 104.322C95.628 104.862 95.508 105.282 95.508 105.832C95.508 106.382 95.628 106.802 95.928 107.342L97.568 110.282C97.958 110.982 98.198 111.082 98.618 111.082H101.778C102.258 111.082 102.618 111.452 102.618 111.922V111.992C102.618 112.462 102.258 112.832 101.778 112.832H98.338ZM106.64 112.832C106.16 112.832 105.8 112.462 105.8 111.992V111.922C105.8 111.452 106.16 111.082 106.64 111.082H109.32V100.582H106.64C106.16 100.582 105.8 100.212 105.8 99.7415V99.6715C105.8 99.2015 106.16 98.8315 106.64 98.8315H111.16V111.082H113.28V107.772C113.28 107.282 113.66 106.912 114.17 106.912H114.22C114.73 106.912 115.12 107.282 115.12 107.772V111.972C115.12 112.462 114.75 112.832 114.22 112.832H106.64Z" fill="#96FF5E"/>
<path d="M301.83 112.832C300.59 112.832 300 112.112 299.53 111.272L297.73 108.032C297.26 107.192 297.15 106.572 297.15 105.832C297.15 105.092 297.26 104.472 297.73 103.632L299.53 100.392C300 99.5515 300.59 98.8315 301.83 98.8315H305.27C305.75 98.8315 306.11 99.2015 306.11 99.6715V99.7415C306.11 100.212 305.75 100.582 305.27 100.582H302.11C301.69 100.582 301.45 100.682 301.06 101.382L299.42 104.322C299.12 104.862 299 105.282 299 105.832C299 106.382 299.12 106.802 299.42 107.342L301.06 110.282C301.45 110.982 301.69 111.082 302.11 111.082H305.27C305.75 111.082 306.11 111.452 306.11 111.922V111.992C306.11 112.462 305.75 112.832 305.27 112.832H301.83ZM311.382 112.832C310.372 112.832 309.552 112.012 309.552 111.012V106.832C309.552 105.732 310.452 104.922 311.552 104.922H316.592C316.712 104.922 316.772 104.822 316.772 104.742V100.762C316.772 100.682 316.712 100.582 316.592 100.582H310.412C309.932 100.582 309.572 100.232 309.572 99.7515V99.7115C309.572 99.1815 309.932 98.8315 310.412 98.8315H316.622C317.712 98.8315 318.612 99.7315 318.612 100.832V104.762C318.612 105.772 317.712 106.672 316.612 106.672H311.582C311.462 106.672 311.392 106.772 311.392 106.862V111.062C311.392 111.082 311.392 111.082 311.412 111.082H318.062C318.542 111.082 318.912 111.432 318.912 111.912V111.952C318.912 112.482 318.542 112.832 318.062 112.832H311.382Z" fill="#96FF5E"/>
<path d="M226.959 418.958C225.879 418.958 225.069 418.138 225.069 417.068V405.908C225.069 405.288 225.469 404.958 225.959 404.958H226.009C226.519 404.958 226.909 405.288 226.909 405.908V416.648C226.909 417.128 227.229 417.208 227.509 417.208H232.049C232.329 417.208 232.649 417.128 232.649 416.648V405.908C232.649 405.288 233.059 404.958 233.549 404.958H233.599C234.089 404.958 234.489 405.288 234.489 405.908V417.068C234.489 418.138 233.679 418.958 232.599 418.958H226.959ZM238.211 418.958C237.691 418.958 237.311 418.588 237.311 418.098V404.958H239.281L244.391 415.228V405.818C244.391 405.328 244.781 404.958 245.291 404.958H245.331C245.871 404.958 246.231 405.328 246.231 405.818V418.958H244.261L239.151 408.688V418.098C239.151 418.588 238.781 418.958 238.251 418.958H238.211ZM253.624 418.958C252.384 418.958 251.794 418.238 251.324 417.398L249.524 414.158C249.054 413.318 248.944 412.698 248.944 411.958C248.944 411.218 249.054 410.598 249.524 409.758L251.324 406.518C251.794 405.678 252.384 404.958 253.624 404.958H257.064C257.544 404.958 257.904 405.328 257.904 405.798V405.868C257.904 406.338 257.544 406.708 257.064 406.708H253.904C253.484 406.708 253.244 406.808 252.854 407.508L251.214 410.448C250.914 410.988 250.794 411.408 250.794 411.958C250.794 412.508 250.914 412.928 251.214 413.468L252.854 416.408C253.244 417.108 253.484 417.208 253.904 417.208H257.064C257.544 417.208 257.904 417.578 257.904 418.048V418.118C257.904 418.588 257.544 418.958 257.064 418.958H253.624ZM261.906 418.958C261.396 418.958 260.976 418.628 260.976 418.008V404.958H267.576C269.496 404.958 270.536 405.938 270.536 408.028V408.888C270.536 410.978 269.476 411.888 267.556 411.888H266.111L270.066 417.408C270.236 417.643 270.316 417.863 270.316 418.066C270.316 418.301 270.208 418.516 270.016 418.708C269.846 418.878 269.606 418.966 269.363 418.966C269.091 418.966 268.816 418.853 268.646 418.608L263.916 411.888H262.816V418.008C262.816 418.608 262.446 418.958 261.936 418.958H261.906ZM267.356 410.148C268.286 410.148 268.686 409.908 268.686 409.008V407.918C268.686 407.018 268.316 406.708 267.366 406.708H262.816V410.148H267.356ZM277.688 418.958C277.138 418.958 276.788 418.608 276.788 418.038V412.748L273.238 407.768V405.878C273.238 405.338 273.568 404.958 274.138 404.958H274.178C274.708 404.958 275.078 405.288 275.078 405.878V407.398L277.708 411.158H277.748L280.418 407.398V405.878C280.418 405.288 280.788 404.958 281.318 404.958H281.358C281.928 404.958 282.258 405.338 282.258 405.878V407.768L278.628 412.748V418.038C278.628 418.578 278.278 418.958 277.728 418.958H277.688ZM285.68 418.958C285.16 418.958 284.8 418.608 284.8 418.008V404.958H291.78C293.41 404.958 294.68 406.038 294.68 407.798V408.998C294.68 410.778 293.33 411.698 291.77 411.698H286.64V418.008C286.64 418.608 286.28 418.958 285.76 418.958H285.68ZM291.62 409.968C292.35 409.968 292.82 409.738 292.82 408.968V407.768C292.82 407.008 292.38 406.708 291.65 406.708H286.64V409.968H291.62ZM301.712 418.958C301.192 418.958 300.812 418.588 300.812 418.098V406.708H297.552C297.082 406.708 296.712 406.338 296.712 405.868V405.798C296.712 405.328 297.082 404.958 297.552 404.958H305.912C306.382 404.958 306.752 405.328 306.752 405.798V405.868C306.752 406.338 306.382 406.708 305.912 406.708H302.652V418.098C302.652 418.588 302.282 418.958 301.752 418.958H301.712ZM309.175 418.958V404.958H317.455C317.925 404.958 318.295 405.328 318.295 405.798V405.868C318.295 406.338 317.925 406.708 317.455 406.708H311.015V410.978H314.965C315.435 410.978 315.805 411.338 315.805 411.818V411.878C315.805 412.358 315.435 412.728 314.965 412.728H311.015V417.208H317.455C317.925 417.208 318.295 417.578 318.295 418.048V418.118C318.295 418.588 317.925 418.958 317.455 418.958H309.175ZM322.327 418.958C321.847 418.958 321.487 418.598 321.487 418.118V405.798C321.487 405.318 321.847 404.958 322.327 404.958H326.177C327.417 404.958 327.987 405.688 328.477 406.518L330.327 409.628C330.777 410.386 330.919 410.933 330.919 411.673C330.919 411.723 330.919 411.776 330.917 411.828C330.897 412.648 330.777 413.218 330.327 414.038L328.477 417.398C328.017 418.228 327.417 418.958 326.177 418.958H322.327ZM326.007 417.208C326.607 417.208 326.757 416.948 327.037 416.418L328.637 413.388C328.927 412.838 329.077 412.468 329.077 411.828C329.077 411.188 328.947 410.808 328.637 410.268L327.037 407.498C326.737 406.978 326.607 406.708 326.007 406.708H323.327V417.208H326.007ZM346.311 418.958C345.831 418.958 345.471 418.598 345.471 418.118V405.798C345.471 405.318 345.831 404.958 346.311 404.958H350.161C351.401 404.958 351.971 405.688 352.461 406.518L354.311 409.628C354.761 410.386 354.904 410.933 354.904 411.673C354.904 411.723 354.904 411.776 354.901 411.828C354.881 412.648 354.761 413.218 354.311 414.038L352.461 417.398C352.001 418.228 351.401 418.958 350.161 418.958H346.311ZM349.991 417.208C350.591 417.208 350.741 416.948 351.021 416.418L352.621 413.388C352.911 412.838 353.061 412.468 353.061 411.828C353.061 411.188 352.931 410.808 352.621 410.268L351.021 407.498C350.721 406.978 350.591 406.708 349.991 406.708H347.311V417.208H349.991ZM357.573 418.958C356.961 418.958 356.656 418.593 356.656 418.073C356.656 417.931 356.678 417.778 356.723 417.618L359.903 406.348C360.133 405.518 360.743 404.948 361.593 404.948C362.403 404.948 363.013 405.518 363.263 406.348L366.663 417.648C366.708 417.796 366.728 417.938 366.728 418.068C366.728 418.593 366.388 418.958 365.813 418.958H365.753C365.343 418.958 365.033 418.768 364.903 418.328L364.183 415.988H359.133L358.453 418.368C358.333 418.778 358.013 418.958 357.633 418.958H357.573ZM359.563 414.238H363.703L361.613 407.038H361.553L359.563 414.238ZM373.666 418.958C373.146 418.958 372.766 418.588 372.766 418.098V406.708H369.506C369.036 406.708 368.666 406.338 368.666 405.868V405.798C368.666 405.328 369.036 404.958 369.506 404.958H377.866C378.336 404.958 378.706 405.328 378.706 405.798V405.868C378.706 406.338 378.336 406.708 377.866 406.708H374.606V418.098C374.606 418.588 374.236 418.958 373.706 418.958H373.666ZM381.558 418.958C380.945 418.958 380.64 418.593 380.64 418.073C380.64 417.931 380.663 417.778 380.708 417.618L383.888 406.348C384.118 405.518 384.728 404.948 385.578 404.948C386.388 404.948 386.998 405.518 387.248 406.348L390.648 417.648C390.693 417.796 390.713 417.938 390.713 418.068C390.713 418.593 390.373 418.958 389.798 418.958H389.738C389.328 418.958 389.018 418.768 388.888 418.328L388.168 415.988H383.118L382.438 418.368C382.318 418.778 381.998 418.958 381.618 418.958H381.558ZM383.548 414.238H387.688L385.598 407.038H385.538L383.548 414.238Z" fill="white"/>
<path d="M505.322 112.832C504.082 112.832 503.492 112.112 503.022 111.272L501.222 108.032C500.752 107.192 500.642 106.572 500.642 105.832C500.642 105.092 500.752 104.472 501.222 103.632L503.022 100.392C503.492 99.5515 504.082 98.8315 505.322 98.8315H508.762C509.242 98.8315 509.602 99.2015 509.602 99.6715V99.7415C509.602 100.212 509.242 100.582 508.762 100.582H505.602C505.182 100.582 504.942 100.682 504.552 101.382L502.912 104.322C502.612 104.862 502.492 105.282 502.492 105.832C502.492 106.382 502.612 106.802 502.912 107.342L504.552 110.282C504.942 110.982 505.182 111.082 505.602 111.082H508.762C509.242 111.082 509.602 111.452 509.602 111.922V111.992C509.602 112.462 509.242 112.832 508.762 112.832H505.322ZM513.295 112.832C512.815 112.832 512.455 112.482 512.455 111.952V111.912C512.455 111.432 512.815 111.082 513.295 111.082H520.015C520.135 111.082 520.205 110.982 520.205 110.902V107.702C520.205 107.012 519.785 106.792 519.105 106.792H515.765C515.285 106.792 514.925 106.432 514.925 105.952V105.892C514.925 105.412 515.285 105.042 515.765 105.042H519.105C519.785 105.042 520.205 104.832 520.205 104.132V100.762C520.205 100.682 520.135 100.582 520.015 100.582H513.295C512.815 100.582 512.455 100.232 512.455 99.7515V99.7115C512.455 99.1815 512.815 98.8315 513.295 98.8315H520.045C521.145 98.8315 522.045 99.7315 522.045 100.832V104.132C522.045 104.872 521.755 105.672 520.765 105.932C521.755 106.172 522.045 106.952 522.045 107.692V110.832C522.045 111.932 521.145 112.832 520.045 112.832H513.295Z" fill="#96FF5E"/>
</g>
<defs>
<clipPath id="clip0_1750_541">
<rect width="615" height="615" fill="white" transform="translate(0.595703)"/>
</clipPath>
</defs>
</svg>
