<svg width="615" height="615" viewBox="0 0 615 615" fill="none" xmlns="http://www.w3.org/2000/svg">
<path d="M591.871 606.976H22.9458" stroke="white" stroke-width="1.5"/>
<path d="M194.881 8.02441H22.9458" stroke="white" stroke-width="1.5"/>
<path d="M194.881 208.252H22.9458" stroke="white" stroke-width="1.5" stroke-dasharray="4.85 4.85"/>
<path d="M393.376 8.02441H221.441" stroke="white" stroke-width="1.5"/>
<path d="M591.871 8.02441H419.936" stroke="white" stroke-width="1.5"/>
<path d="M393.376 208.252H221.441" stroke="white" stroke-width="1.5" stroke-dasharray="4.85 4.85"/>
<path d="M591.871 208.252H419.936" stroke="white" stroke-width="1.5" stroke-dasharray="4.85 4.85"/>
<path d="M7.93262 194.973V23.0376" stroke="white" stroke-width="1.5"/>
<path d="M208.161 194.973V23.0376" stroke="white" stroke-width="1.5" stroke-dasharray="4.85 4.85"/>
<path d="M406.656 194.973V23.0376" stroke="white" stroke-width="1.5" stroke-dasharray="4.85 4.85"/>
<path d="M7.93262 591.963V221.533" stroke="white" stroke-width="1.5"/>
<path d="M606.884 194.973V23.0381" stroke="white" stroke-width="1.5"/>
<path d="M606.884 591.963V221.533" stroke="white" stroke-width="1.5"/>
<path d="M102.536 116.177C101.296 116.177 100.706 115.457 100.236 114.617L98.436 111.377C97.966 110.537 97.856 109.917 97.856 109.177C97.856 108.437 97.966 107.817 98.436 106.977L100.236 103.737C100.706 102.897 101.296 102.177 102.536 102.177H105.976C106.456 102.177 106.816 102.547 106.816 103.017V103.087C106.816 103.557 106.456 103.927 105.976 103.927H102.816C102.396 103.927 102.156 104.027 101.766 104.727L100.126 107.667C99.826 108.207 99.706 108.627 99.706 109.177C99.706 109.727 99.826 110.147 100.126 110.687L101.766 113.627C102.156 114.327 102.396 114.427 102.816 114.427H105.976C106.456 114.427 106.816 114.797 106.816 115.267V115.337C106.816 115.807 106.456 116.177 105.976 116.177H102.536ZM110.838 116.177C110.358 116.177 109.998 115.807 109.998 115.337V115.267C109.998 114.797 110.358 114.427 110.838 114.427H113.518V103.927H110.838C110.358 103.927 109.998 103.557 109.998 103.087V103.017C109.998 102.547 110.358 102.177 110.838 102.177H115.358V114.427H117.478V111.117C117.478 110.627 117.858 110.257 118.368 110.257H118.418C118.928 110.257 119.318 110.627 119.318 111.117V115.317C119.318 115.807 118.948 116.177 118.418 116.177H110.838Z" fill="#96FF5E"/>
<path d="M301.031 116.177C299.791 116.177 299.201 115.457 298.731 114.617L296.931 111.377C296.461 110.537 296.351 109.917 296.351 109.177C296.351 108.437 296.461 107.817 296.931 106.977L298.731 103.737C299.201 102.897 299.791 102.177 301.031 102.177H304.471C304.951 102.177 305.311 102.547 305.311 103.017V103.087C305.311 103.557 304.951 103.927 304.471 103.927H301.311C300.891 103.927 300.651 104.027 300.261 104.727L298.621 107.667C298.321 108.207 298.201 108.627 298.201 109.177C298.201 109.727 298.321 110.147 298.621 110.687L300.261 113.627C300.651 114.327 300.891 114.427 301.311 114.427H304.471C304.951 114.427 305.311 114.797 305.311 115.267V115.337C305.311 115.807 304.951 116.177 304.471 116.177H301.031ZM310.583 116.177C309.573 116.177 308.753 115.357 308.753 114.357V110.177C308.753 109.077 309.653 108.267 310.753 108.267H315.793C315.913 108.267 315.973 108.167 315.973 108.087V104.107C315.973 104.027 315.913 103.927 315.793 103.927H309.613C309.133 103.927 308.773 103.577 308.773 103.097V103.057C308.773 102.527 309.133 102.177 309.613 102.177H315.823C316.913 102.177 317.813 103.077 317.813 104.177V108.107C317.813 109.117 316.913 110.017 315.813 110.017H310.783C310.663 110.017 310.593 110.117 310.593 110.207V114.407C310.593 114.427 310.593 114.427 310.613 114.427H317.263C317.743 114.427 318.113 114.777 318.113 115.257V115.297C318.113 115.827 317.743 116.177 317.263 116.177H310.583Z" fill="#96FF5E"/>
<path d="M499.526 116.177C498.286 116.177 497.696 115.457 497.226 114.617L495.426 111.377C494.956 110.537 494.846 109.917 494.846 109.177C494.846 108.437 494.956 107.817 495.426 106.977L497.226 103.737C497.696 102.897 498.286 102.177 499.526 102.177H502.966C503.446 102.177 503.806 102.547 503.806 103.017V103.087C503.806 103.557 503.446 103.927 502.966 103.927H499.806C499.386 103.927 499.146 104.027 498.756 104.727L497.116 107.667C496.816 108.207 496.696 108.627 496.696 109.177C496.696 109.727 496.816 110.147 497.116 110.687L498.756 113.627C499.146 114.327 499.386 114.427 499.806 114.427H502.966C503.446 114.427 503.806 114.797 503.806 115.267V115.337C503.806 115.807 503.446 116.177 502.966 116.177H499.526ZM507.498 116.177C507.018 116.177 506.658 115.827 506.658 115.297V115.257C506.658 114.777 507.018 114.427 507.498 114.427H514.218C514.338 114.427 514.408 114.327 514.408 114.247V111.047C514.408 110.357 513.988 110.137 513.308 110.137H509.968C509.488 110.137 509.128 109.777 509.128 109.297V109.237C509.128 108.757 509.488 108.387 509.968 108.387H513.308C513.988 108.387 514.408 108.177 514.408 107.477V104.107C514.408 104.027 514.338 103.927 514.218 103.927H507.498C507.018 103.927 506.658 103.577 506.658 103.097V103.057C506.658 102.527 507.018 102.177 507.498 102.177H514.248C515.348 102.177 516.248 103.077 516.248 104.177V107.477C516.248 108.217 515.958 109.017 514.968 109.277C515.958 109.517 516.248 110.297 516.248 111.037V114.177C516.248 115.277 515.348 116.177 514.248 116.177H507.498Z" fill="#96FF5E"/>
<path d="M275.231 414.786C274.721 414.786 274.341 414.416 274.341 413.926V401.646C274.341 401.156 274.721 400.786 275.231 400.786H275.281C275.791 400.786 276.181 401.156 276.181 401.646V406.806H282.041V401.646C282.041 401.156 282.431 400.786 282.941 400.786H282.991C283.501 400.786 283.881 401.156 283.881 401.646V413.926C283.881 414.416 283.521 414.786 282.991 414.786H282.941C282.431 414.786 282.041 414.416 282.041 413.926V408.556H276.181V413.926C276.181 414.416 275.811 414.786 275.281 414.786H275.231ZM286.703 407.986C286.703 406.956 287.003 406.536 287.873 405.856L288.423 405.426C288.973 404.996 289.463 404.786 290.243 404.786H291.963C292.743 404.786 293.233 404.996 293.783 405.426L294.333 405.856C295.203 406.536 295.503 406.956 295.503 407.986V411.586C295.503 412.616 295.203 413.036 294.333 413.716L293.783 414.146C293.233 414.576 292.743 414.786 291.963 414.786H290.243C289.463 414.786 288.973 414.576 288.423 414.146L287.873 413.716C287.003 413.036 286.703 412.616 286.703 411.586V407.986ZM288.363 411.116C288.363 411.756 288.483 412.026 288.973 412.416L289.263 412.646C289.633 412.936 289.923 413.036 290.423 413.036H291.783C292.283 413.036 292.573 412.936 292.943 412.646L293.233 412.416C293.723 412.026 293.843 411.756 293.843 411.116V408.446C293.843 407.806 293.723 407.546 293.233 407.156L292.943 406.926C292.573 406.636 292.283 406.536 291.783 406.536H290.423C289.923 406.536 289.633 406.636 289.263 406.926L288.973 407.156C288.483 407.546 288.363 407.806 288.363 408.446V411.116ZM298.905 414.736C298.638 414.574 298.488 414.329 298.488 414.039C298.488 413.861 298.543 413.666 298.665 413.466L302.055 407.776L298.605 401.996C298.525 401.861 298.49 401.724 298.49 401.589C298.49 401.299 298.653 401.026 298.905 400.856C299.075 400.744 299.25 400.691 299.415 400.691C299.713 400.691 299.98 400.859 300.135 401.116L303.075 406.046L306.015 401.116C306.17 400.859 306.435 400.696 306.735 400.696C306.9 400.696 307.075 400.746 307.245 400.856C307.498 401.019 307.66 401.294 307.66 401.586C307.66 401.721 307.625 401.861 307.545 401.996L304.095 407.776L307.485 413.466C307.603 413.664 307.658 413.859 307.658 414.036C307.658 414.326 307.513 414.576 307.245 414.736C307.083 414.834 306.92 414.881 306.768 414.881C306.453 414.881 306.17 414.684 305.955 414.326L303.075 409.496L300.195 414.326C299.98 414.684 299.698 414.881 299.383 414.881C299.23 414.881 299.068 414.834 298.905 414.736ZM318.567 414.786C318.107 414.786 317.757 414.416 317.757 413.946V407.536C317.757 406.736 317.277 406.536 316.607 406.536H315.047C314.607 406.536 314.427 406.576 314.147 406.856L312.407 408.596V413.866C312.407 414.406 312.117 414.786 311.607 414.786H311.557C311.087 414.786 310.757 414.456 310.757 413.866V405.706C310.757 405.116 311.087 404.786 311.557 404.786H311.607C312.117 404.786 312.407 405.166 312.407 405.706V406.436L313.587 405.256C313.837 405.006 314.257 404.786 314.857 404.786H316.897C318.257 404.786 319.417 405.746 319.417 407.526V413.946C319.417 414.416 319.067 414.786 318.607 414.786H318.567ZM326.479 414.786C325.699 414.786 325.219 414.576 324.669 414.146L324.119 413.716C323.249 413.036 322.949 412.616 322.949 411.586V407.986C322.949 406.956 323.249 406.536 324.119 405.856L324.669 405.426C325.209 405.006 325.699 404.786 326.479 404.786H330.369C330.849 404.786 331.209 405.156 331.209 405.626V405.696C331.209 406.166 330.849 406.536 330.369 406.536H326.659C326.169 406.536 325.879 406.646 325.509 406.926L325.209 407.156C324.719 407.536 324.599 407.806 324.599 408.446V411.126C324.599 411.766 324.719 412.036 325.209 412.416L325.509 412.646C325.879 412.936 326.159 413.036 326.659 413.036H330.369C330.849 413.036 331.209 413.406 331.209 413.876V413.946C331.209 414.416 330.849 414.786 330.369 414.786H326.479ZM335.362 414.786C334.882 414.786 334.522 414.416 334.522 413.936V413.886C334.522 413.406 334.882 413.036 335.362 413.036H340.632C341.232 413.036 341.632 412.816 341.632 412.296C341.632 411.986 341.412 411.726 340.822 411.436L336.572 409.356C335.402 408.786 334.892 408.106 334.892 407.166C334.892 405.516 336.012 404.786 337.782 404.786H342.752C343.232 404.786 343.602 405.156 343.602 405.636V405.686C343.602 406.146 343.232 406.516 342.752 406.516H337.522C336.992 406.516 336.672 406.706 336.672 407.166C336.672 407.486 336.912 407.706 337.482 407.986L341.732 410.066C342.892 410.636 343.442 411.426 343.442 412.316C343.442 413.886 342.332 414.786 340.522 414.786H335.362ZM351.064 409.586C350.454 409.586 350.354 409.206 350.324 408.836L349.784 402.066C349.771 401.901 349.764 401.754 349.764 401.621C349.764 400.874 350.001 400.606 350.714 400.606H351.434C352.134 400.606 352.374 400.876 352.374 401.631C352.374 401.761 352.366 401.906 352.354 402.066L351.804 408.836C351.774 409.146 351.724 409.586 351.104 409.586H351.064ZM350.624 414.786C350.254 414.786 349.894 414.406 349.894 414.016V413.196C349.894 412.836 350.254 412.466 350.624 412.466H351.544C351.914 412.466 352.264 412.836 352.264 413.196V414.016C352.264 414.406 351.914 414.786 351.544 414.786H350.624ZM262.959 432.786C262.479 432.786 262.119 432.436 262.119 431.906V431.866C262.119 431.386 262.479 431.036 262.959 431.036H269.679C269.799 431.036 269.869 430.936 269.869 430.856V427.656C269.869 426.966 269.449 426.746 268.769 426.746H265.429C264.949 426.746 264.589 426.386 264.589 425.906V425.846C264.589 425.366 264.949 424.996 265.429 424.996H268.769C269.449 424.996 269.869 424.786 269.869 424.086V420.716C269.869 420.636 269.799 420.536 269.679 420.536H262.959C262.479 420.536 262.119 420.186 262.119 419.706V419.666C262.119 419.136 262.479 418.786 262.959 418.786H269.709C270.809 418.786 271.709 419.686 271.709 420.786V424.086C271.709 424.826 271.419 425.626 270.429 425.886C271.419 426.126 271.709 426.906 271.709 427.646V430.786C271.709 431.886 270.809 432.786 269.709 432.786H262.959ZM274.951 432.786C274.481 432.786 274.111 432.416 274.111 431.946V431.876C274.111 431.406 274.481 431.036 274.951 431.036H278.371V424.536H275.431C274.951 424.536 274.581 424.166 274.581 423.696V423.626C274.581 423.156 274.951 422.786 275.431 422.786H279.221C279.741 422.786 280.031 423.166 280.031 423.706V431.036H283.311C283.781 431.036 284.151 431.406 284.151 431.876V431.946C284.151 432.416 283.781 432.786 283.311 432.786H274.951ZM278.191 421.316C277.791 421.316 277.481 421.006 277.481 420.596V419.506C277.481 419.096 277.791 418.786 278.191 418.786H279.311C279.711 418.786 280.031 419.096 280.031 419.506V420.596C280.031 421.006 279.711 421.316 279.311 421.316H278.191ZM289.933 436.786C288.923 436.786 288.253 436.446 287.903 435.546L287.533 434.596C287.463 434.406 287.413 434.216 287.413 434.106C287.413 433.556 287.773 433.306 288.273 433.306C288.783 433.306 288.973 433.596 289.123 434.046L289.283 434.536C289.403 434.916 289.613 435.036 290.123 435.036H292.303C292.563 435.036 292.853 434.966 292.853 434.526V424.536H290.403C289.923 424.536 289.553 424.166 289.553 423.696V423.626C289.553 423.156 289.923 422.786 290.403 422.786H293.853C294.333 422.786 294.693 423.156 294.693 423.626V434.936C294.693 435.976 293.953 436.786 292.843 436.786H289.933ZM292.853 421.316C292.453 421.316 292.143 421.006 292.143 420.596V419.506C292.143 419.096 292.453 418.786 292.853 418.786H293.973C294.373 418.786 294.693 419.096 294.693 419.506V420.596C294.693 421.006 294.373 421.316 293.973 421.316H292.853ZM299.705 432.786C299.225 432.786 298.865 432.426 298.865 431.946V419.626C298.865 419.146 299.225 418.786 299.705 418.786H303.555C304.795 418.786 305.365 419.516 305.855 420.346L307.705 423.456C308.155 424.214 308.298 424.761 308.298 425.501C308.298 425.551 308.298 425.604 308.295 425.656C308.275 426.476 308.155 427.046 307.705 427.866L305.855 431.226C305.395 432.056 304.795 432.786 303.555 432.786H299.705ZM303.385 431.036C303.985 431.036 304.135 430.776 304.415 430.246L306.015 427.216C306.305 426.666 306.455 426.296 306.455 425.656C306.455 425.016 306.325 424.636 306.015 424.096L304.415 421.326C304.115 420.806 303.985 420.536 303.385 420.536H300.705V431.036H303.385ZM313.757 427.126C313.685 426.989 313.645 426.839 313.645 426.691C313.645 426.399 313.795 426.114 314.107 425.946C314.262 425.866 314.415 425.831 314.557 425.831C314.872 425.831 315.137 426.004 315.267 426.246L316.415 428.359L317.007 427.816C317.617 427.256 317.865 426.911 317.865 426.356C317.865 426.129 317.822 425.866 317.747 425.536L316.767 421.236C316.667 420.816 316.617 420.656 316.377 420.586L316.267 420.556C316.212 420.541 316.162 420.534 316.115 420.534C315.927 420.534 315.757 420.644 315.457 420.906L312.227 423.736C311.635 424.256 311.4 424.664 311.4 425.259C311.4 425.474 311.432 425.716 311.487 425.996L312.337 430.196C312.447 430.736 312.537 431.036 312.807 431.116L312.877 431.136C312.935 431.154 312.99 431.164 313.05 431.164C313.255 431.164 313.482 431.039 313.857 430.696L315.09 429.569L313.757 427.126ZM312.177 432.796C311.147 432.476 310.837 431.586 310.617 430.586L309.677 426.276C309.605 425.939 309.57 425.619 309.57 425.314C309.57 424.116 310.105 423.176 310.927 422.466L314.197 419.646C314.815 419.116 315.407 418.691 316.182 418.691C316.387 418.691 316.605 418.721 316.837 418.786L316.947 418.816C318.097 419.126 318.327 420.086 318.557 421.056L319.557 425.266C319.632 425.584 319.675 425.909 319.675 426.231C319.675 427.226 319.285 428.221 318.317 429.066L317.29 429.971L317.867 431.036H319.507C319.987 431.036 320.357 431.406 320.357 431.876V431.946C320.357 432.416 319.987 432.786 319.507 432.786H316.847L315.952 431.149L314.977 432.006C314.38 432.534 313.82 432.964 313.06 432.964C312.837 432.964 312.6 432.926 312.337 432.846L312.177 432.796ZM322.949 432.786C322.469 432.786 322.109 432.416 322.109 431.946V431.876C322.109 431.406 322.469 431.036 322.949 431.036H328.739C329.259 431.036 329.569 430.806 329.569 430.406C329.569 430.076 329.279 429.616 328.349 428.576L324.249 424.006C322.949 422.556 322.399 421.836 322.399 420.966C322.399 419.536 323.399 418.786 324.999 418.786H330.329C330.809 418.786 331.169 419.156 331.169 419.636V419.686C331.169 420.166 330.809 420.536 330.329 420.536H325.379C324.919 420.536 324.509 420.686 324.509 421.156C324.509 421.426 324.799 421.816 325.739 422.876L329.819 427.446C331.109 428.896 331.699 429.666 331.699 430.566C331.699 431.896 330.679 432.786 329.169 432.786H322.949ZM337.902 436.786C336.892 436.786 336.222 436.446 335.872 435.546L335.502 434.596C335.432 434.406 335.382 434.216 335.382 434.106C335.382 433.556 335.742 433.306 336.242 433.306C336.752 433.306 336.942 433.596 337.092 434.046L337.252 434.536C337.372 434.916 337.582 435.036 338.092 435.036H340.272C340.532 435.036 340.822 434.966 340.822 434.526V424.536H338.372C337.892 424.536 337.522 424.166 337.522 423.696V423.626C337.522 423.156 337.892 422.786 338.372 422.786H341.822C342.302 422.786 342.662 423.156 342.662 423.626V434.936C342.662 435.976 341.922 436.786 340.812 436.786H337.902ZM340.822 421.316C340.422 421.316 340.112 421.006 340.112 420.596V419.506C340.112 419.096 340.422 418.786 340.822 418.786H341.942C342.342 418.786 342.662 419.096 342.662 419.506V420.596C342.662 421.006 342.342 421.316 341.942 421.316H340.822ZM351.554 432.786H350.534C350.331 432.786 350.159 432.794 350.004 432.794C349.564 432.794 349.261 432.729 348.774 432.226L347.074 430.466C346.534 429.911 346.491 429.326 346.491 428.881C346.491 428.796 346.494 428.719 346.494 428.646V426.926C346.494 426.854 346.491 426.776 346.491 426.691C346.491 426.246 346.534 425.661 347.074 425.106L348.594 423.526C349.194 422.906 349.534 422.786 350.134 422.786H351.554C352.344 422.786 352.664 423.226 353.294 423.886L353.974 424.589V419.566C353.974 419.116 354.324 418.786 354.784 418.786H354.824C355.284 418.786 355.634 419.116 355.634 419.566V427.121C355.636 427.174 355.636 427.229 355.636 427.279C355.636 427.361 355.634 427.436 355.634 427.506V428.066C355.634 428.136 355.636 428.211 355.636 428.294C355.636 428.344 355.636 428.399 355.634 428.451V431.986C355.634 432.456 355.284 432.786 354.824 432.786H354.784C354.304 432.786 353.974 432.456 353.974 431.986V430.984L353.294 431.686C352.664 432.346 352.344 432.786 351.554 432.786ZM348.264 428.646C348.264 428.956 348.314 429.386 348.694 429.786L349.424 430.536C349.904 431.036 349.924 431.036 350.244 431.036H351.294C351.624 431.036 351.774 430.996 352.244 430.516L353.544 429.186C353.914 428.816 353.974 428.556 353.974 428.246V427.326C353.974 427.016 353.914 426.756 353.544 426.386L352.244 425.056C351.774 424.576 351.624 424.536 351.294 424.536H350.244C349.924 424.536 349.894 424.546 349.424 425.036L348.694 425.786C348.304 426.186 348.264 426.616 348.264 426.926V428.646ZM363.056 432.886C361.816 432.886 361.276 432.176 360.756 431.326L358.516 427.646C358.016 426.826 357.936 426.226 357.936 425.726C357.936 425.226 358.006 424.606 358.516 423.806L360.756 420.246C361.286 419.406 361.816 418.686 363.016 418.686H363.076C364.316 418.686 364.806 419.416 365.336 420.246L367.596 423.806C368.106 424.616 368.176 425.226 368.176 425.726C368.176 426.226 368.096 426.826 367.596 427.646L365.336 431.326C364.816 432.176 364.296 432.886 363.076 432.886H363.056ZM363.056 431.156C363.376 431.156 363.556 430.956 363.846 430.466L365.966 426.876C366.256 426.376 366.386 426.106 366.386 425.726C366.386 425.336 366.286 425.086 365.966 424.576L363.836 421.146C363.546 420.676 363.336 420.456 363.056 420.456H363.036C362.756 420.456 362.576 420.676 362.286 421.146L360.156 424.576C359.876 425.016 359.746 425.286 359.746 425.726C359.746 426.156 359.886 426.416 360.156 426.876L362.266 430.446C362.566 430.956 362.716 431.156 363.036 431.156H363.056Z" fill="white"/>
</svg>
