<svg width="615" height="615" viewBox="0 0 615 615" fill="none" xmlns="http://www.w3.org/2000/svg">
<g clip-path="url(#clip0_2168_578)">
<path d="M194.881 7.93262H22.9456" stroke="white" stroke-width="1.5"/>
<path d="M393.376 7.93262H221.441" stroke="white" stroke-width="1.5"/>
<path d="M591.871 7.93262H419.936" stroke="white" stroke-width="1.5"/>
<path d="M194.881 208.222H22.9456" stroke="white" stroke-width="1.5"/>
<path d="M393.376 208.222H221.441" stroke="white" stroke-width="1.5"/>
<path d="M591.871 208.222H419.936" stroke="white" stroke-width="1.5"/>
<path d="M194.881 406.777H22.9456" stroke="white" stroke-width="1.5"/>
<path d="M393.376 406.777H221.441" stroke="white" stroke-width="1.5"/>
<path d="M591.871 406.777H419.936" stroke="white" stroke-width="1.5"/>
<path d="M7.93262 420.062V592.049" stroke="white" stroke-width="1.5"/>
<path d="M7.93262 221.506V393.494" stroke="white" stroke-width="1.5"/>
<path d="M7.93262 22.9502V194.938" stroke="white" stroke-width="1.5"/>
<path d="M208.161 420.062V592.049" stroke="white" stroke-width="1.5"/>
<path d="M208.161 221.506V393.494" stroke="white" stroke-width="1.5"/>
<path d="M208.161 22.9502V194.938" stroke="white" stroke-width="1.5"/>
<path d="M406.656 420.062V592.049" stroke="white" stroke-width="1.5"/>
<path d="M406.656 221.506V393.494" stroke="white" stroke-width="1.5"/>
<path d="M406.656 22.9502V194.938" stroke="white" stroke-width="1.5"/>
<path d="M606.884 420.062V592.049" stroke="white" stroke-width="1.5"/>
<path d="M606.884 221.506V393.494" stroke="white" stroke-width="1.5"/>
<path d="M606.884 22.9502V194.938" stroke="white" stroke-width="1.5"/>
<path d="M194.881 607.066H22.9456" stroke="white" stroke-width="1.5"/>
<path d="M393.376 607.066H221.441" stroke="white" stroke-width="1.5"/>
<path d="M591.871 607.066H419.936" stroke="white" stroke-width="1.5"/>
<path d="M254.22 303.937V289.937H262.5C262.97 289.937 263.34 290.307 263.34 290.777V290.847C263.34 291.317 262.97 291.687 262.5 291.687H256.06V295.957H260.01C260.48 295.957 260.85 296.317 260.85 296.797V296.857C260.85 297.337 260.48 297.707 260.01 297.707H256.06V302.187H262.5C262.97 302.187 263.34 302.557 263.34 303.027V303.097C263.34 303.567 262.97 303.937 262.5 303.937H254.22ZM267.202 303.937C266.682 303.937 266.302 303.567 266.302 303.077V289.937H268.272L273.382 300.207V290.797C273.382 290.307 273.772 289.937 274.282 289.937H274.322C274.862 289.937 275.222 290.307 275.222 290.797V303.937H273.252L268.142 293.667V303.077C268.142 303.567 267.772 303.937 267.242 303.937H267.202ZM282.614 303.937C281.374 303.937 280.784 303.217 280.314 302.377L278.514 299.137C278.044 298.297 277.934 297.677 277.934 296.937C277.934 296.197 278.044 295.577 278.514 294.737L280.314 291.497C280.784 290.657 281.374 289.937 282.614 289.937H286.054C286.534 289.937 286.894 290.307 286.894 290.777V290.847C286.894 291.317 286.534 291.687 286.054 291.687H282.894C282.474 291.687 282.234 291.787 281.844 292.487L280.204 295.427C279.904 295.967 279.784 296.387 279.784 296.937C279.784 297.487 279.904 297.907 280.204 298.447L281.844 301.387C282.234 302.087 282.474 302.187 282.894 302.187H286.054C286.534 302.187 286.894 302.557 286.894 303.027V303.097C286.894 303.567 286.534 303.937 286.054 303.937H282.614ZM290.896 303.937C290.386 303.937 289.966 303.607 289.966 302.987V289.937H296.566C298.486 289.937 299.526 290.917 299.526 293.007V293.867C299.526 295.957 298.466 296.867 296.546 296.867H295.101L299.056 302.387C299.226 302.622 299.306 302.842 299.306 303.044C299.306 303.279 299.199 303.494 299.006 303.687C298.836 303.857 298.596 303.944 298.354 303.944C298.081 303.944 297.806 303.832 297.636 303.587L292.906 296.867H291.806V302.987C291.806 303.587 291.436 303.937 290.926 303.937H290.896ZM296.346 295.127C297.276 295.127 297.676 294.887 297.676 293.987V292.897C297.676 291.997 297.306 291.687 296.356 291.687H291.806V295.127H296.346ZM306.679 303.937C306.129 303.937 305.779 303.587 305.779 303.017V297.727L302.229 292.747V290.857C302.229 290.317 302.559 289.937 303.129 289.937H303.169C303.699 289.937 304.069 290.267 304.069 290.857V292.377L306.699 296.137H306.739L309.409 292.377V290.857C309.409 290.267 309.779 289.937 310.309 289.937H310.349C310.919 289.937 311.249 290.317 311.249 290.857V292.747L307.619 297.727V303.017C307.619 303.557 307.269 303.937 306.719 303.937H306.679ZM314.671 303.937C314.151 303.937 313.791 303.587 313.791 302.987V289.937H320.771C322.401 289.937 323.671 291.017 323.671 292.777V293.977C323.671 295.757 322.321 296.677 320.761 296.677H315.631V302.987C315.631 303.587 315.271 303.937 314.751 303.937H314.671ZM320.611 294.947C321.341 294.947 321.811 294.717 321.811 293.947V292.747C321.811 291.987 321.371 291.687 320.641 291.687H315.631V294.947H320.611ZM330.703 303.937C330.183 303.937 329.803 303.567 329.803 303.077V291.687H326.543C326.073 291.687 325.703 291.317 325.703 290.847V290.777C325.703 290.307 326.073 289.937 326.543 289.937H334.903C335.373 289.937 335.743 290.307 335.743 290.777V290.847C335.743 291.317 335.373 291.687 334.903 291.687H331.643V303.077C331.643 303.567 331.273 303.937 330.743 303.937H330.703ZM338.165 303.937V289.937H346.445C346.915 289.937 347.285 290.307 347.285 290.777V290.847C347.285 291.317 346.915 291.687 346.445 291.687H340.005V295.957H343.955C344.425 295.957 344.795 296.317 344.795 296.797V296.857C344.795 297.337 344.425 297.707 343.955 297.707H340.005V302.187H346.445C346.915 302.187 347.285 302.557 347.285 303.027V303.097C347.285 303.567 346.915 303.937 346.445 303.937H338.165ZM351.317 303.937C350.837 303.937 350.477 303.577 350.477 303.097V290.777C350.477 290.297 350.837 289.937 351.317 289.937H355.167C356.407 289.937 356.977 290.667 357.467 291.497L359.317 294.607C359.767 295.364 359.91 295.912 359.91 296.652C359.91 296.702 359.91 296.754 359.907 296.807C359.887 297.627 359.767 298.197 359.317 299.017L357.467 302.377C357.007 303.207 356.407 303.937 355.167 303.937H351.317ZM354.997 302.187C355.597 302.187 355.747 301.927 356.027 301.397L357.627 298.367C357.917 297.817 358.067 297.447 358.067 296.807C358.067 296.167 357.937 295.787 357.627 295.247L356.027 292.477C355.727 291.957 355.597 291.687 354.997 291.687H352.317V302.187H354.997ZM266.702 325.937C266.182 325.937 265.822 325.587 265.822 324.987V311.937H272.802C274.432 311.937 275.702 313.017 275.702 314.777V315.977C275.702 317.757 274.352 318.677 272.792 318.677H267.662V324.987C267.662 325.587 267.302 325.937 266.782 325.937H266.702ZM272.642 316.947C273.372 316.947 273.842 316.717 273.842 315.947V314.747C273.842 313.987 273.402 313.687 272.672 313.687H267.662V316.947H272.642ZM278.634 325.937C278.022 325.937 277.717 325.572 277.717 325.052C277.717 324.909 277.739 324.757 277.784 324.597L280.964 313.327C281.194 312.497 281.804 311.927 282.654 311.927C283.464 311.927 284.074 312.497 284.324 313.327L287.724 324.627C287.769 324.774 287.789 324.917 287.789 325.047C287.789 325.572 287.449 325.937 286.874 325.937H286.814C286.404 325.937 286.094 325.747 285.964 325.307L285.244 322.967H280.194L279.514 325.347C279.394 325.757 279.074 325.937 278.694 325.937H278.634ZM280.624 321.217H284.764L282.674 314.017H282.614L280.624 321.217ZM294.686 325.937C294.136 325.937 293.786 325.587 293.786 325.017V319.727L290.236 314.747V312.857C290.236 312.317 290.566 311.937 291.136 311.937H291.176C291.706 311.937 292.076 312.267 292.076 312.857V314.377L294.706 318.137H294.746L297.416 314.377V312.857C297.416 312.267 297.786 311.937 298.316 311.937H298.356C298.926 311.937 299.256 312.317 299.256 312.857V314.747L295.626 319.727V325.017C295.626 325.557 295.276 325.937 294.726 325.937H294.686ZM302.599 312.797C302.599 312.297 302.979 311.937 303.489 311.937H303.539C304.049 311.937 304.439 312.297 304.439 312.797V324.187H310.639C311.119 324.187 311.479 324.557 311.479 325.027V325.097C311.479 325.567 311.119 325.937 310.639 325.937H302.599V312.797ZM318.731 326.037C317.491 326.037 316.951 325.327 316.431 324.477L314.191 320.797C313.691 319.977 313.611 319.377 313.611 318.877C313.611 318.377 313.681 317.757 314.191 316.957L316.431 313.397C316.961 312.557 317.491 311.837 318.691 311.837H318.751C319.991 311.837 320.481 312.567 321.011 313.397L323.271 316.957C323.781 317.767 323.851 318.377 323.851 318.877C323.851 319.377 323.771 319.977 323.271 320.797L321.011 324.477C320.491 325.327 319.971 326.037 318.751 326.037H318.731ZM318.731 324.307C319.051 324.307 319.231 324.107 319.521 323.617L321.641 320.027C321.931 319.527 322.061 319.257 322.061 318.877C322.061 318.487 321.961 318.237 321.641 317.727L319.511 314.297C319.221 313.827 319.011 313.607 318.731 313.607H318.711C318.431 313.607 318.251 313.827 317.961 314.297L315.831 317.727C315.551 318.167 315.421 318.437 315.421 318.877C315.421 319.307 315.561 319.567 315.831 320.027L317.941 323.597C318.241 324.107 318.391 324.307 318.711 324.307H318.731ZM326.603 325.937C325.99 325.937 325.685 325.572 325.685 325.052C325.685 324.909 325.708 324.757 325.753 324.597L328.933 313.327C329.163 312.497 329.773 311.927 330.623 311.927C331.433 311.927 332.043 312.497 332.293 313.327L335.693 324.627C335.738 324.774 335.758 324.917 335.758 325.047C335.758 325.572 335.418 325.937 334.843 325.937H334.783C334.373 325.937 334.063 325.747 333.933 325.307L333.213 322.967H328.163L327.483 325.347C327.363 325.757 327.043 325.937 326.663 325.937H326.603ZM328.593 321.217H332.733L330.643 314.017H330.583L328.593 321.217ZM339.325 325.937C338.845 325.937 338.485 325.577 338.485 325.097V312.777C338.485 312.297 338.845 311.937 339.325 311.937H343.175C344.415 311.937 344.985 312.667 345.475 313.497L347.325 316.607C347.775 317.364 347.918 317.912 347.918 318.652C347.918 318.702 347.918 318.754 347.915 318.807C347.895 319.627 347.775 320.197 347.325 321.017L345.475 324.377C345.015 325.207 344.415 325.937 343.175 325.937H339.325ZM343.005 324.187C343.605 324.187 343.755 323.927 344.035 323.397L345.635 320.367C345.925 319.817 346.075 319.447 346.075 318.807C346.075 318.167 345.945 317.787 345.635 317.247L344.035 314.477C343.735 313.957 343.605 313.687 343.005 313.687H340.325V324.187H343.005Z" fill="#96FF5E"/>
<path d="M267.077 514.092C266.597 514.092 266.237 513.732 266.237 513.252V500.932C266.237 500.452 266.597 500.092 267.077 500.092H270.927C272.167 500.092 272.737 500.822 273.227 501.652L275.077 504.762C275.527 505.519 275.67 506.067 275.67 506.807C275.67 506.857 275.67 506.909 275.667 506.962C275.647 507.782 275.527 508.352 275.077 509.172L273.227 512.532C272.767 513.362 272.167 514.092 270.927 514.092H267.077ZM270.757 512.342C271.357 512.342 271.507 512.082 271.787 511.552L273.387 508.522C273.677 507.972 273.827 507.602 273.827 506.962C273.827 506.322 273.697 505.942 273.387 505.402L271.787 502.632C271.487 502.112 271.357 501.842 270.757 501.842H268.077V512.342H270.757ZM278.609 514.092C278.099 514.092 277.679 513.762 277.679 513.142V500.092H284.279C286.199 500.092 287.239 501.072 287.239 503.162V504.022C287.239 506.112 286.179 507.022 284.259 507.022H282.814L286.769 512.542C286.939 512.777 287.019 512.997 287.019 513.199C287.019 513.434 286.912 513.649 286.719 513.842C286.549 514.012 286.309 514.099 286.067 514.099C285.794 514.099 285.519 513.987 285.349 513.742L280.619 507.022H279.519V513.142C279.519 513.742 279.149 514.092 278.639 514.092H278.609ZM284.059 505.282C284.989 505.282 285.389 505.042 285.389 504.142V503.052C285.389 502.152 285.019 501.842 284.069 501.842H279.519V505.282H284.059ZM294.452 514.192C293.212 514.192 292.672 513.482 292.152 512.632L289.912 508.952C289.412 508.132 289.332 507.532 289.332 507.032C289.332 506.532 289.402 505.912 289.912 505.112L292.152 501.552C292.682 500.712 293.212 499.992 294.412 499.992H294.472C295.712 499.992 296.202 500.722 296.732 501.552L298.992 505.112C299.502 505.922 299.572 506.532 299.572 507.032C299.572 507.532 299.492 508.132 298.992 508.952L296.732 512.632C296.212 513.482 295.692 514.192 294.472 514.192H294.452ZM294.452 512.462C294.772 512.462 294.952 512.262 295.242 511.772L297.362 508.182C297.652 507.682 297.782 507.412 297.782 507.032C297.782 506.642 297.682 506.392 297.362 505.882L295.232 502.452C294.942 501.982 294.732 501.762 294.452 501.762H294.432C294.152 501.762 293.972 501.982 293.682 502.452L291.552 505.882C291.272 506.322 291.142 506.592 291.142 507.032C291.142 507.462 291.282 507.722 291.552 508.182L293.662 511.752C293.962 512.262 294.112 512.462 294.432 512.462H294.452ZM302.384 514.092C301.864 514.092 301.504 513.742 301.504 513.142V500.092H308.484C310.114 500.092 311.384 501.172 311.384 502.932V504.132C311.384 505.912 310.034 506.832 308.474 506.832H303.344V513.142C303.344 513.742 302.984 514.092 302.464 514.092H302.384ZM308.324 505.102C309.054 505.102 309.524 504.872 309.524 504.102V502.902C309.524 502.142 309.084 501.842 308.354 501.842H303.344V505.102H308.324ZM314.096 514.092V500.092H319.546C321.966 500.092 323.186 501.462 323.186 503.662V504.222C323.186 505.652 322.566 506.752 321.156 507.012C322.566 507.252 323.186 508.422 323.186 509.772V510.712C323.186 512.852 321.846 514.092 319.656 514.092H314.096ZM319.456 512.342C320.816 512.342 321.346 511.712 321.346 510.442V509.752C321.346 508.532 320.606 507.882 319.406 507.882H315.936V512.342H319.456ZM319.406 506.132C320.586 506.132 321.346 505.542 321.346 504.222V503.692C321.346 502.552 320.716 501.842 319.566 501.842H315.936V506.132H319.406ZM330.428 514.192C329.188 514.192 328.648 513.482 328.128 512.632L325.888 508.952C325.388 508.132 325.308 507.532 325.308 507.032C325.308 506.532 325.378 505.912 325.888 505.112L328.128 501.552C328.658 500.712 329.188 499.992 330.388 499.992H330.448C331.688 499.992 332.178 500.722 332.708 501.552L334.968 505.112C335.478 505.922 335.548 506.532 335.548 507.032C335.548 507.532 335.468 508.132 334.968 508.952L332.708 512.632C332.188 513.482 331.668 514.192 330.448 514.192H330.428ZM330.428 512.462C330.748 512.462 330.928 512.262 331.218 511.772L333.338 508.182C333.628 507.682 333.758 507.412 333.758 507.032C333.758 506.642 333.658 506.392 333.338 505.882L331.208 502.452C330.918 501.982 330.708 501.762 330.428 501.762H330.408C330.128 501.762 329.948 501.982 329.658 502.452L327.528 505.882C327.248 506.322 327.118 506.592 327.118 507.032C327.118 507.462 327.258 507.722 327.528 508.182L329.638 511.752C329.938 512.262 330.088 512.462 330.408 512.462H330.428ZM338.23 514.042C337.963 513.879 337.813 513.634 337.813 513.344C337.813 513.167 337.868 512.972 337.99 512.772L341.38 507.082L337.93 501.302C337.85 501.167 337.815 501.029 337.815 500.894C337.815 500.604 337.978 500.332 338.23 500.162C338.4 500.049 338.575 499.997 338.74 499.997C339.038 499.997 339.305 500.164 339.46 500.422L342.4 505.352L345.34 500.422C345.495 500.164 345.76 500.002 346.06 500.002C346.225 500.002 346.4 500.052 346.57 500.162C346.823 500.324 346.985 500.599 346.985 500.892C346.985 501.027 346.95 501.167 346.87 501.302L343.42 507.082L346.81 512.772C346.928 512.969 346.983 513.164 346.983 513.342C346.983 513.632 346.838 513.882 346.57 514.042C346.408 514.139 346.245 514.187 346.093 514.187C345.778 514.187 345.495 513.989 345.28 513.632L342.4 508.802L339.52 513.632C339.305 513.989 339.023 514.187 338.708 514.187C338.555 514.187 338.393 514.139 338.23 514.042Z" fill="white"/>
<path d="M254.64 116.114C254.16 116.114 253.8 115.744 253.8 115.274V115.204C253.8 114.734 254.16 114.364 254.64 114.364H260.43C260.95 114.364 261.26 114.134 261.26 113.734C261.26 113.404 260.97 112.944 260.04 111.904L255.94 107.334C254.64 105.884 254.09 105.164 254.09 104.294C254.09 102.864 255.09 102.114 256.69 102.114H262.02C262.5 102.114 262.86 102.484 262.86 102.964V103.014C262.86 103.494 262.5 103.864 262.02 103.864H257.07C256.61 103.864 256.2 104.014 256.2 104.484C256.2 104.754 256.49 105.144 257.43 106.204L261.51 110.774C262.8 112.224 263.39 112.994 263.39 113.894C263.39 115.224 262.37 116.114 260.86 116.114H254.64ZM266.602 116.114C266.122 116.114 265.762 115.764 265.762 115.234V115.194C265.762 114.714 266.122 114.364 266.602 114.364H273.322C273.442 114.364 273.512 114.264 273.512 114.184V110.984C273.512 110.294 273.092 110.074 272.412 110.074H269.072C268.592 110.074 268.232 109.714 268.232 109.234V109.174C268.232 108.694 268.592 108.324 269.072 108.324H272.412C273.092 108.324 273.512 108.114 273.512 107.414V104.044C273.512 103.964 273.442 103.864 273.322 103.864H266.602C266.122 103.864 265.762 103.514 265.762 103.034V102.994C265.762 102.464 266.122 102.114 266.602 102.114H273.352C274.452 102.114 275.352 103.014 275.352 104.114V107.414C275.352 108.154 275.062 108.954 274.072 109.214C275.062 109.454 275.352 110.234 275.352 110.974V114.114C275.352 115.214 274.452 116.114 273.352 116.114H266.602ZM290.406 116.114V102.114H295.856C298.276 102.114 299.496 103.484 299.496 105.684V106.244C299.496 107.674 298.876 108.774 297.466 109.034C298.876 109.274 299.496 110.444 299.496 111.794V112.734C299.496 114.874 298.156 116.114 295.966 116.114H290.406ZM295.766 114.364C297.126 114.364 297.656 113.734 297.656 112.464V111.774C297.656 110.554 296.916 109.904 295.716 109.904H292.246V114.364H295.766ZM295.716 108.154C296.896 108.154 297.656 107.564 297.656 106.244V105.714C297.656 104.574 297.026 103.864 295.876 103.864H292.246V108.154H295.716ZM303.919 116.114C302.839 116.114 302.029 115.294 302.029 114.224V103.064C302.029 102.444 302.429 102.114 302.919 102.114H302.969C303.479 102.114 303.869 102.444 303.869 103.064V113.804C303.869 114.284 304.189 114.364 304.469 114.364H309.009C309.289 114.364 309.609 114.284 309.609 113.804V103.064C309.609 102.444 310.019 102.114 310.509 102.114H310.559C311.049 102.114 311.449 102.444 311.449 103.064V114.224C311.449 115.294 310.639 116.114 309.559 116.114H303.919ZM318.591 116.114C317.351 116.114 316.761 115.394 316.291 114.554L314.491 111.314C314.021 110.474 313.911 109.854 313.911 109.114C313.911 108.374 314.021 107.754 314.491 106.914L316.291 103.674C316.761 102.834 317.351 102.114 318.591 102.114H322.031C322.511 102.114 322.871 102.484 322.871 102.954V103.024C322.871 103.494 322.511 103.864 322.031 103.864H318.871C318.451 103.864 318.211 103.964 317.821 104.664L316.181 107.604C315.881 108.144 315.761 108.564 315.761 109.114C315.761 109.664 315.881 110.084 316.181 110.624L317.821 113.564C318.211 114.264 318.451 114.364 318.871 114.364H322.031C322.511 114.364 322.871 114.734 322.871 115.204V115.274C322.871 115.744 322.511 116.114 322.031 116.114H318.591ZM335.543 115.814C335.333 116.019 335.108 116.109 334.888 116.109C334.638 116.109 334.395 115.992 334.193 115.794L328.383 110.184V115.254C328.383 115.744 328.013 116.114 327.483 116.114H327.443C326.933 116.114 326.543 115.744 326.543 115.254V102.974C326.543 102.484 326.933 102.114 327.443 102.114H327.483C328.003 102.114 328.383 102.484 328.383 102.974V107.604L333.803 102.444C334.003 102.249 334.255 102.127 334.513 102.127C334.73 102.127 334.953 102.214 335.153 102.414C335.318 102.579 335.428 102.802 335.428 103.044C335.428 103.269 335.33 103.512 335.093 103.734L329.683 108.894L335.523 114.544C335.735 114.752 335.823 114.977 335.823 115.189C335.823 115.427 335.713 115.649 335.543 115.814ZM338.165 116.114V102.114H346.445C346.915 102.114 347.285 102.484 347.285 102.954V103.024C347.285 103.494 346.915 103.864 346.445 103.864H340.005V108.134H343.955C344.425 108.134 344.795 108.494 344.795 108.974V109.034C344.795 109.514 344.425 109.884 343.955 109.884H340.005V114.364H346.445C346.915 114.364 347.285 114.734 347.285 115.204V115.274C347.285 115.744 346.915 116.114 346.445 116.114H338.165ZM354.687 116.114C354.167 116.114 353.787 115.744 353.787 115.254V103.864H350.527C350.057 103.864 349.687 103.494 349.687 103.024V102.954C349.687 102.484 350.057 102.114 350.527 102.114H358.887C359.357 102.114 359.727 102.484 359.727 102.954V103.024C359.727 103.494 359.357 103.864 358.887 103.864H355.627V115.254C355.627 115.744 355.257 116.114 354.727 116.114H354.687Z" fill="white"/>
<path d="M71.9724 116.214C70.7324 116.214 70.1924 115.504 69.6724 114.654L67.4324 110.974C66.9324 110.154 66.8524 109.554 66.8524 109.054C66.8524 108.554 66.9224 107.934 67.4324 107.134L69.6724 103.574C70.2024 102.734 70.7324 102.014 71.9324 102.014H71.9924C73.2324 102.014 73.7224 102.744 74.2524 103.574L76.5124 107.134C77.0224 107.944 77.0924 108.554 77.0924 109.054C77.0924 109.554 77.0124 110.154 76.5124 110.974L74.2524 114.654C73.7324 115.504 73.2124 116.214 71.9924 116.214H71.9724ZM71.9724 114.484C72.2924 114.484 72.4724 114.284 72.7624 113.794L74.8824 110.204C75.1724 109.704 75.3024 109.434 75.3024 109.054C75.3024 108.664 75.2024 108.414 74.8824 107.904L72.7524 104.474C72.4624 104.004 72.2524 103.784 71.9724 103.784H71.9524C71.6724 103.784 71.4924 104.004 71.2024 104.474L69.0724 107.904C68.7924 108.344 68.6624 108.614 68.6624 109.054C68.6624 109.484 68.8024 109.744 69.0724 110.204L71.1824 113.774C71.4824 114.284 71.6324 114.484 71.9524 114.484H71.9724ZM80.1146 116.114C79.6046 116.114 79.1846 115.784 79.1846 115.164V102.114H85.7846C87.7046 102.114 88.7446 103.094 88.7446 105.184V106.044C88.7446 108.134 87.6846 109.044 85.7646 109.044H84.3196L88.2746 114.564C88.4446 114.799 88.5246 115.019 88.5246 115.222C88.5246 115.457 88.4171 115.672 88.2246 115.864C88.0546 116.034 87.8146 116.122 87.5721 116.122C87.2996 116.122 87.0246 116.009 86.8546 115.764L82.1246 109.044H81.0246V115.164C81.0246 115.764 80.6546 116.114 80.1446 116.114H80.1146ZM85.5646 107.304C86.4946 107.304 86.8946 107.064 86.8946 106.164V105.074C86.8946 104.174 86.5246 103.864 85.5746 103.864H81.0246V107.304H85.5646ZM91.6168 116.114V102.114H97.0668C99.4868 102.114 100.707 103.484 100.707 105.684V106.244C100.707 107.674 100.087 108.774 98.6768 109.034C100.087 109.274 100.707 110.444 100.707 111.794V112.734C100.707 114.874 99.3668 116.114 97.1768 116.114H91.6168ZM96.9768 114.364C98.3368 114.364 98.8668 113.734 98.8668 112.464V111.774C98.8668 110.554 98.1268 109.904 96.9268 109.904H93.4568V114.364H96.9768ZM96.9268 108.154C98.1068 108.154 98.8668 107.564 98.8668 106.244V105.714C98.8668 104.574 98.2368 103.864 97.0868 103.864H93.4568V108.154H96.9268ZM103.839 116.114C103.369 116.114 102.999 115.744 102.999 115.274V115.204C102.999 114.734 103.369 114.364 103.839 114.364H107.009V103.864H103.839C103.369 103.864 102.999 103.494 102.999 103.024V102.954C102.999 102.484 103.369 102.114 103.839 102.114H112.059C112.539 102.114 112.899 102.484 112.899 102.954V103.024C112.899 103.494 112.539 103.864 112.059 103.864H108.849V114.364H112.059C112.539 114.364 112.899 114.734 112.899 115.204V115.274C112.899 115.744 112.539 116.114 112.059 116.114H103.839ZM115.811 116.114C115.331 116.114 114.971 115.744 114.971 115.274V115.204C114.971 114.734 115.331 114.364 115.811 114.364H121.601C122.121 114.364 122.431 114.134 122.431 113.734C122.431 113.404 122.141 112.944 121.211 111.904L117.111 107.334C115.811 105.884 115.261 105.164 115.261 104.294C115.261 102.864 116.261 102.114 117.861 102.114H123.191C123.671 102.114 124.031 102.484 124.031 102.964V103.014C124.031 103.494 123.671 103.864 123.191 103.864H118.241C117.781 103.864 117.371 104.014 117.371 104.484C117.371 104.754 117.661 105.144 118.601 106.204L122.681 110.774C123.971 112.224 124.561 112.994 124.561 113.894C124.561 115.224 123.541 116.114 122.031 116.114H115.811ZM128.543 116.114C128.063 116.114 127.703 115.754 127.703 115.274V102.954C127.703 102.474 128.063 102.114 128.543 102.114H132.393C133.633 102.114 134.203 102.844 134.693 103.674L136.543 106.784C136.993 107.542 137.136 108.089 137.136 108.829C137.136 108.879 137.136 108.932 137.133 108.984C137.113 109.804 136.993 110.374 136.543 111.194L134.693 114.554C134.233 115.384 133.633 116.114 132.393 116.114H128.543ZM132.223 114.364C132.823 114.364 132.973 114.104 133.253 113.574L134.853 110.544C135.143 109.994 135.293 109.624 135.293 108.984C135.293 108.344 135.163 107.964 134.853 107.424L133.253 104.654C132.953 104.134 132.823 103.864 132.223 103.864H129.543V114.364H132.223ZM139.586 116.114V102.114H145.036C147.456 102.114 148.676 103.484 148.676 105.684V106.244C148.676 107.674 148.056 108.774 146.646 109.034C148.056 109.274 148.676 110.444 148.676 111.794V112.734C148.676 114.874 147.336 116.114 145.146 116.114H139.586ZM144.946 114.364C146.306 114.364 146.836 113.734 146.836 112.464V111.774C146.836 110.554 146.096 109.904 144.896 109.904H141.426V114.364H144.946ZM144.896 108.154C146.076 108.154 146.836 107.564 146.836 106.244V105.714C146.836 104.574 146.206 103.864 145.056 103.864H141.426V108.154H144.896Z" fill="white"/>
<path d="M67.8524 314.669C67.2399 314.669 66.9349 314.304 66.9349 313.784C66.9349 313.642 66.9574 313.489 67.0024 313.329L70.1824 302.059C70.4124 301.229 71.0224 300.659 71.8724 300.659C72.6824 300.659 73.2924 301.229 73.5424 302.059L76.9424 313.359C76.9874 313.507 77.0074 313.649 77.0074 313.779C77.0074 314.304 76.6674 314.669 76.0924 314.669H76.0324C75.6224 314.669 75.3124 314.479 75.1824 314.039L74.4624 311.699H69.4124L68.7324 314.079C68.6124 314.489 68.2924 314.669 67.9124 314.669H67.8524ZM69.8424 309.949H73.9824L71.8924 302.749H71.8324L69.8424 309.949ZM80.1146 314.669C79.6046 314.669 79.1846 314.339 79.1846 313.719V300.669H85.7846C87.7046 300.669 88.7446 301.649 88.7446 303.739V304.599C88.7446 306.689 87.6846 307.599 85.7646 307.599H84.3196L88.2746 313.119C88.4446 313.354 88.5246 313.574 88.5246 313.777C88.5246 314.012 88.4171 314.227 88.2246 314.419C88.0546 314.589 87.8146 314.677 87.5721 314.677C87.2996 314.677 87.0246 314.564 86.8546 314.319L82.1246 307.599H81.0246V313.719C81.0246 314.319 80.6546 314.669 80.1446 314.669H80.1146ZM85.5646 305.859C86.4946 305.859 86.8946 305.619 86.8946 304.719V303.629C86.8946 302.729 86.5246 302.419 85.5746 302.419H81.0246V305.859H85.5646ZM91.9768 300.669H92.0168C92.5268 300.669 92.9168 301.039 92.9168 301.509V312.439L95.0768 309.309V308.389C95.0768 307.909 95.4168 307.549 95.9368 307.549H95.9768C96.4968 307.549 96.8368 307.909 96.8368 308.389V309.309L98.9968 312.439V301.509C98.9968 301.039 99.3868 300.669 99.8968 300.669H99.9368C100.457 300.669 100.837 301.039 100.837 301.509V314.669H98.3568L95.9568 311.109L93.5368 314.669H91.0768V301.509C91.0768 301.039 91.4568 300.669 91.9768 300.669ZM103.399 314.669V300.669H111.679C112.149 300.669 112.519 301.039 112.519 301.509V301.579C112.519 302.049 112.149 302.419 111.679 302.419H105.239V306.689H109.189C109.659 306.689 110.029 307.049 110.029 307.529V307.589C110.029 308.069 109.659 308.439 109.189 308.439H105.239V312.919H111.679C112.149 312.919 112.519 313.289 112.519 313.759V313.829C112.519 314.299 112.149 314.669 111.679 314.669H103.399ZM115.821 314.669C115.209 314.669 114.904 314.304 114.904 313.784C114.904 313.642 114.926 313.489 114.971 313.329L118.151 302.059C118.381 301.229 118.991 300.659 119.841 300.659C120.651 300.659 121.261 301.229 121.511 302.059L124.911 313.359C124.956 313.507 124.976 313.649 124.976 313.779C124.976 314.304 124.636 314.669 124.061 314.669H124.001C123.591 314.669 123.281 314.479 123.151 314.039L122.431 311.699H117.381L116.701 314.079C116.581 314.489 116.261 314.669 115.881 314.669H115.821ZM117.811 309.949H121.951L119.861 302.749H119.801L117.811 309.949ZM131.933 314.669C131.413 314.669 130.913 314.339 130.623 313.619L127.193 305.199C127.033 304.809 127.013 304.679 127.013 304.309V301.529C127.013 301.049 127.403 300.669 127.883 300.669H127.993C128.473 300.669 128.843 301.049 128.843 301.529V304.199C128.843 304.579 128.883 304.759 129.013 305.089L131.783 312.199C131.863 312.409 131.883 312.459 131.933 312.579C131.983 312.459 132.003 312.409 132.083 312.199L134.853 305.079C134.983 304.749 135.023 304.579 135.023 304.199V301.529C135.023 301.049 135.393 300.669 135.873 300.669H135.983C136.463 300.669 136.853 301.049 136.853 301.529V304.309C136.853 304.679 136.833 304.809 136.673 305.199L133.263 313.619C132.973 314.339 132.453 314.669 131.933 314.669ZM139.376 314.669V300.669H147.656C148.126 300.669 148.496 301.039 148.496 301.509V301.579C148.496 302.049 148.126 302.419 147.656 302.419H141.216V306.689H145.166C145.636 306.689 146.006 307.049 146.006 307.529V307.589C146.006 308.069 145.636 308.439 145.166 308.439H141.216V312.919H147.656C148.126 312.919 148.496 313.289 148.496 313.759V313.829C148.496 314.299 148.126 314.669 147.656 314.669H139.376Z" fill="white"/>
<path d="M483.528 300.669H483.568C484.078 300.669 484.468 301.039 484.468 301.509V312.439L486.628 309.309V308.389C486.628 307.909 486.968 307.549 487.488 307.549H487.528C488.048 307.549 488.388 307.909 488.388 308.389V309.309L490.548 312.439V301.509C490.548 301.039 490.938 300.669 491.448 300.669H491.488C492.008 300.669 492.388 301.039 492.388 301.509V314.669H489.908L487.508 311.109L485.088 314.669H482.628V301.509C482.628 301.039 483.008 300.669 483.528 300.669ZM495.38 314.669C494.768 314.669 494.463 314.304 494.463 313.784C494.463 313.642 494.485 313.489 494.53 313.329L497.71 302.059C497.94 301.229 498.55 300.659 499.4 300.659C500.21 300.659 500.82 301.229 501.07 302.059L504.47 313.359C504.515 313.507 504.535 313.649 504.535 313.779C504.535 314.304 504.195 314.669 503.62 314.669H503.56C503.15 314.669 502.84 314.479 502.71 314.039L501.99 311.699H496.94L496.26 314.079C496.14 314.489 495.82 314.669 495.44 314.669H495.38ZM497.37 309.949H501.51L499.42 302.749H499.36L497.37 309.949ZM516.313 314.369C516.103 314.574 515.878 314.664 515.658 314.664C515.408 314.664 515.165 314.547 514.963 314.349L509.153 308.739V313.809C509.153 314.299 508.783 314.669 508.253 314.669H508.213C507.703 314.669 507.313 314.299 507.313 313.809V301.529C507.313 301.039 507.703 300.669 508.213 300.669H508.253C508.773 300.669 509.153 301.039 509.153 301.529V306.159L514.573 300.999C514.773 300.804 515.025 300.682 515.283 300.682C515.5 300.682 515.723 300.769 515.923 300.969C516.088 301.134 516.198 301.357 516.198 301.599C516.198 301.824 516.1 302.067 515.863 302.289L510.453 307.449L516.293 313.099C516.505 313.307 516.593 313.532 516.593 313.744C516.593 313.982 516.483 314.204 516.313 314.369ZM520.665 314.669C519.585 314.669 518.775 313.849 518.775 312.779V301.619C518.775 300.999 519.175 300.669 519.665 300.669H519.715C520.225 300.669 520.615 300.999 520.615 301.619V312.359C520.615 312.839 520.935 312.919 521.215 312.919H525.755C526.035 312.919 526.355 312.839 526.355 312.359V301.619C526.355 300.999 526.765 300.669 527.255 300.669H527.305C527.795 300.669 528.195 300.999 528.195 301.619V312.779C528.195 313.849 527.385 314.669 526.305 314.669H520.665Z" fill="white"/>
<path d="M453.705 514.092C453.185 514.092 452.805 513.722 452.805 513.232V500.092H454.775L459.885 510.362V500.952C459.885 500.462 460.275 500.092 460.785 500.092H460.825C461.365 500.092 461.725 500.462 461.725 500.952V514.092H459.755L454.645 503.822V513.232C454.645 513.722 454.275 514.092 453.745 514.092H453.705ZM464.707 514.092V500.092H472.987C473.457 500.092 473.827 500.462 473.827 500.932V501.002C473.827 501.472 473.457 501.842 472.987 501.842H466.547V506.112H470.497C470.967 506.112 471.337 506.472 471.337 506.952V507.012C471.337 507.492 470.967 507.862 470.497 507.862H466.547V512.342H472.987C473.457 512.342 473.827 512.712 473.827 513.182V513.252C473.827 513.722 473.457 514.092 472.987 514.092H464.707ZM477.059 514.042C476.792 513.879 476.642 513.634 476.642 513.344C476.642 513.167 476.697 512.972 476.819 512.772L480.209 507.082L476.759 501.302C476.679 501.167 476.644 501.029 476.644 500.894C476.644 500.604 476.807 500.332 477.059 500.162C477.229 500.049 477.404 499.997 477.569 499.997C477.867 499.997 478.134 500.164 478.289 500.422L481.229 505.352L484.169 500.422C484.324 500.164 484.589 500.002 484.889 500.002C485.054 500.002 485.229 500.052 485.399 500.162C485.652 500.324 485.814 500.599 485.814 500.892C485.814 501.027 485.779 501.167 485.699 501.302L482.249 507.082L485.639 512.772C485.757 512.969 485.812 513.164 485.812 513.342C485.812 513.632 485.667 513.882 485.399 514.042C485.237 514.139 485.074 514.187 484.922 514.187C484.607 514.187 484.324 513.989 484.109 513.632L481.229 508.802L478.349 513.632C478.134 513.989 477.852 514.187 477.537 514.187C477.384 514.187 477.222 514.139 477.059 514.042ZM493.221 514.092C492.701 514.092 492.321 513.722 492.321 513.232V501.842H489.061C488.591 501.842 488.221 501.472 488.221 501.002V500.932C488.221 500.462 488.591 500.092 489.061 500.092H497.421C497.891 500.092 498.261 500.462 498.261 500.932V501.002C498.261 501.472 497.891 501.842 497.421 501.842H494.161V513.232C494.161 513.722 493.791 514.092 493.261 514.092H493.221ZM505.093 514.092C503.853 514.092 503.263 513.372 502.793 512.532L500.993 509.292C500.523 508.452 500.413 507.832 500.413 507.092C500.413 506.352 500.523 505.732 500.993 504.892L502.793 501.652C503.263 500.812 503.853 500.092 505.093 500.092H508.533C509.013 500.092 509.373 500.462 509.373 500.932V501.002C509.373 501.472 509.013 501.842 508.533 501.842H505.373C504.953 501.842 504.713 501.942 504.323 502.642L502.683 505.582C502.383 506.122 502.263 506.542 502.263 507.092C502.263 507.642 502.383 508.062 502.683 508.602L504.323 511.542C504.713 512.242 504.953 512.342 505.373 512.342H508.533C509.013 512.342 509.373 512.712 509.373 513.182V513.252C509.373 513.722 509.013 514.092 508.533 514.092H505.093ZM513.086 500.952C513.086 500.452 513.466 500.092 513.976 500.092H514.026C514.536 500.092 514.926 500.452 514.926 500.952V512.342H521.126C521.606 512.342 521.966 512.712 521.966 513.182V513.252C521.966 513.722 521.606 514.092 521.126 514.092H513.086V500.952ZM529.218 514.192C527.978 514.192 527.438 513.482 526.918 512.632L524.678 508.952C524.178 508.132 524.098 507.532 524.098 507.032C524.098 506.532 524.168 505.912 524.678 505.112L526.918 501.552C527.448 500.712 527.978 499.992 529.178 499.992H529.238C530.478 499.992 530.968 500.722 531.498 501.552L533.758 505.112C534.268 505.922 534.338 506.532 534.338 507.032C534.338 507.532 534.258 508.132 533.758 508.952L531.498 512.632C530.978 513.482 530.458 514.192 529.238 514.192H529.218ZM529.218 512.462C529.538 512.462 529.718 512.262 530.008 511.772L532.128 508.182C532.418 507.682 532.548 507.412 532.548 507.032C532.548 506.642 532.448 506.392 532.128 505.882L529.998 502.452C529.708 501.982 529.498 501.762 529.218 501.762H529.198C528.918 501.762 528.738 501.982 528.448 502.452L526.318 505.882C526.038 506.322 525.908 506.592 525.908 507.032C525.908 507.462 526.048 507.722 526.318 508.182L528.428 511.752C528.728 512.262 528.878 512.462 529.198 512.462H529.218ZM538.39 514.092C537.31 514.092 536.5 513.272 536.5 512.202V501.042C536.5 500.422 536.9 500.092 537.39 500.092H537.44C537.95 500.092 538.34 500.422 538.34 501.042V511.782C538.34 512.262 538.66 512.342 538.94 512.342H543.48C543.76 512.342 544.08 512.262 544.08 511.782V501.042C544.08 500.422 544.49 500.092 544.98 500.092H545.03C545.52 500.092 545.92 500.422 545.92 501.042V512.202C545.92 513.272 545.11 514.092 544.03 514.092H538.39ZM549.812 514.092C549.332 514.092 548.972 513.732 548.972 513.252V500.932C548.972 500.452 549.332 500.092 549.812 500.092H553.662C554.902 500.092 555.472 500.822 555.962 501.652L557.812 504.762C558.262 505.519 558.405 506.067 558.405 506.807C558.405 506.857 558.405 506.909 558.402 506.962C558.382 507.782 558.262 508.352 557.812 509.172L555.962 512.532C555.502 513.362 554.902 514.092 553.662 514.092H549.812ZM553.492 512.342C554.092 512.342 554.242 512.082 554.522 511.552L556.122 508.522C556.412 507.972 556.562 507.602 556.562 506.962C556.562 506.322 556.432 505.942 556.122 505.402L554.522 502.632C554.222 502.112 554.092 501.842 553.492 501.842H550.812V512.342H553.492Z" fill="white"/>
<path d="M38.5985 514.092C38.1185 514.092 37.7585 513.722 37.7585 513.252V513.182C37.7585 512.712 38.1185 512.342 38.5985 512.342H44.3885C44.9085 512.342 45.2185 512.112 45.2185 511.712C45.2185 511.382 44.9285 510.922 43.9985 509.882L39.8985 505.312C38.5985 503.862 38.0485 503.142 38.0485 502.272C38.0485 500.842 39.0485 500.092 40.6485 500.092H45.9785C46.4585 500.092 46.8185 500.462 46.8185 500.942V500.992C46.8185 501.472 46.4585 501.842 45.9785 501.842H41.0285C40.5685 501.842 40.1585 501.992 40.1585 502.462C40.1585 502.732 40.4485 503.122 41.3885 504.182L45.4685 508.752C46.7585 510.202 47.3485 510.972 47.3485 511.872C47.3485 513.202 46.3285 514.092 44.8185 514.092H38.5985ZM50.6107 514.092C50.1407 514.092 49.7707 513.722 49.7707 513.252V513.182C49.7707 512.712 50.1407 512.342 50.6107 512.342H53.7807V501.842H50.6107C50.1407 501.842 49.7707 501.472 49.7707 501.002V500.932C49.7707 500.462 50.1407 500.092 50.6107 500.092H58.8307C59.3107 500.092 59.6707 500.462 59.6707 500.932V501.002C59.6707 501.472 59.3107 501.842 58.8307 501.842H55.6207V512.342H58.8307C59.3107 512.342 59.6707 512.712 59.6707 513.182V513.252C59.6707 513.722 59.3107 514.092 58.8307 514.092H50.6107ZM63.3229 514.092C62.8429 514.092 62.4829 513.732 62.4829 513.252V500.932C62.4829 500.452 62.8429 500.092 63.3229 500.092H67.1729C68.4129 500.092 68.9829 500.822 69.4729 501.652L71.3229 504.762C71.7729 505.519 71.9154 506.067 71.9154 506.807C71.9154 506.857 71.9154 506.909 71.9129 506.962C71.8929 507.782 71.7729 508.352 71.3229 509.172L69.4729 512.532C69.0129 513.362 68.4129 514.092 67.1729 514.092H63.3229ZM67.0029 512.342C67.6029 512.342 67.7529 512.082 68.0329 511.552L69.6329 508.522C69.9229 507.972 70.0729 507.602 70.0729 506.962C70.0729 506.322 69.9429 505.942 69.6329 505.402L68.0329 502.632C67.7329 502.112 67.6029 501.842 67.0029 501.842H64.3229V512.342H67.0029ZM74.1551 514.092V500.092H82.4351C82.9051 500.092 83.2751 500.462 83.2751 500.932V501.002C83.2751 501.472 82.9051 501.842 82.4351 501.842H75.9951V506.112H79.9451C80.4151 506.112 80.7851 506.472 80.7851 506.952V507.012C80.7851 507.492 80.4151 507.862 79.9451 507.862H75.9951V512.342H82.4351C82.9051 512.342 83.2751 512.712 83.2751 513.182V513.252C83.2751 513.722 82.9051 514.092 82.4351 514.092H74.1551ZM102.549 514.092C101.309 514.092 100.719 513.372 100.249 512.532L98.4495 509.292C97.9795 508.452 97.8695 507.832 97.8695 507.092C97.8695 506.352 97.9795 505.732 98.4495 504.892L100.249 501.652C100.719 500.812 101.309 500.092 102.549 500.092H105.989C106.469 500.092 106.829 500.462 106.829 500.932V501.002C106.829 501.472 106.469 501.842 105.989 501.842H102.829C102.409 501.842 102.169 501.942 101.779 502.642L100.139 505.582C99.8395 506.122 99.7195 506.542 99.7195 507.092C99.7195 507.642 99.8395 508.062 100.139 508.602L101.779 511.542C102.169 512.242 102.409 512.342 102.829 512.342H105.989C106.469 512.342 106.829 512.712 106.829 513.182V513.252C106.829 513.722 106.469 514.092 105.989 514.092H102.549ZM110.802 514.092C110.292 514.092 109.912 513.722 109.912 513.232V500.952C109.912 500.462 110.292 500.092 110.802 500.092H110.852C111.362 500.092 111.752 500.462 111.752 500.952V506.112H117.612V500.952C117.612 500.462 118.002 500.092 118.512 500.092H118.562C119.072 500.092 119.452 500.462 119.452 500.952V513.232C119.452 513.722 119.092 514.092 118.562 514.092H118.512C118.002 514.092 117.612 513.722 117.612 513.232V507.862H111.752V513.232C111.752 513.722 111.382 514.092 110.852 514.092H110.802ZM122.554 514.092C121.941 514.092 121.636 513.727 121.636 513.207C121.636 513.064 121.659 512.912 121.704 512.752L124.884 501.482C125.114 500.652 125.724 500.082 126.574 500.082C127.384 500.082 127.994 500.652 128.244 501.482L131.644 512.782C131.689 512.929 131.709 513.072 131.709 513.202C131.709 513.727 131.369 514.092 130.794 514.092H130.734C130.324 514.092 130.014 513.902 129.884 513.462L129.164 511.122H124.114L123.434 513.502C123.314 513.912 122.994 514.092 122.614 514.092H122.554ZM124.544 509.372H128.684L126.594 502.172H126.534L124.544 509.372ZM135.106 514.092C134.586 514.092 134.206 513.722 134.206 513.232V500.092H136.176L141.286 510.362V500.952C141.286 500.462 141.676 500.092 142.186 500.092H142.226C142.766 500.092 143.126 500.462 143.126 500.952V514.092H141.156L136.046 503.822V513.232C136.046 513.722 135.676 514.092 135.146 514.092H135.106ZM147.098 514.092C146.578 514.092 146.198 513.722 146.198 513.232V500.092H148.168L153.278 510.362V500.952C153.278 500.462 153.668 500.092 154.178 500.092H154.218C154.758 500.092 155.118 500.462 155.118 500.952V514.092H153.148L148.038 503.822V513.232C148.038 513.722 147.668 514.092 147.138 514.092H147.098ZM158.1 514.092V500.092H166.38C166.85 500.092 167.22 500.462 167.22 500.932V501.002C167.22 501.472 166.85 501.842 166.38 501.842H159.94V506.112H163.89C164.36 506.112 164.73 506.472 164.73 506.952V507.012C164.73 507.492 164.36 507.862 163.89 507.862H159.94V512.342H166.38C166.85 512.342 167.22 512.712 167.22 513.182V513.252C167.22 513.722 166.85 514.092 166.38 514.092H158.1ZM170.503 500.952C170.503 500.452 170.883 500.092 171.393 500.092H171.443C171.953 500.092 172.343 500.452 172.343 500.952V512.342H178.543C179.023 512.342 179.383 512.712 179.383 513.182V513.252C179.383 513.722 179.023 514.092 178.543 514.092H170.503V500.952Z" fill="white"/>
<path d="M484.265 116.114C483.795 116.114 483.425 115.744 483.425 115.274V115.204C483.425 114.734 483.795 114.364 484.265 114.364H487.435V103.864H484.265C483.795 103.864 483.425 103.494 483.425 103.024V102.954C483.425 102.484 483.795 102.114 484.265 102.114H492.485C492.965 102.114 493.325 102.484 493.325 102.954V103.024C493.325 103.494 492.965 103.864 492.485 103.864H489.275V114.364H492.485C492.965 114.364 493.325 114.734 493.325 115.204V115.274C493.325 115.744 492.965 116.114 492.485 116.114H484.265ZM496.307 116.114C495.787 116.114 495.427 115.764 495.427 115.164V102.114H502.407C504.037 102.114 505.307 103.194 505.307 104.954V106.154C505.307 107.934 503.957 108.854 502.397 108.854H497.267V115.164C497.267 115.764 496.907 116.114 496.387 116.114H496.307ZM502.247 107.124C502.977 107.124 503.447 106.894 503.447 106.124V104.924C503.447 104.164 503.007 103.864 502.277 103.864H497.267V107.124H502.247ZM509.649 116.114C509.079 116.114 508.759 115.754 508.759 115.204V102.114H517.009C517.489 102.114 517.859 102.484 517.859 102.954V103.024C517.859 103.494 517.489 103.864 517.009 103.864H510.599V107.034H515.609C516.089 107.034 516.459 107.404 516.459 107.874V107.944C516.459 108.414 516.089 108.784 515.609 108.784H510.599V115.204C510.599 115.734 510.269 116.114 509.679 116.114H509.649ZM520.222 116.114C519.742 116.114 519.382 115.744 519.382 115.274V115.204C519.382 114.734 519.742 114.364 520.222 114.364H526.012C526.532 114.364 526.842 114.134 526.842 113.734C526.842 113.404 526.552 112.944 525.622 111.904L521.522 107.334C520.222 105.884 519.672 105.164 519.672 104.294C519.672 102.864 520.672 102.114 522.272 102.114H527.602C528.082 102.114 528.442 102.484 528.442 102.964V103.014C528.442 103.494 528.082 103.864 527.602 103.864H522.652C522.192 103.864 521.782 104.014 521.782 104.484C521.782 104.754 522.072 105.144 523.012 106.204L527.092 110.774C528.382 112.224 528.972 112.994 528.972 113.894C528.972 115.224 527.952 116.114 526.442 116.114H520.222Z" fill="white"/>
<path d="M204.799 211.068V204.859H211.006M205.23 205.29L211.524 211.586" stroke="#96FF5E" stroke-width="1.5" stroke-miterlimit="10" stroke-linecap="square"/>
<path d="M204.799 403.931V410.14H211.006M205.23 409.709L211.524 403.413" stroke="#96FF5E" stroke-width="1.5" stroke-miterlimit="10" stroke-linecap="square"/>
<path d="M403.81 204.858L410.019 204.858L410.019 211.067M409.588 205.289L403.293 211.584" stroke="#96FF5E" stroke-width="1.5" stroke-miterlimit="10" stroke-linecap="square"/>
<path d="M403.81 410.141L410.019 410.141L410.019 403.932M409.588 409.71L403.293 403.415" stroke="#96FF5E" stroke-width="1.5" stroke-miterlimit="10" stroke-linecap="square"/>
</g>
<defs>
<clipPath id="clip0_2168_578">
<rect width="599.897" height="600.08" fill="white" transform="translate(7.45996 7.45996)"/>
</clipPath>
</defs>
</svg>
