<svg width="615" height="615" viewBox="0 0 615 615" fill="none" xmlns="http://www.w3.org/2000/svg">
<g clip-path="url(#clip0_2168_395)">
<path d="M7.36572 22.4985V592.497" stroke="white" stroke-width="1.5"/>
<path d="M607.448 22.4985V592.497" stroke="white" stroke-width="1.5"/>
<path d="M7.36572 14.7352V0" stroke="white" stroke-width="1.5"/>
<path d="M14.7349 7.36572H-0.000244141" stroke="white" stroke-width="1.5"/>
<path d="M7.36572 615V600.265" stroke="white" stroke-width="1.5"/>
<path d="M14.7349 607.631H-0.000244141" stroke="white" stroke-width="1.5"/>
<path d="M607.637 14.7352V0" stroke="white" stroke-width="1.5"/>
<path d="M614.817 7.36572H600.082" stroke="white" stroke-width="1.5"/>
<path d="M607.637 615V600.265" stroke="white" stroke-width="1.5"/>
<path d="M614.817 607.631H600.082" stroke="white" stroke-width="1.5"/>
<path d="M592.406 7.45752H22.4072" stroke="white" stroke-width="1.5"/>
<path d="M592.406 607.539H22.4072" stroke="white" stroke-width="1.5"/>
<path d="M249.083 314.5C248.563 314.5 248.203 314.15 248.203 313.55V300.5H255.183C256.813 300.5 258.083 301.58 258.083 303.34V304.54C258.083 306.32 256.733 307.24 255.173 307.24H250.043V313.55C250.043 314.15 249.683 314.5 249.163 314.5H249.083ZM255.023 305.51C255.753 305.51 256.223 305.28 256.223 304.51V303.31C256.223 302.55 255.783 302.25 255.053 302.25H250.043V305.51H255.023ZM262.315 314.5C261.235 314.5 260.425 313.68 260.425 312.61V301.45C260.425 300.83 260.825 300.5 261.315 300.5H261.365C261.875 300.5 262.265 300.83 262.265 301.45V312.19C262.265 312.67 262.585 312.75 262.865 312.75H267.405C267.685 312.75 268.005 312.67 268.005 312.19V301.45C268.005 300.83 268.415 300.5 268.905 300.5H268.955C269.445 300.5 269.845 300.83 269.845 301.45V312.61C269.845 313.68 269.035 314.5 267.955 314.5H262.315ZM272.787 314.5V300.5H278.237C280.657 300.5 281.877 301.87 281.877 304.07V304.63C281.877 306.06 281.257 307.16 279.847 307.42C281.257 307.66 281.877 308.83 281.877 310.18V311.12C281.877 313.26 280.537 314.5 278.347 314.5H272.787ZM278.147 312.75C279.507 312.75 280.037 312.12 280.037 310.85V310.16C280.037 308.94 279.297 308.29 278.097 308.29H274.627V312.75H278.147ZM278.097 306.54C279.277 306.54 280.037 305.95 280.037 304.63V304.1C280.037 302.96 279.407 302.25 278.257 302.25H274.627V306.54H278.097ZM284.979 301.36C284.979 300.86 285.359 300.5 285.869 300.5H285.919C286.429 300.5 286.819 300.86 286.819 301.36V312.75H293.019C293.499 312.75 293.859 313.12 293.859 313.59V313.66C293.859 314.13 293.499 314.5 293.019 314.5H284.979V301.36ZM297.001 314.5C296.531 314.5 296.161 314.13 296.161 313.66V313.59C296.161 313.12 296.531 312.75 297.001 312.75H300.171V302.25H297.001C296.531 302.25 296.161 301.88 296.161 301.41V301.34C296.161 300.87 296.531 300.5 297.001 300.5H305.221C305.701 300.5 306.061 300.87 306.061 301.34V301.41C306.061 301.88 305.701 302.25 305.221 302.25H302.011V312.75H305.221C305.701 312.75 306.061 313.12 306.061 313.59V313.66C306.061 314.13 305.701 314.5 305.221 314.5H297.001ZM312.964 314.5C311.724 314.5 311.134 313.78 310.664 312.94L308.864 309.7C308.394 308.86 308.284 308.24 308.284 307.5C308.284 306.76 308.394 306.14 308.864 305.3L310.664 302.06C311.134 301.22 311.724 300.5 312.964 300.5H316.404C316.884 300.5 317.244 300.87 317.244 301.34V301.41C317.244 301.88 316.884 302.25 316.404 302.25H313.244C312.824 302.25 312.584 302.35 312.194 303.05L310.554 305.99C310.254 306.53 310.134 306.95 310.134 307.5C310.134 308.05 310.254 308.47 310.554 309.01L312.194 311.95C312.584 312.65 312.824 312.75 313.244 312.75H316.404C316.884 312.75 317.244 313.12 317.244 313.59V313.66C317.244 314.13 316.884 314.5 316.404 314.5H312.964ZM341.908 314.2C341.698 314.405 341.473 314.495 341.253 314.495C341.003 314.495 340.76 314.377 340.558 314.18L334.748 308.57V313.64C334.748 314.13 334.378 314.5 333.848 314.5H333.808C333.298 314.5 332.908 314.13 332.908 313.64V301.36C332.908 300.87 333.298 300.5 333.808 300.5H333.848C334.368 300.5 334.748 300.87 334.748 301.36V305.99L340.168 300.83C340.368 300.635 340.62 300.512 340.878 300.512C341.095 300.512 341.318 300.6 341.518 300.8C341.683 300.965 341.793 301.187 341.793 301.43C341.793 301.655 341.695 301.897 341.458 302.12L336.048 307.28L341.888 312.93C342.1 313.137 342.188 313.362 342.188 313.575C342.188 313.812 342.078 314.035 341.908 314.2ZM344.53 314.5V300.5H352.81C353.28 300.5 353.65 300.87 353.65 301.34V301.41C353.65 301.88 353.28 302.25 352.81 302.25H346.37V306.52H350.32C350.79 306.52 351.16 306.88 351.16 307.36V307.42C351.16 307.9 350.79 308.27 350.32 308.27H346.37V312.75H352.81C353.28 312.75 353.65 313.12 353.65 313.59V313.66C353.65 314.13 353.28 314.5 352.81 314.5H344.53ZM361.012 314.5C360.462 314.5 360.112 314.15 360.112 313.58V308.29L356.562 303.31V301.42C356.562 300.88 356.892 300.5 357.462 300.5H357.502C358.032 300.5 358.402 300.83 358.402 301.42V302.94L361.032 306.7H361.072L363.742 302.94V301.42C363.742 300.83 364.112 300.5 364.642 300.5H364.682C365.252 300.5 365.582 300.88 365.582 301.42V303.31L361.952 308.29V313.58C361.952 314.12 361.602 314.5 361.052 314.5H361.012Z" fill="#96FF5E"/>
</g>
<defs>
<clipPath id="clip0_2168_395">
<rect width="614.817" height="615" fill="white"/>
</clipPath>
</defs>
</svg>
