<svg width="623" height="615" viewBox="0 0 623 615" fill="none" xmlns="http://www.w3.org/2000/svg">
<g clip-path="url(#clip0_2047_701)">
<path d="M8.04785 425.065V599.304" stroke="white" stroke-width="1.5"/>
<path d="M615.141 425.065V599.304" stroke="white" stroke-width="1.5"/>
<path d="M8.04785 14.9044V0" stroke="white" stroke-width="1.5"/>
<path d="M15.503 7.45068H0.595703" stroke="white" stroke-width="1.5"/>
<path d="M210.998 14.9044V0" stroke="white" stroke-width="1.5"/>
<path d="M218.453 7.45068H203.545" stroke="white" stroke-width="1.5"/>
<path d="M412.19 14.9044V0" stroke="white" stroke-width="1.5"/>
<path d="M419.646 7.45068H404.738" stroke="white" stroke-width="1.5"/>
<path d="M615.332 14.9044V0" stroke="white" stroke-width="1.5"/>
<path d="M622.596 7.45068H607.688" stroke="white" stroke-width="1.5"/>
<path d="M599.927 411.611H23.2651" stroke="white" stroke-width="1.5"/>
<path d="M599.927 614.521H23.2651" stroke="white" stroke-width="1.5"/>
<path d="M175.756 230.158L311.596 398.149" stroke="white" stroke-width="1.5" stroke-dasharray="4.79 4.79"/>
<path d="M8.04785 22.7573L139.109 184.838" stroke="white" stroke-width="1.5" stroke-dasharray="4.79 4.79"/>
<path d="M266.577 230.158L311.596 398.149" stroke="white" stroke-width="1.5" stroke-dasharray="4.79 4.79"/>
<path d="M210.998 22.7573L254.432 184.838" stroke="white" stroke-width="1.5" stroke-dasharray="4.79 4.79"/>
<path d="M356.615 230.158L311.596 398.149" stroke="white" stroke-width="1.5" stroke-dasharray="4.79 4.79"/>
<path d="M412.191 22.7573L368.759 184.838" stroke="white" stroke-width="1.5" stroke-dasharray="4.79 4.79"/>
<path d="M447.522 230.158L311.596 398.149" stroke="white" stroke-width="1.5" stroke-dasharray="4.79 4.79"/>
<path d="M615.332 22.7573L484.188 184.838" stroke="white" stroke-width="1.5" stroke-dasharray="4.79 4.79"/>
<path d="M230.26 519.188C229.78 519.188 229.42 518.827 229.42 518.347V506.027C229.42 505.547 229.78 505.187 230.26 505.187H234.11C235.35 505.187 235.92 505.917 236.41 506.747L238.26 509.857C238.71 510.615 238.853 511.162 238.853 511.902C238.853 511.952 238.853 512.005 238.85 512.057C238.83 512.877 238.71 513.447 238.26 514.267L236.41 517.627C235.95 518.457 235.35 519.188 234.11 519.188H230.26ZM233.94 517.437C234.54 517.437 234.69 517.177 234.97 516.647L236.57 513.617C236.86 513.067 237.01 512.697 237.01 512.057C237.01 511.417 236.88 511.037 236.57 510.497L234.97 507.727C234.67 507.207 234.54 506.937 233.94 506.937H231.26V517.437H233.94ZM241.093 519.188V505.187H249.373C249.843 505.187 250.213 505.557 250.213 506.027V506.097C250.213 506.567 249.843 506.937 249.373 506.937H242.933V511.207H246.883C247.353 511.207 247.723 511.567 247.723 512.047V512.107C247.723 512.587 247.353 512.957 246.883 512.957H242.933V517.437H249.373C249.843 517.437 250.213 517.807 250.213 518.277V518.347C250.213 518.817 249.843 519.188 249.373 519.188H241.093ZM257.495 519.188C256.255 519.188 255.665 518.467 255.195 517.627L253.395 514.387C252.925 513.547 252.815 512.927 252.815 512.187C252.815 511.447 252.925 510.827 253.395 509.987L255.195 506.747C255.665 505.907 256.255 505.187 257.495 505.187H260.935C261.415 505.187 261.775 505.557 261.775 506.027V506.097C261.775 506.567 261.415 506.937 260.935 506.937H257.775C257.355 506.937 257.115 507.037 256.725 507.737L255.085 510.677C254.785 511.217 254.665 511.637 254.665 512.187C254.665 512.737 254.785 513.157 255.085 513.697L256.725 516.637C257.115 517.337 257.355 517.437 257.775 517.437H260.935C261.415 517.437 261.775 517.807 261.775 518.277V518.347C261.775 518.817 261.415 519.188 260.935 519.188H257.495ZM265.777 519.188C265.267 519.188 264.847 518.858 264.847 518.237V505.187H271.447C273.367 505.187 274.407 506.167 274.407 508.257V509.117C274.407 511.207 273.347 512.117 271.427 512.117H269.982L273.937 517.637C274.107 517.872 274.187 518.092 274.187 518.295C274.187 518.53 274.079 518.745 273.887 518.937C273.717 519.107 273.477 519.195 273.234 519.195C272.962 519.195 272.687 519.082 272.517 518.837L267.787 512.117H266.687V518.237C266.687 518.837 266.317 519.188 265.807 519.188H265.777ZM271.227 510.377C272.157 510.377 272.557 510.137 272.557 509.237V508.147C272.557 507.247 272.187 506.937 271.237 506.937H266.687V510.377H271.227ZM281.559 519.188C281.009 519.188 280.659 518.837 280.659 518.267V512.977L277.109 507.997V506.107C277.109 505.567 277.439 505.187 278.009 505.187H278.049C278.579 505.187 278.949 505.517 278.949 506.107V507.627L281.579 511.387H281.619L284.289 507.627V506.107C284.289 505.517 284.659 505.187 285.189 505.187H285.229C285.799 505.187 286.129 505.567 286.129 506.107V507.997L282.499 512.977V518.267C282.499 518.807 282.149 519.188 281.599 519.188H281.559ZM289.551 519.188C289.031 519.188 288.671 518.837 288.671 518.237V505.187H295.651C297.281 505.187 298.551 506.267 298.551 508.027V509.227C298.551 511.007 297.201 511.927 295.641 511.927H290.511V518.237C290.511 518.837 290.151 519.188 289.631 519.188H289.551ZM295.491 510.197C296.221 510.197 296.691 509.967 296.691 509.197V507.997C296.691 507.237 296.251 506.937 295.521 506.937H290.511V510.197H295.491ZM305.584 519.188C305.064 519.188 304.684 518.817 304.684 518.327V506.937H301.424C300.954 506.937 300.584 506.567 300.584 506.097V506.027C300.584 505.557 300.954 505.187 301.424 505.187H309.784C310.254 505.187 310.624 505.557 310.624 506.027V506.097C310.624 506.567 310.254 506.937 309.784 506.937H306.524V518.327C306.524 518.817 306.154 519.188 305.624 519.188H305.584ZM313.046 519.188V505.187H321.326C321.796 505.187 322.166 505.557 322.166 506.027V506.097C322.166 506.567 321.796 506.937 321.326 506.937H314.886V511.207H318.836C319.306 511.207 319.676 511.567 319.676 512.047V512.107C319.676 512.587 319.306 512.957 318.836 512.957H314.886V517.437H321.326C321.796 517.437 322.166 517.807 322.166 518.277V518.347C322.166 518.817 321.796 519.188 321.326 519.188H313.046ZM326.198 519.188C325.718 519.188 325.358 518.827 325.358 518.347V506.027C325.358 505.547 325.718 505.187 326.198 505.187H330.048C331.288 505.187 331.858 505.917 332.348 506.747L334.198 509.857C334.648 510.615 334.79 511.162 334.79 511.902C334.79 511.952 334.79 512.005 334.788 512.057C334.768 512.877 334.648 513.447 334.198 514.267L332.348 517.627C331.888 518.457 331.288 519.188 330.048 519.188H326.198ZM329.878 517.437C330.478 517.437 330.628 517.177 330.908 516.647L332.508 513.617C332.798 513.067 332.948 512.697 332.948 512.057C332.948 511.417 332.818 511.037 332.508 510.497L330.908 507.727C330.608 507.207 330.478 506.937 329.878 506.937H327.198V517.437H329.878ZM350.182 519.188C349.702 519.188 349.342 518.827 349.342 518.347V506.027C349.342 505.547 349.702 505.187 350.182 505.187H354.032C355.272 505.187 355.842 505.917 356.332 506.747L358.182 509.857C358.632 510.615 358.775 511.162 358.775 511.902C358.775 511.952 358.775 512.005 358.772 512.057C358.752 512.877 358.632 513.447 358.182 514.267L356.332 517.627C355.872 518.457 355.272 519.188 354.032 519.188H350.182ZM353.862 517.437C354.462 517.437 354.612 517.177 354.892 516.647L356.492 513.617C356.782 513.067 356.932 512.697 356.932 512.057C356.932 511.417 356.802 511.037 356.492 510.497L354.892 507.727C354.592 507.207 354.462 506.937 353.862 506.937H351.182V517.437H353.862ZM361.444 519.188C360.832 519.188 360.527 518.822 360.527 518.302C360.527 518.16 360.549 518.007 360.594 517.847L363.774 506.577C364.004 505.747 364.614 505.177 365.464 505.177C366.274 505.177 366.884 505.747 367.134 506.577L370.534 517.877C370.579 518.025 370.599 518.167 370.599 518.297C370.599 518.822 370.259 519.188 369.684 519.188H369.624C369.214 519.188 368.904 518.997 368.774 518.557L368.054 516.217H363.004L362.324 518.597C362.204 519.007 361.884 519.188 361.504 519.188H361.444ZM363.434 514.467H367.574L365.484 507.267H365.424L363.434 514.467ZM377.537 519.188C377.017 519.188 376.637 518.817 376.637 518.327V506.937H373.377C372.907 506.937 372.537 506.567 372.537 506.097V506.027C372.537 505.557 372.907 505.187 373.377 505.187H381.737C382.207 505.187 382.577 505.557 382.577 506.027V506.097C382.577 506.567 382.207 506.937 381.737 506.937H378.477V518.327C378.477 518.817 378.107 519.188 377.577 519.188H377.537ZM385.429 519.188C384.816 519.188 384.511 518.822 384.511 518.302C384.511 518.16 384.534 518.007 384.579 517.847L387.759 506.577C387.989 505.747 388.599 505.177 389.449 505.177C390.259 505.177 390.869 505.747 391.119 506.577L394.519 517.877C394.564 518.025 394.584 518.167 394.584 518.297C394.584 518.822 394.244 519.188 393.669 519.188H393.609C393.199 519.188 392.889 518.997 392.759 518.557L392.039 516.217H386.989L386.309 518.597C386.189 519.007 385.869 519.188 385.489 519.188H385.429ZM387.419 514.467H391.559L389.469 507.267H389.409L387.419 514.467Z" fill="white"/>
<path d="M147.795 213.958C147.315 213.958 146.955 213.598 146.955 213.118V200.798C146.955 200.318 147.315 199.958 147.795 199.958H151.645C152.885 199.958 153.455 200.688 153.945 201.518L155.795 204.628C156.245 205.386 156.387 205.933 156.387 206.673C156.387 206.723 156.387 206.776 156.385 206.828C156.365 207.648 156.245 208.218 155.795 209.038L153.945 212.398C153.485 213.228 152.885 213.958 151.645 213.958H147.795ZM151.475 212.208C152.075 212.208 152.225 211.948 152.505 211.418L154.105 208.388C154.395 207.838 154.545 207.468 154.545 206.828C154.545 206.188 154.415 205.808 154.105 205.268L152.505 202.498C152.205 201.978 152.075 201.708 151.475 201.708H148.795V212.208H151.475ZM158.997 213.958C158.457 213.958 158.077 213.588 158.077 213.118V199.978H160.527L163.157 206.458L165.877 199.978H168.297V213.118C168.297 213.588 167.907 213.958 167.377 213.958C166.837 213.958 166.457 213.588 166.457 213.118V203.608L164.237 208.498C164.027 208.968 163.697 209.248 163.157 209.248C162.587 209.248 162.277 208.988 162.067 208.498L159.917 203.528V213.118C159.917 213.588 159.537 213.958 158.997 213.958Z" fill="#96FF5E"/>
<path d="M250.854 213.958C250.374 213.958 250.014 213.598 250.014 213.118V200.798C250.014 200.318 250.374 199.958 250.854 199.958H254.704C255.944 199.958 256.514 200.688 257.004 201.518L258.854 204.628C259.304 205.386 259.447 205.933 259.447 206.673C259.447 206.723 259.447 206.776 259.444 206.828C259.424 207.648 259.304 208.218 258.854 209.038L257.004 212.398C256.544 213.228 255.944 213.958 254.704 213.958H250.854ZM254.534 212.208C255.134 212.208 255.284 211.948 255.564 211.418L257.164 208.388C257.454 207.838 257.604 207.468 257.604 206.828C257.604 206.188 257.474 205.808 257.164 205.268L255.564 202.498C255.264 201.978 255.134 201.708 254.534 201.708H251.854V212.208H254.534ZM262.056 213.958C261.516 213.958 261.136 213.588 261.136 213.118V199.978H263.586L266.216 206.458L268.936 199.978H271.356V213.118C271.356 213.588 270.966 213.958 270.436 213.958C269.896 213.958 269.516 213.588 269.516 213.118V203.608L267.296 208.498C267.086 208.968 266.756 209.248 266.216 209.248C265.646 209.248 265.336 208.988 265.126 208.498L262.976 203.528V213.118C262.976 213.588 262.596 213.958 262.056 213.958Z" fill="#96FF5E"/>
<path d="M356.082 213.958C355.602 213.958 355.242 213.598 355.242 213.118V200.798C355.242 200.318 355.602 199.958 356.082 199.958H359.932C361.172 199.958 361.742 200.688 362.232 201.518L364.082 204.628C364.532 205.386 364.675 205.933 364.675 206.673C364.675 206.723 364.675 206.776 364.672 206.828C364.652 207.648 364.532 208.218 364.082 209.038L362.232 212.398C361.772 213.228 361.172 213.958 359.932 213.958H356.082ZM359.762 212.208C360.362 212.208 360.512 211.948 360.792 211.418L362.392 208.388C362.682 207.838 362.832 207.468 362.832 206.828C362.832 206.188 362.702 205.808 362.392 205.268L360.792 202.498C360.492 201.978 360.362 201.708 359.762 201.708H357.082V212.208H359.762ZM367.284 213.958C366.744 213.958 366.364 213.588 366.364 213.118V199.978H368.814L371.444 206.458L374.164 199.978H376.584V213.118C376.584 213.588 376.194 213.958 375.664 213.958C375.124 213.958 374.744 213.588 374.744 213.118V203.608L372.524 208.498C372.314 208.968 371.984 209.248 371.444 209.248C370.874 209.248 370.564 208.988 370.354 208.498L368.204 203.528V213.118C368.204 213.588 367.824 213.958 367.284 213.958Z" fill="#96FF5E"/>
<path d="M456.632 213.958C456.152 213.958 455.792 213.598 455.792 213.118V200.798C455.792 200.318 456.152 199.958 456.632 199.958H460.482C461.722 199.958 462.292 200.688 462.782 201.518L464.632 204.628C465.082 205.386 465.225 205.933 465.225 206.673C465.225 206.723 465.225 206.776 465.222 206.828C465.202 207.648 465.082 208.218 464.632 209.038L462.782 212.398C462.322 213.228 461.722 213.958 460.482 213.958H456.632ZM460.312 212.208C460.912 212.208 461.062 211.948 461.342 211.418L462.942 208.388C463.232 207.838 463.382 207.468 463.382 206.828C463.382 206.188 463.252 205.808 462.942 205.268L461.342 202.498C461.042 201.978 460.912 201.708 460.312 201.708H457.632V212.208H460.312ZM467.835 213.958C467.295 213.958 466.915 213.588 466.915 213.118V199.978H469.365L471.995 206.458L474.715 199.978H477.135V213.118C477.135 213.588 476.745 213.958 476.215 213.958C475.675 213.958 475.295 213.588 475.295 213.118V203.608L473.075 208.498C472.865 208.968 472.535 209.248 471.995 209.248C471.425 209.248 471.115 208.988 470.905 208.498L468.755 203.528V213.118C468.755 213.588 468.375 213.958 467.835 213.958Z" fill="#96FF5E"/>
</g>
<defs>
<clipPath id="clip0_2047_701">
<rect width="622" height="615" fill="white" transform="translate(0.595703)"/>
</clipPath>
</defs>
</svg>
