<svg width="616" height="615" viewBox="0 0 616 615" fill="none" xmlns="http://www.w3.org/2000/svg">
<g clip-path="url(#clip0_1750_458)">
<path d="M599.838 614.516H16.5894" stroke="white" stroke-width="0.969211"/>
<path d="M192.853 0.484375H16.5894" stroke="white" stroke-width="0.969211"/>
<path d="M192.853 205.753H16.5894" stroke="white" stroke-width="0.969211" stroke-dasharray="4.85 4.85"/>
<path d="M396.345 0.484375H220.082" stroke="white" stroke-width="0.969211"/>
<path d="M599.838 0.484375H423.574" stroke="white" stroke-width="0.969211"/>
<path d="M396.345 205.753H220.082" stroke="white" stroke-width="0.969211" stroke-dasharray="4.85 4.85"/>
<path d="M599.838 205.753H423.574" stroke="white" stroke-width="0.969211" stroke-dasharray="4.85 4.85"/>
<path d="M1.19824 192.139V15.8755" stroke="white" stroke-width="0.969211"/>
<path d="M206.467 192.139V15.8755" stroke="white" stroke-width="0.969211" stroke-dasharray="4.85 4.85"/>
<path d="M409.959 192.139V15.8755" stroke="white" stroke-width="0.969211" stroke-dasharray="4.85 4.85"/>
<path d="M1.19824 599.124V219.368" stroke="white" stroke-width="0.969211"/>
<path d="M615.229 192.14V15.876" stroke="white" stroke-width="0.969211"/>
<path d="M615.229 599.125V219.368" stroke="white" stroke-width="0.969211"/>
<path d="M98.3375 111.008C97.0975 111.008 96.5075 110.288 96.0375 109.448L94.2375 106.208C93.7675 105.368 93.6575 104.748 93.6575 104.008C93.6575 103.268 93.7675 102.648 94.2375 101.808L96.0375 98.5676C96.5075 97.7276 97.0975 97.0076 98.3375 97.0076H101.778C102.258 97.0076 102.618 97.3776 102.618 97.8476V97.9176C102.618 98.3876 102.258 98.7576 101.778 98.7576H98.6175C98.1975 98.7576 97.9575 98.8576 97.5675 99.5576L95.9275 102.498C95.6275 103.038 95.5075 103.458 95.5075 104.008C95.5075 104.558 95.6275 104.978 95.9275 105.518L97.5675 108.458C97.9575 109.158 98.1975 109.258 98.6175 109.258H101.778C102.258 109.258 102.618 109.628 102.618 110.098V110.168C102.618 110.638 102.258 111.008 101.778 111.008H98.3375ZM106.64 111.008C106.16 111.008 105.8 110.638 105.8 110.168V110.098C105.8 109.628 106.16 109.258 106.64 109.258H109.32V98.7576H106.64C106.16 98.7576 105.8 98.3876 105.8 97.9176V97.8476C105.8 97.3776 106.16 97.0076 106.64 97.0076H111.16V109.258H113.28V105.948C113.28 105.458 113.66 105.088 114.17 105.088H114.22C114.73 105.088 115.12 105.458 115.12 105.948V110.148C115.12 110.638 114.75 111.008 114.22 111.008H106.64Z" fill="#96FF5E"/>
<path d="M301.83 111.008C300.59 111.008 300 110.288 299.53 109.448L297.73 106.208C297.26 105.368 297.15 104.748 297.15 104.008C297.15 103.268 297.26 102.648 297.73 101.808L299.53 98.5676C300 97.7276 300.59 97.0076 301.83 97.0076H305.27C305.75 97.0076 306.11 97.3776 306.11 97.8476V97.9176C306.11 98.3876 305.75 98.7576 305.27 98.7576H302.11C301.69 98.7576 301.45 98.8576 301.06 99.5576L299.42 102.498C299.12 103.038 299 103.458 299 104.008C299 104.558 299.12 104.978 299.42 105.518L301.06 108.458C301.45 109.158 301.69 109.258 302.11 109.258H305.27C305.75 109.258 306.11 109.628 306.11 110.098V110.168C306.11 110.638 305.75 111.008 305.27 111.008H301.83ZM311.382 111.008C310.372 111.008 309.552 110.188 309.552 109.188V105.008C309.552 103.908 310.452 103.098 311.552 103.098H316.592C316.712 103.098 316.772 102.998 316.772 102.918V98.9376C316.772 98.8576 316.712 98.7576 316.592 98.7576H310.412C309.932 98.7576 309.572 98.4076 309.572 97.9276V97.8876C309.572 97.3576 309.932 97.0076 310.412 97.0076H316.622C317.712 97.0076 318.612 97.9076 318.612 99.0076V102.938C318.612 103.948 317.712 104.848 316.612 104.848H311.582C311.462 104.848 311.392 104.948 311.392 105.038V109.238C311.392 109.258 311.392 109.258 311.412 109.258H318.062C318.542 109.258 318.912 109.608 318.912 110.088V110.128C318.912 110.658 318.542 111.008 318.062 111.008H311.382Z" fill="#96FF5E"/>
<path d="M505.322 111.008C504.082 111.008 503.492 110.288 503.022 109.448L501.222 106.208C500.752 105.368 500.642 104.748 500.642 104.008C500.642 103.268 500.752 102.648 501.222 101.808L503.022 98.5676C503.492 97.7276 504.082 97.0076 505.322 97.0076H508.762C509.242 97.0076 509.602 97.3776 509.602 97.8476V97.9176C509.602 98.3876 509.242 98.7576 508.762 98.7576H505.602C505.182 98.7576 504.942 98.8576 504.552 99.5576L502.912 102.498C502.612 103.038 502.492 103.458 502.492 104.008C502.492 104.558 502.612 104.978 502.912 105.518L504.552 108.458C504.942 109.158 505.182 109.258 505.602 109.258H508.762C509.242 109.258 509.602 109.628 509.602 110.098V110.168C509.602 110.638 509.242 111.008 508.762 111.008H505.322ZM513.294 111.008C512.814 111.008 512.454 110.658 512.454 110.128V110.088C512.454 109.608 512.814 109.258 513.294 109.258H520.014C520.134 109.258 520.204 109.158 520.204 109.078V105.878C520.204 105.188 519.784 104.968 519.104 104.968H515.764C515.284 104.968 514.924 104.608 514.924 104.128V104.068C514.924 103.588 515.284 103.218 515.764 103.218H519.104C519.784 103.218 520.204 103.008 520.204 102.308V98.9376C520.204 98.8576 520.134 98.7576 520.014 98.7576H513.294C512.814 98.7576 512.454 98.4076 512.454 97.9276V97.8876C512.454 97.3576 512.814 97.0076 513.294 97.0076H520.044C521.144 97.0076 522.044 97.9076 522.044 99.0076V102.308C522.044 103.048 521.754 103.848 520.764 104.108C521.754 104.348 522.044 105.128 522.044 105.868V109.008C522.044 110.108 521.144 111.008 520.044 111.008H513.294Z" fill="#96FF5E"/>
<path d="M222.264 417.135C221.754 417.135 221.374 416.765 221.374 416.275V403.995C221.374 403.505 221.754 403.135 222.264 403.135H222.314C222.824 403.135 223.214 403.505 223.214 403.995V409.155H229.074V403.995C229.074 403.505 229.464 403.135 229.974 403.135H230.024C230.534 403.135 230.914 403.505 230.914 403.995V416.275C230.914 416.765 230.554 417.135 230.024 417.135H229.974C229.464 417.135 229.074 416.765 229.074 416.275V410.905H223.214V416.275C223.214 416.765 222.844 417.135 222.314 417.135H222.264ZM233.736 410.335C233.736 409.305 234.036 408.885 234.906 408.205L235.456 407.775C236.006 407.345 236.496 407.135 237.276 407.135H238.996C239.776 407.135 240.266 407.345 240.816 407.775L241.366 408.205C242.236 408.885 242.536 409.305 242.536 410.335V413.935C242.536 414.965 242.236 415.385 241.366 416.065L240.816 416.495C240.266 416.925 239.776 417.135 238.996 417.135H237.276C236.496 417.135 236.006 416.925 235.456 416.495L234.906 416.065C234.036 415.385 233.736 414.965 233.736 413.935V410.335ZM235.396 413.465C235.396 414.105 235.516 414.375 236.006 414.765L236.296 414.995C236.666 415.285 236.956 415.385 237.456 415.385H238.816C239.316 415.385 239.606 415.285 239.976 414.995L240.266 414.765C240.756 414.375 240.876 414.105 240.876 413.465V410.795C240.876 410.155 240.756 409.895 240.266 409.505L239.976 409.275C239.606 408.985 239.316 408.885 238.816 408.885H237.456C236.956 408.885 236.666 408.985 236.296 409.275L236.006 409.505C235.516 409.895 235.396 410.155 235.396 410.795V413.465ZM245.938 417.085C245.671 416.922 245.521 416.677 245.521 416.387C245.521 416.21 245.576 416.015 245.698 415.815L249.088 410.125L245.638 404.345C245.558 404.21 245.523 404.072 245.523 403.937C245.523 403.647 245.686 403.375 245.938 403.205C246.108 403.092 246.283 403.04 246.448 403.04C246.746 403.04 247.013 403.207 247.168 403.465L250.108 408.395L253.048 403.465C253.203 403.207 253.468 403.045 253.768 403.045C253.933 403.045 254.108 403.095 254.278 403.205C254.531 403.367 254.693 403.642 254.693 403.935C254.693 404.07 254.658 404.21 254.578 404.345L251.128 410.125L254.518 415.815C254.636 416.012 254.691 416.207 254.691 416.385C254.691 416.675 254.546 416.925 254.278 417.085C254.116 417.182 253.953 417.23 253.801 417.23C253.486 417.23 253.203 417.032 252.988 416.675L250.108 411.845L247.228 416.675C247.013 417.032 246.731 417.23 246.416 417.23C246.263 417.23 246.101 417.182 245.938 417.085ZM265.601 417.135C265.141 417.135 264.791 416.765 264.791 416.295V409.885C264.791 409.085 264.311 408.885 263.641 408.885H262.081C261.641 408.885 261.461 408.925 261.181 409.205L259.441 410.945V416.215C259.441 416.755 259.151 417.135 258.641 417.135H258.591C258.121 417.135 257.791 416.805 257.791 416.215V408.055C257.791 407.465 258.121 407.135 258.591 407.135H258.641C259.151 407.135 259.441 407.515 259.441 408.055V408.785L260.621 407.605C260.871 407.355 261.291 407.135 261.891 407.135H263.931C265.291 407.135 266.451 408.095 266.451 409.875V416.295C266.451 416.765 266.101 417.135 265.641 417.135H265.601ZM273.513 417.135C272.733 417.135 272.253 416.925 271.703 416.495L271.153 416.065C270.283 415.385 269.983 414.965 269.983 413.935V410.335C269.983 409.305 270.283 408.885 271.153 408.205L271.703 407.775C272.243 407.355 272.733 407.135 273.513 407.135H277.403C277.883 407.135 278.243 407.505 278.243 407.975V408.045C278.243 408.515 277.883 408.885 277.403 408.885H273.693C273.203 408.885 272.913 408.995 272.543 409.275L272.243 409.505C271.753 409.885 271.633 410.155 271.633 410.795V413.475C271.633 414.115 271.753 414.385 272.243 414.765L272.543 414.995C272.913 415.285 273.193 415.385 273.693 415.385H277.403C277.883 415.385 278.243 415.755 278.243 416.225V416.295C278.243 416.765 277.883 417.135 277.403 417.135H273.513ZM282.395 417.135C281.915 417.135 281.555 416.765 281.555 416.285V416.235C281.555 415.755 281.915 415.385 282.395 415.385H287.665C288.265 415.385 288.665 415.165 288.665 414.645C288.665 414.335 288.445 414.075 287.855 413.785L283.605 411.705C282.435 411.135 281.925 410.455 281.925 409.515C281.925 407.865 283.045 407.135 284.815 407.135H289.785C290.265 407.135 290.635 407.505 290.635 407.985V408.035C290.635 408.495 290.265 408.865 289.785 408.865H284.555C284.025 408.865 283.705 409.055 283.705 409.515C283.705 409.835 283.945 410.055 284.515 410.335L288.765 412.415C289.925 412.985 290.475 413.775 290.475 414.665C290.475 416.235 289.365 417.135 287.555 417.135H282.395ZM298.097 411.935C297.487 411.935 297.387 411.555 297.357 411.185L296.817 404.415C296.805 404.25 296.797 404.102 296.797 403.97C296.797 403.222 297.035 402.955 297.747 402.955H298.467C299.167 402.955 299.407 403.225 299.407 403.98C299.407 404.11 299.4 404.255 299.387 404.415L298.837 411.185C298.807 411.495 298.757 411.935 298.137 411.935H298.097ZM297.657 417.135C297.287 417.135 296.927 416.755 296.927 416.365V415.545C296.927 415.185 297.287 414.815 297.657 414.815H298.577C298.947 414.815 299.297 415.185 299.297 415.545V416.365C299.297 416.755 298.947 417.135 298.577 417.135H297.657ZM305.929 417.135C305.449 417.135 305.089 416.785 305.089 416.255V416.215C305.089 415.735 305.449 415.385 305.929 415.385H312.649C312.769 415.385 312.839 415.285 312.839 415.205V412.005C312.839 411.315 312.419 411.095 311.739 411.095H308.399C307.919 411.095 307.559 410.735 307.559 410.255V410.195C307.559 409.715 307.919 409.345 308.399 409.345H311.739C312.419 409.345 312.839 409.135 312.839 408.435V405.065C312.839 404.985 312.769 404.885 312.649 404.885H305.929C305.449 404.885 305.089 404.535 305.089 404.055V404.015C305.089 403.485 305.449 403.135 305.929 403.135H312.679C313.779 403.135 314.679 404.035 314.679 405.135V408.435C314.679 409.175 314.389 409.975 313.399 410.235C314.389 410.475 314.679 411.255 314.679 411.995V415.135C314.679 416.235 313.779 417.135 312.679 417.135H305.929ZM317.922 417.135C317.452 417.135 317.082 416.765 317.082 416.295V416.225C317.082 415.755 317.452 415.385 317.922 415.385H321.342V408.885H318.402C317.922 408.885 317.552 408.515 317.552 408.045V407.975C317.552 407.505 317.922 407.135 318.402 407.135H322.192C322.712 407.135 323.002 407.515 323.002 408.055V415.385H326.282C326.752 415.385 327.122 415.755 327.122 416.225V416.295C327.122 416.765 326.752 417.135 326.282 417.135H317.922ZM321.162 405.665C320.762 405.665 320.452 405.355 320.452 404.945V403.855C320.452 403.445 320.762 403.135 321.162 403.135H322.282C322.682 403.135 323.002 403.445 323.002 403.855V404.945C323.002 405.355 322.682 405.665 322.282 405.665H321.162ZM332.904 421.135C331.894 421.135 331.224 420.795 330.874 419.895L330.504 418.945C330.434 418.755 330.384 418.565 330.384 418.455C330.384 417.905 330.744 417.655 331.244 417.655C331.754 417.655 331.944 417.945 332.094 418.395L332.254 418.885C332.374 419.265 332.584 419.385 333.094 419.385H335.274C335.534 419.385 335.824 419.315 335.824 418.875V408.885H333.374C332.894 408.885 332.524 408.515 332.524 408.045V407.975C332.524 407.505 332.894 407.135 333.374 407.135H336.824C337.304 407.135 337.664 407.505 337.664 407.975V419.285C337.664 420.325 336.924 421.135 335.814 421.135H332.904ZM335.824 405.665C335.424 405.665 335.114 405.355 335.114 404.945V403.855C335.114 403.445 335.424 403.135 335.824 403.135H336.944C337.344 403.135 337.664 403.445 337.664 403.855V404.945C337.664 405.355 337.344 405.665 336.944 405.665H335.824ZM342.676 417.135C342.196 417.135 341.836 416.775 341.836 416.295V403.975C341.836 403.495 342.196 403.135 342.676 403.135H346.526C347.766 403.135 348.336 403.865 348.826 404.695L350.676 407.805C351.126 408.562 351.268 409.11 351.268 409.85C351.268 409.9 351.268 409.952 351.266 410.005C351.246 410.825 351.126 411.395 350.676 412.215L348.826 415.575C348.366 416.405 347.766 417.135 346.526 417.135H342.676ZM346.356 415.385C346.956 415.385 347.106 415.125 347.386 414.595L348.986 411.565C349.276 411.015 349.426 410.645 349.426 410.005C349.426 409.365 349.296 408.985 348.986 408.445L347.386 405.675C347.086 405.155 346.956 404.885 346.356 404.885H343.676V415.385H346.356ZM356.728 411.475C356.656 411.337 356.616 411.187 356.616 411.04C356.616 410.747 356.766 410.462 357.078 410.295C357.233 410.215 357.386 410.18 357.528 410.18C357.843 410.18 358.108 410.352 358.238 410.595L359.386 412.707L359.978 412.165C360.588 411.605 360.836 411.26 360.836 410.705C360.836 410.477 360.793 410.215 360.718 409.885L359.738 405.585C359.638 405.165 359.588 405.005 359.348 404.935L359.238 404.905C359.183 404.89 359.133 404.882 359.086 404.882C358.898 404.882 358.728 404.992 358.428 405.255L355.198 408.085C354.606 408.605 354.371 409.012 354.371 409.607C354.371 409.822 354.403 410.065 354.458 410.345L355.308 414.545C355.418 415.085 355.508 415.385 355.778 415.465L355.848 415.485C355.906 415.502 355.961 415.512 356.021 415.512C356.226 415.512 356.453 415.387 356.828 415.045L358.061 413.917L356.728 411.475ZM355.148 417.145C354.118 416.825 353.808 415.935 353.588 414.935L352.648 410.625C352.576 410.287 352.541 409.967 352.541 409.662C352.541 408.465 353.076 407.525 353.898 406.815L357.168 403.995C357.786 403.465 358.378 403.04 359.153 403.04C359.358 403.04 359.576 403.07 359.808 403.135L359.918 403.165C361.068 403.475 361.298 404.435 361.528 405.405L362.528 409.615C362.603 409.932 362.646 410.257 362.646 410.58C362.646 411.575 362.256 412.57 361.288 413.415L360.261 414.32L360.838 415.385H362.478C362.958 415.385 363.328 415.755 363.328 416.225V416.295C363.328 416.765 362.958 417.135 362.478 417.135H359.818L358.923 415.497L357.948 416.355C357.351 416.882 356.791 417.312 356.031 417.312C355.808 417.312 355.571 417.275 355.308 417.195L355.148 417.145ZM365.92 417.135C365.44 417.135 365.08 416.765 365.08 416.295V416.225C365.08 415.755 365.44 415.385 365.92 415.385H371.71C372.23 415.385 372.54 415.155 372.54 414.755C372.54 414.425 372.25 413.965 371.32 412.925L367.22 408.355C365.92 406.905 365.37 406.185 365.37 405.315C365.37 403.885 366.37 403.135 367.97 403.135H373.3C373.78 403.135 374.14 403.505 374.14 403.985V404.035C374.14 404.515 373.78 404.885 373.3 404.885H368.35C367.89 404.885 367.48 405.035 367.48 405.505C367.48 405.775 367.77 406.165 368.71 407.225L372.79 411.795C374.08 413.245 374.67 414.015 374.67 414.915C374.67 416.245 373.65 417.135 372.14 417.135H365.92ZM380.872 421.135C379.862 421.135 379.192 420.795 378.842 419.895L378.472 418.945C378.402 418.755 378.352 418.565 378.352 418.455C378.352 417.905 378.712 417.655 379.212 417.655C379.722 417.655 379.912 417.945 380.062 418.395L380.222 418.885C380.342 419.265 380.552 419.385 381.062 419.385H383.242C383.502 419.385 383.792 419.315 383.792 418.875V408.885H381.342C380.862 408.885 380.492 408.515 380.492 408.045V407.975C380.492 407.505 380.862 407.135 381.342 407.135H384.792C385.272 407.135 385.632 407.505 385.632 407.975V419.285C385.632 420.325 384.892 421.135 383.782 421.135H380.872ZM383.792 405.665C383.392 405.665 383.082 405.355 383.082 404.945V403.855C383.082 403.445 383.392 403.135 383.792 403.135H384.912C385.312 403.135 385.632 403.445 385.632 403.855V404.945C385.632 405.355 385.312 405.665 384.912 405.665H383.792ZM394.525 417.135H393.505C393.302 417.135 393.13 417.142 392.975 417.142C392.535 417.142 392.232 417.077 391.745 416.575L390.045 414.815C389.505 414.26 389.462 413.675 389.462 413.23C389.462 413.145 389.465 413.067 389.465 412.995V411.275C389.465 411.202 389.462 411.125 389.462 411.04C389.462 410.595 389.505 410.01 390.045 409.455L391.565 407.875C392.165 407.255 392.505 407.135 393.105 407.135H394.525C395.315 407.135 395.635 407.575 396.265 408.235L396.945 408.937V403.915C396.945 403.465 397.295 403.135 397.755 403.135H397.795C398.255 403.135 398.605 403.465 398.605 403.915V411.47C398.607 411.522 398.607 411.577 398.607 411.627C398.607 411.71 398.605 411.785 398.605 411.855V412.415C398.605 412.485 398.607 412.56 398.607 412.642C398.607 412.692 398.607 412.747 398.605 412.8V416.335C398.605 416.805 398.255 417.135 397.795 417.135H397.755C397.275 417.135 396.945 416.805 396.945 416.335V415.332L396.265 416.035C395.635 416.695 395.315 417.135 394.525 417.135ZM391.235 412.995C391.235 413.305 391.285 413.735 391.665 414.135L392.395 414.885C392.875 415.385 392.895 415.385 393.215 415.385H394.265C394.595 415.385 394.745 415.345 395.215 414.865L396.515 413.535C396.885 413.165 396.945 412.905 396.945 412.595V411.675C396.945 411.365 396.885 411.105 396.515 410.735L395.215 409.405C394.745 408.925 394.595 408.885 394.265 408.885H393.215C392.895 408.885 392.865 408.895 392.395 409.385L391.665 410.135C391.275 410.535 391.235 410.965 391.235 411.275V412.995ZM406.027 417.235C404.787 417.235 404.247 416.525 403.727 415.675L401.487 411.995C400.987 411.175 400.907 410.575 400.907 410.075C400.907 409.575 400.977 408.955 401.487 408.155L403.727 404.595C404.257 403.755 404.787 403.035 405.987 403.035H406.047C407.287 403.035 407.777 403.765 408.307 404.595L410.567 408.155C411.077 408.965 411.147 409.575 411.147 410.075C411.147 410.575 411.067 411.175 410.567 411.995L408.307 415.675C407.787 416.525 407.267 417.235 406.047 417.235H406.027ZM406.027 415.505C406.347 415.505 406.527 415.305 406.817 414.815L408.937 411.225C409.227 410.725 409.357 410.455 409.357 410.075C409.357 409.685 409.257 409.435 408.937 408.925L406.807 405.495C406.517 405.025 406.307 404.805 406.027 404.805H406.007C405.727 404.805 405.547 405.025 405.257 405.495L403.127 408.925C402.847 409.365 402.717 409.635 402.717 410.075C402.717 410.505 402.857 410.765 403.127 411.225L405.237 414.795C405.537 415.305 405.687 415.505 406.007 415.505H406.027Z" fill="white"/>
</g>
<defs>
<clipPath id="clip0_1750_458">
<rect width="615" height="615" fill="white" transform="translate(0.713379)"/>
</clipPath>
</defs>
</svg>
