<svg width="615" height="615" viewBox="0 0 615 615" fill="none" xmlns="http://www.w3.org/2000/svg">
<g clip-path="url(#clip0_2168_757)">
<path d="M7.60107 419.909V592.034" stroke="white" stroke-width="1.5"/>
<path d="M607.213 419.909V592.034" stroke="white" stroke-width="1.5"/>
<path d="M7.60107 14.7236V0" stroke="white" stroke-width="1.5"/>
<path d="M14.9644 7.36035H0.240723" stroke="white" stroke-width="1.5"/>
<path d="M208.05 14.7236V0" stroke="white" stroke-width="1.5"/>
<path d="M215.413 7.36035H200.69" stroke="white" stroke-width="1.5"/>
<path d="M406.764 14.7236V0" stroke="white" stroke-width="1.5"/>
<path d="M414.127 7.36035H399.404" stroke="white" stroke-width="1.5"/>
<path d="M607.402 14.7236V0" stroke="white" stroke-width="1.5"/>
<path d="M614.576 7.36035H599.853" stroke="white" stroke-width="1.5"/>
<path d="M592.186 406.618H22.6306" stroke="white" stroke-width="1.5"/>
<path d="M592.186 607.066H22.6306" stroke="white" stroke-width="1.5"/>
<path d="M173.243 227.366L307.409 393.32" stroke="white" stroke-width="1.5" stroke-dasharray="4.79 4.79"/>
<path d="M7.60107 22.4814L137.047 182.596" stroke="white" stroke-width="1.5" stroke-dasharray="4.79 4.79"/>
<path d="M262.944 227.366L307.409 393.32" stroke="white" stroke-width="1.5" stroke-dasharray="4.79 4.79"/>
<path d="M208.05 22.4814L250.95 182.596" stroke="white" stroke-width="1.5" stroke-dasharray="4.79 4.79"/>
<path d="M351.873 227.366L307.408 393.32" stroke="white" stroke-width="1.5" stroke-dasharray="4.79 4.79"/>
<path d="M406.764 22.4814L363.867 182.596" stroke="white" stroke-width="1.5" stroke-dasharray="4.79 4.79"/>
<path d="M441.659 227.366L307.408 393.32" stroke="white" stroke-width="1.5" stroke-dasharray="4.79 4.79"/>
<path d="M607.402 22.4814L477.874 182.596" stroke="white" stroke-width="1.5" stroke-dasharray="4.79 4.79"/>
<path d="M256.054 513.06C255.574 513.06 255.214 512.7 255.214 512.22V499.9C255.214 499.42 255.574 499.06 256.054 499.06H259.904C261.144 499.06 261.714 499.79 262.204 500.62L264.054 503.73C264.504 504.487 264.646 505.035 264.646 505.775C264.646 505.825 264.646 505.877 264.644 505.93C264.624 506.75 264.504 507.32 264.054 508.14L262.204 511.5C261.744 512.33 261.144 513.06 259.904 513.06H256.054ZM259.734 511.31C260.334 511.31 260.484 511.05 260.764 510.52L262.364 507.49C262.654 506.94 262.804 506.57 262.804 505.93C262.804 505.29 262.674 504.91 262.364 504.37L260.764 501.6C260.464 501.08 260.334 500.81 259.734 500.81H257.054V511.31H259.734ZM266.886 513.06V499.06H275.166C275.636 499.06 276.006 499.43 276.006 499.9V499.97C276.006 500.44 275.636 500.81 275.166 500.81H268.726V505.08H272.676C273.146 505.08 273.516 505.44 273.516 505.92V505.98C273.516 506.46 273.146 506.83 272.676 506.83H268.726V511.31H275.166C275.636 511.31 276.006 511.68 276.006 512.15V512.22C276.006 512.69 275.636 513.06 275.166 513.06H266.886ZM283.288 513.06C282.048 513.06 281.458 512.34 280.988 511.5L279.188 508.26C278.718 507.42 278.608 506.8 278.608 506.06C278.608 505.32 278.718 504.7 279.188 503.86L280.988 500.62C281.458 499.78 282.048 499.06 283.288 499.06H286.728C287.208 499.06 287.568 499.43 287.568 499.9V499.97C287.568 500.44 287.208 500.81 286.728 500.81H283.568C283.148 500.81 282.908 500.91 282.518 501.61L280.878 504.55C280.578 505.09 280.458 505.51 280.458 506.06C280.458 506.61 280.578 507.03 280.878 507.57L282.518 510.51C282.908 511.21 283.148 511.31 283.568 511.31H286.728C287.208 511.31 287.568 511.68 287.568 512.15V512.22C287.568 512.69 287.208 513.06 286.728 513.06H283.288ZM291.57 513.06C291.06 513.06 290.64 512.73 290.64 512.11V499.06H297.24C299.16 499.06 300.2 500.04 300.2 502.13V502.99C300.2 505.08 299.14 505.99 297.22 505.99H295.775L299.73 511.51C299.9 511.745 299.98 511.965 299.98 512.167C299.98 512.402 299.873 512.617 299.68 512.81C299.51 512.98 299.27 513.067 299.028 513.067C298.755 513.067 298.48 512.955 298.31 512.71L293.58 505.99H292.48V512.11C292.48 512.71 292.11 513.06 291.6 513.06H291.57ZM297.02 504.25C297.95 504.25 298.35 504.01 298.35 503.11V502.02C298.35 501.12 297.98 500.81 297.03 500.81H292.48V504.25H297.02ZM307.353 513.06C306.803 513.06 306.453 512.71 306.453 512.14V506.85L302.903 501.87V499.98C302.903 499.44 303.233 499.06 303.803 499.06H303.843C304.373 499.06 304.743 499.39 304.743 499.98V501.5L307.373 505.26H307.413L310.083 501.5V499.98C310.083 499.39 310.453 499.06 310.983 499.06H311.023C311.593 499.06 311.923 499.44 311.923 499.98V501.87L308.293 506.85V512.14C308.293 512.68 307.943 513.06 307.393 513.06H307.353ZM315.345 513.06C314.825 513.06 314.465 512.71 314.465 512.11V499.06H321.445C323.075 499.06 324.345 500.14 324.345 501.9V503.1C324.345 504.88 322.995 505.8 321.435 505.8H316.305V512.11C316.305 512.71 315.945 513.06 315.425 513.06H315.345ZM321.285 504.07C322.015 504.07 322.485 503.84 322.485 503.07V501.87C322.485 501.11 322.045 500.81 321.315 500.81H316.305V504.07H321.285ZM331.377 513.06C330.857 513.06 330.477 512.69 330.477 512.2V500.81H327.217C326.747 500.81 326.377 500.44 326.377 499.97V499.9C326.377 499.43 326.747 499.06 327.217 499.06H335.577C336.047 499.06 336.417 499.43 336.417 499.9V499.97C336.417 500.44 336.047 500.81 335.577 500.81H332.317V512.2C332.317 512.69 331.947 513.06 331.417 513.06H331.377ZM338.839 513.06V499.06H347.119C347.589 499.06 347.959 499.43 347.959 499.9V499.97C347.959 500.44 347.589 500.81 347.119 500.81H340.679V505.08H344.629C345.099 505.08 345.469 505.44 345.469 505.92V505.98C345.469 506.46 345.099 506.83 344.629 506.83H340.679V511.31H347.119C347.589 511.31 347.959 511.68 347.959 512.15V512.22C347.959 512.69 347.589 513.06 347.119 513.06H338.839ZM351.991 513.06C351.511 513.06 351.151 512.7 351.151 512.22V499.9C351.151 499.42 351.511 499.06 351.991 499.06H355.841C357.081 499.06 357.651 499.79 358.141 500.62L359.991 503.73C360.441 504.487 360.584 505.035 360.584 505.775C360.584 505.825 360.584 505.877 360.581 505.93C360.561 506.75 360.441 507.32 359.991 508.14L358.141 511.5C357.681 512.33 357.081 513.06 355.841 513.06H351.991ZM355.671 511.31C356.271 511.31 356.421 511.05 356.701 510.52L358.301 507.49C358.591 506.94 358.741 506.57 358.741 505.93C358.741 505.29 358.611 504.91 358.301 504.37L356.701 501.6C356.401 501.08 356.271 500.81 355.671 500.81H352.991V511.31H355.671ZM286.034 531.06C285.554 531.06 285.194 530.7 285.194 530.22V517.9C285.194 517.42 285.554 517.06 286.034 517.06H289.884C291.124 517.06 291.694 517.79 292.184 518.62L294.034 521.73C294.484 522.487 294.627 523.035 294.627 523.775C294.627 523.825 294.627 523.877 294.624 523.93C294.604 524.75 294.484 525.32 294.034 526.14L292.184 529.5C291.724 530.33 291.124 531.06 289.884 531.06H286.034ZM289.714 529.31C290.314 529.31 290.464 529.05 290.744 528.52L292.344 525.49C292.634 524.94 292.784 524.57 292.784 523.93C292.784 523.29 292.654 522.91 292.344 522.37L290.744 519.6C290.444 519.08 290.314 518.81 289.714 518.81H287.034V529.31H289.714ZM297.297 531.06C296.684 531.06 296.379 530.695 296.379 530.175C296.379 530.032 296.402 529.88 296.447 529.72L299.627 518.45C299.857 517.62 300.467 517.05 301.317 517.05C302.127 517.05 302.737 517.62 302.987 518.45L306.387 529.75C306.432 529.897 306.452 530.04 306.452 530.17C306.452 530.695 306.112 531.06 305.537 531.06H305.477C305.067 531.06 304.757 530.87 304.627 530.43L303.907 528.09H298.857L298.177 530.47C298.057 530.88 297.737 531.06 297.357 531.06H297.297ZM299.287 526.34H303.427L301.337 519.14H301.277L299.287 526.34ZM313.389 531.06C312.869 531.06 312.489 530.69 312.489 530.2V518.81H309.229C308.759 518.81 308.389 518.44 308.389 517.97V517.9C308.389 517.43 308.759 517.06 309.229 517.06H317.589C318.059 517.06 318.429 517.43 318.429 517.9V517.97C318.429 518.44 318.059 518.81 317.589 518.81H314.329V530.2C314.329 530.69 313.959 531.06 313.429 531.06H313.389ZM321.281 531.06C320.668 531.06 320.363 530.695 320.363 530.175C320.363 530.032 320.386 529.88 320.431 529.72L323.611 518.45C323.841 517.62 324.451 517.05 325.301 517.05C326.111 517.05 326.721 517.62 326.971 518.45L330.371 529.75C330.416 529.897 330.436 530.04 330.436 530.17C330.436 530.695 330.096 531.06 329.521 531.06H329.461C329.051 531.06 328.741 530.87 328.611 530.43L327.891 528.09H322.841L322.161 530.47C322.041 530.88 321.721 531.06 321.341 531.06H321.281ZM323.271 526.34H327.411L325.321 519.14H325.261L323.271 526.34Z" fill="white"/>
<path d="M145.51 211.533C145.03 211.533 144.67 211.173 144.67 210.693V198.373C144.67 197.893 145.03 197.533 145.51 197.533H149.36C150.6 197.533 151.17 198.263 151.66 199.093L153.51 202.203C153.96 202.961 154.102 203.508 154.102 204.248C154.102 204.298 154.102 204.351 154.1 204.403C154.08 205.223 153.96 205.793 153.51 206.613L151.66 209.973C151.2 210.803 150.6 211.533 149.36 211.533H145.51ZM149.19 209.783C149.79 209.783 149.94 209.523 150.22 208.993L151.82 205.963C152.11 205.413 152.26 205.043 152.26 204.403C152.26 203.763 152.13 203.383 151.82 202.843L150.22 200.073C149.92 199.553 149.79 199.283 149.19 199.283H146.51V209.783H149.19ZM156.712 211.533C156.172 211.533 155.792 211.163 155.792 210.693V197.553H158.242L160.872 204.033L163.592 197.553H166.012V210.693C166.012 211.163 165.622 211.533 165.092 211.533C164.552 211.533 164.172 211.163 164.172 210.693V201.183L161.952 206.073C161.742 206.543 161.412 206.823 160.872 206.823C160.302 206.823 159.992 206.563 159.782 206.073L157.632 201.103V210.693C157.632 211.163 157.252 211.533 156.712 211.533Z" fill="#96FF5E"/>
<path d="M247.3 211.533C246.82 211.533 246.46 211.173 246.46 210.693V198.373C246.46 197.893 246.82 197.533 247.3 197.533H251.15C252.39 197.533 252.96 198.263 253.45 199.093L255.3 202.203C255.75 202.961 255.892 203.508 255.892 204.248C255.892 204.298 255.892 204.351 255.89 204.403C255.87 205.223 255.75 205.793 255.3 206.613L253.45 209.973C252.99 210.803 252.39 211.533 251.15 211.533H247.3ZM250.98 209.783C251.58 209.783 251.73 209.523 252.01 208.993L253.61 205.963C253.9 205.413 254.05 205.043 254.05 204.403C254.05 203.763 253.92 203.383 253.61 202.843L252.01 200.073C251.71 199.553 251.58 199.283 250.98 199.283H248.3V209.783H250.98ZM258.502 211.533C257.962 211.533 257.582 211.163 257.582 210.693V197.553H260.032L262.662 204.033L265.382 197.553H267.802V210.693C267.802 211.163 267.412 211.533 266.882 211.533C266.342 211.533 265.962 211.163 265.962 210.693V201.183L263.742 206.073C263.532 206.543 263.202 206.823 262.662 206.823C262.092 206.823 261.782 206.563 261.572 206.073L259.422 201.103V210.693C259.422 211.163 259.042 211.533 258.502 211.533Z" fill="#96FF5E"/>
<path d="M351.231 211.533C350.751 211.533 350.391 211.173 350.391 210.693V198.373C350.391 197.893 350.751 197.533 351.231 197.533H355.081C356.321 197.533 356.891 198.263 357.381 199.093L359.231 202.203C359.681 202.961 359.824 203.508 359.824 204.248C359.824 204.298 359.824 204.351 359.821 204.403C359.801 205.223 359.681 205.793 359.231 206.613L357.381 209.973C356.921 210.803 356.321 211.533 355.081 211.533H351.231ZM354.911 209.783C355.511 209.783 355.661 209.523 355.941 208.993L357.541 205.963C357.831 205.413 357.981 205.043 357.981 204.403C357.981 203.763 357.851 203.383 357.541 202.843L355.941 200.073C355.641 199.553 355.511 199.283 354.911 199.283H352.231V209.783H354.911ZM362.433 211.533C361.893 211.533 361.513 211.163 361.513 210.693V197.553H363.963L366.593 204.033L369.313 197.553H371.733V210.693C371.733 211.163 371.343 211.533 370.813 211.533C370.273 211.533 369.893 211.163 369.893 210.693V201.183L367.673 206.073C367.463 206.543 367.133 206.823 366.593 206.823C366.023 206.823 365.713 206.563 365.503 206.073L363.353 201.103V210.693C363.353 211.163 362.973 211.533 362.433 211.533Z" fill="#96FF5E"/>
<path d="M450.542 211.533C450.062 211.533 449.702 211.173 449.702 210.693V198.373C449.702 197.893 450.062 197.533 450.542 197.533H454.392C455.632 197.533 456.202 198.263 456.692 199.093L458.542 202.203C458.992 202.961 459.135 203.508 459.135 204.248C459.135 204.298 459.135 204.351 459.132 204.403C459.112 205.223 458.992 205.793 458.542 206.613L456.692 209.973C456.232 210.803 455.632 211.533 454.392 211.533H450.542ZM454.222 209.783C454.822 209.783 454.972 209.523 455.252 208.993L456.852 205.963C457.142 205.413 457.292 205.043 457.292 204.403C457.292 203.763 457.162 203.383 456.852 202.843L455.252 200.073C454.952 199.553 454.822 199.283 454.222 199.283H451.542V209.783H454.222ZM461.745 211.533C461.205 211.533 460.825 211.163 460.825 210.693V197.553H463.275L465.905 204.033L468.625 197.553H471.045V210.693C471.045 211.163 470.655 211.533 470.125 211.533C469.585 211.533 469.205 211.163 469.205 210.693V201.183L466.985 206.073C466.775 206.543 466.445 206.823 465.905 206.823C465.335 206.823 465.025 206.563 464.815 206.073L462.665 201.103V210.693C462.665 211.163 462.285 211.533 461.745 211.533Z" fill="#96FF5E"/>
</g>
<defs>
<clipPath id="clip0_2168_757">
<rect width="614.336" height="607.54" fill="white" transform="translate(0.240723)"/>
</clipPath>
</defs>
</svg>
