<svg width="616" height="615" viewBox="0 0 616 615" fill="none" xmlns="http://www.w3.org/2000/svg">
<g clip-path="url(#clip0_96_344)">
<path d="M192.853 0.484375H16.5889" stroke="white" stroke-width="1.5"/>
<path d="M396.345 0.484375H220.082" stroke="white" stroke-width="1.5"/>
<path d="M599.838 0.484375H423.574" stroke="white" stroke-width="1.5"/>
<path d="M192.853 205.754H16.5889" stroke="white" stroke-width="1.5"/>
<path d="M396.345 205.754H220.082" stroke="white" stroke-width="1.5"/>
<path d="M599.838 205.754H423.574" stroke="white" stroke-width="1.5"/>
<path d="M192.853 409.246H16.5889" stroke="white" stroke-width="1.5"/>
<path d="M396.345 409.246H220.082" stroke="white" stroke-width="1.5"/>
<path d="M599.838 409.246H423.574" stroke="white" stroke-width="1.5"/>
<path d="M1.19824 422.86V599.124" stroke="white" stroke-width="1.5"/>
<path d="M1.19824 219.368V395.632" stroke="white" stroke-width="1.5"/>
<path d="M1.19824 15.8755V192.139" stroke="white" stroke-width="1.5"/>
<path d="M206.467 422.86V599.124" stroke="white" stroke-width="1.5"/>
<path d="M206.467 219.368V395.632" stroke="white" stroke-width="1.5"/>
<path d="M206.467 15.8755V192.139" stroke="white" stroke-width="1.5"/>
<path d="M409.959 422.86V599.124" stroke="white" stroke-width="1.5"/>
<path d="M409.959 219.368V395.632" stroke="white" stroke-width="1.5"/>
<path d="M409.959 15.8755V192.139" stroke="white" stroke-width="1.5"/>
<path d="M615.229 422.86V599.124" stroke="white" stroke-width="1.5"/>
<path d="M615.229 219.368V395.632" stroke="white" stroke-width="1.5"/>
<path d="M615.229 15.8755V192.139" stroke="white" stroke-width="1.5"/>
<path d="M192.853 614.515H16.5889" stroke="white" stroke-width="1.5"/>
<path d="M396.345 614.515H220.082" stroke="white" stroke-width="1.5"/>
<path d="M599.838 614.515H423.574" stroke="white" stroke-width="1.5"/>
<path d="M255.699 303.5V289.5H263.979C264.449 289.5 264.819 289.87 264.819 290.34V290.41C264.819 290.88 264.449 291.25 263.979 291.25H257.539V295.52H261.489C261.959 295.52 262.329 295.88 262.329 296.36V296.42C262.329 296.9 261.959 297.27 261.489 297.27H257.539V301.75H263.979C264.449 301.75 264.819 302.12 264.819 302.59V302.66C264.819 303.13 264.449 303.5 263.979 303.5H255.699ZM268.681 303.5C268.161 303.5 267.781 303.13 267.781 302.64V289.5H269.751L274.861 299.77V290.36C274.861 289.87 275.251 289.5 275.761 289.5H275.801C276.341 289.5 276.701 289.87 276.701 290.36V303.5H274.731L269.621 293.23V302.64C269.621 303.13 269.251 303.5 268.721 303.5H268.681ZM284.093 303.5C282.853 303.5 282.263 302.78 281.793 301.94L279.993 298.7C279.523 297.86 279.413 297.24 279.413 296.5C279.413 295.76 279.523 295.14 279.993 294.3L281.793 291.06C282.263 290.22 282.853 289.5 284.093 289.5H287.533C288.013 289.5 288.373 289.87 288.373 290.34V290.41C288.373 290.88 288.013 291.25 287.533 291.25H284.373C283.953 291.25 283.713 291.35 283.323 292.05L281.683 294.99C281.383 295.53 281.263 295.95 281.263 296.5C281.263 297.05 281.383 297.47 281.683 298.01L283.323 300.95C283.713 301.65 283.953 301.75 284.373 301.75H287.533C288.013 301.75 288.373 302.12 288.373 302.59V302.66C288.373 303.13 288.013 303.5 287.533 303.5H284.093ZM292.375 303.5C291.865 303.5 291.445 303.17 291.445 302.55V289.5H298.045C299.965 289.5 301.005 290.48 301.005 292.57V293.43C301.005 295.52 299.945 296.43 298.025 296.43H296.58L300.535 301.95C300.705 302.185 300.785 302.405 300.785 302.607C300.785 302.842 300.678 303.057 300.485 303.25C300.315 303.42 300.075 303.508 299.833 303.508C299.56 303.508 299.285 303.395 299.115 303.15L294.385 296.43H293.285V302.55C293.285 303.15 292.915 303.5 292.405 303.5H292.375ZM297.825 294.69C298.755 294.69 299.155 294.45 299.155 293.55V292.46C299.155 291.56 298.785 291.25 297.835 291.25H293.285V294.69H297.825ZM308.157 303.5C307.607 303.5 307.257 303.15 307.257 302.58V297.29L303.707 292.31V290.42C303.707 289.88 304.037 289.5 304.607 289.5H304.647C305.177 289.5 305.547 289.83 305.547 290.42V291.94L308.177 295.7H308.217L310.887 291.94V290.42C310.887 289.83 311.257 289.5 311.787 289.5H311.827C312.397 289.5 312.727 289.88 312.727 290.42V292.31L309.097 297.29V302.58C309.097 303.12 308.747 303.5 308.197 303.5H308.157ZM316.149 303.5C315.629 303.5 315.269 303.15 315.269 302.55V289.5H322.249C323.879 289.5 325.149 290.58 325.149 292.34V293.54C325.149 295.32 323.799 296.24 322.239 296.24H317.109V302.55C317.109 303.15 316.749 303.5 316.229 303.5H316.149ZM322.089 294.51C322.819 294.51 323.289 294.28 323.289 293.51V292.31C323.289 291.55 322.849 291.25 322.119 291.25H317.109V294.51H322.089ZM332.182 303.5C331.662 303.5 331.282 303.13 331.282 302.64V291.25H328.022C327.552 291.25 327.182 290.88 327.182 290.41V290.34C327.182 289.87 327.552 289.5 328.022 289.5H336.382C336.852 289.5 337.222 289.87 337.222 290.34V290.41C337.222 290.88 336.852 291.25 336.382 291.25H333.122V302.64C333.122 303.13 332.752 303.5 332.222 303.5H332.182ZM339.644 303.5V289.5H347.924C348.394 289.5 348.764 289.87 348.764 290.34V290.41C348.764 290.88 348.394 291.25 347.924 291.25H341.484V295.52H345.434C345.904 295.52 346.274 295.88 346.274 296.36V296.42C346.274 296.9 345.904 297.27 345.434 297.27H341.484V301.75H347.924C348.394 301.75 348.764 302.12 348.764 302.59V302.66C348.764 303.13 348.394 303.5 347.924 303.5H339.644ZM352.796 303.5C352.316 303.5 351.956 303.14 351.956 302.66V290.34C351.956 289.86 352.316 289.5 352.796 289.5H356.646C357.886 289.5 358.456 290.23 358.946 291.06L360.796 294.17C361.246 294.927 361.389 295.475 361.389 296.215C361.389 296.265 361.389 296.317 361.386 296.37C361.366 297.19 361.246 297.76 360.796 298.58L358.946 301.94C358.486 302.77 357.886 303.5 356.646 303.5H352.796ZM356.476 301.75C357.076 301.75 357.226 301.49 357.506 300.96L359.106 297.93C359.396 297.38 359.546 297.01 359.546 296.37C359.546 295.73 359.416 295.35 359.106 294.81L357.506 292.04C357.206 291.52 357.076 291.25 356.476 291.25H353.796V301.75H356.476ZM286.839 325.5C286.359 325.5 285.999 325.14 285.999 324.66V312.34C285.999 311.86 286.359 311.5 286.839 311.5H290.689C291.929 311.5 292.499 312.23 292.989 313.06L294.839 316.17C295.289 316.927 295.432 317.475 295.432 318.215C295.432 318.265 295.432 318.317 295.429 318.37C295.409 319.19 295.289 319.76 294.839 320.58L292.989 323.94C292.529 324.77 291.929 325.5 290.689 325.5H286.839ZM290.519 323.75C291.119 323.75 291.269 323.49 291.549 322.96L293.149 319.93C293.439 319.38 293.589 319.01 293.589 318.37C293.589 317.73 293.459 317.35 293.149 316.81L291.549 314.04C291.249 313.52 291.119 313.25 290.519 313.25H287.839V323.75H290.519ZM298.101 325.5C297.489 325.5 297.184 325.135 297.184 324.615C297.184 324.472 297.206 324.32 297.251 324.16L300.431 312.89C300.661 312.06 301.271 311.49 302.121 311.49C302.931 311.49 303.541 312.06 303.791 312.89L307.191 324.19C307.236 324.337 307.256 324.48 307.256 324.61C307.256 325.135 306.916 325.5 306.341 325.5H306.281C305.871 325.5 305.561 325.31 305.431 324.87L304.711 322.53H299.661L298.981 324.91C298.861 325.32 298.541 325.5 298.161 325.5H298.101ZM300.091 320.78H304.231L302.141 313.58H302.081L300.091 320.78ZM314.193 325.5C313.673 325.5 313.293 325.13 313.293 324.64V313.25H310.033C309.563 313.25 309.193 312.88 309.193 312.41V312.34C309.193 311.87 309.563 311.5 310.033 311.5H318.393C318.863 311.5 319.233 311.87 319.233 312.34V312.41C319.233 312.88 318.863 313.25 318.393 313.25H315.133V324.64C315.133 325.13 314.763 325.5 314.233 325.5H314.193ZM322.086 325.5C321.473 325.5 321.168 325.135 321.168 324.615C321.168 324.472 321.191 324.32 321.236 324.16L324.416 312.89C324.646 312.06 325.256 311.49 326.106 311.49C326.916 311.49 327.526 312.06 327.776 312.89L331.176 324.19C331.221 324.337 331.241 324.48 331.241 324.61C331.241 325.135 330.901 325.5 330.326 325.5H330.266C329.856 325.5 329.546 325.31 329.416 324.87L328.696 322.53H323.646L322.966 324.91C322.846 325.32 322.526 325.5 322.146 325.5H322.086ZM324.076 320.78H328.216L326.126 313.58H326.066L324.076 320.78Z" fill="#96FF5E"/>
<path d="M268.851 518.88C268.371 518.88 268.011 518.52 268.011 518.04V505.72C268.011 505.24 268.371 504.88 268.851 504.88H272.701C273.941 504.88 274.511 505.61 275.001 506.44L276.851 509.55C277.301 510.307 277.443 510.855 277.443 511.595C277.443 511.645 277.443 511.697 277.441 511.75C277.421 512.57 277.301 513.14 276.851 513.96L275.001 517.32C274.541 518.15 273.941 518.88 272.701 518.88H268.851ZM272.531 517.13C273.131 517.13 273.281 516.87 273.561 516.34L275.161 513.31C275.451 512.76 275.601 512.39 275.601 511.75C275.601 511.11 275.471 510.73 275.161 510.19L273.561 507.42C273.261 506.9 273.131 506.63 272.531 506.63H269.851V517.13H272.531ZM280.383 518.88C279.873 518.88 279.453 518.55 279.453 517.93V504.88H286.053C287.973 504.88 289.013 505.86 289.013 507.95V508.81C289.013 510.9 287.953 511.81 286.033 511.81H284.588L288.543 517.33C288.713 517.565 288.793 517.785 288.793 517.987C288.793 518.222 288.685 518.437 288.493 518.63C288.323 518.8 288.083 518.887 287.84 518.887C287.568 518.887 287.293 518.775 287.123 518.53L282.393 511.81H281.293V517.93C281.293 518.53 280.923 518.88 280.413 518.88H280.383ZM285.833 510.07C286.763 510.07 287.163 509.83 287.163 508.93V507.84C287.163 506.94 286.793 506.63 285.843 506.63H281.293V510.07H285.833ZM296.225 518.98C294.985 518.98 294.445 518.27 293.925 517.42L291.685 513.74C291.185 512.92 291.105 512.32 291.105 511.82C291.105 511.32 291.175 510.7 291.685 509.9L293.925 506.34C294.455 505.5 294.985 504.78 296.185 504.78H296.245C297.485 504.78 297.975 505.51 298.505 506.34L300.765 509.9C301.275 510.71 301.345 511.32 301.345 511.82C301.345 512.32 301.265 512.92 300.765 513.74L298.505 517.42C297.985 518.27 297.465 518.98 296.245 518.98H296.225ZM296.225 517.25C296.545 517.25 296.725 517.05 297.015 516.56L299.135 512.97C299.425 512.47 299.555 512.2 299.555 511.82C299.555 511.43 299.455 511.18 299.135 510.67L297.005 507.24C296.715 506.77 296.505 506.55 296.225 506.55H296.205C295.925 506.55 295.745 506.77 295.455 507.24L293.325 510.67C293.045 511.11 292.915 511.38 292.915 511.82C292.915 512.25 293.055 512.51 293.325 512.97L295.435 516.54C295.735 517.05 295.885 517.25 296.205 517.25H296.225ZM304.157 518.88C303.637 518.88 303.277 518.53 303.277 517.93V504.88H310.257C311.887 504.88 313.157 505.96 313.157 507.72V508.92C313.157 510.7 311.807 511.62 310.247 511.62H305.117V517.93C305.117 518.53 304.757 518.88 304.237 518.88H304.157ZM310.097 509.89C310.827 509.89 311.297 509.66 311.297 508.89V507.69C311.297 506.93 310.857 506.63 310.127 506.63H305.117V509.89H310.097ZM315.869 518.88V504.88H321.319C323.739 504.88 324.959 506.25 324.959 508.45V509.01C324.959 510.44 324.339 511.54 322.929 511.8C324.339 512.04 324.959 513.21 324.959 514.56V515.5C324.959 517.64 323.619 518.88 321.429 518.88H315.869ZM321.229 517.13C322.589 517.13 323.119 516.5 323.119 515.23V514.54C323.119 513.32 322.379 512.67 321.179 512.67H317.709V517.13H321.229ZM321.179 510.92C322.359 510.92 323.119 510.33 323.119 509.01V508.48C323.119 507.34 322.489 506.63 321.339 506.63H317.709V510.92H321.179ZM332.202 518.98C330.962 518.98 330.422 518.27 329.902 517.42L327.662 513.74C327.162 512.92 327.082 512.32 327.082 511.82C327.082 511.32 327.152 510.7 327.662 509.9L329.902 506.34C330.432 505.5 330.962 504.78 332.162 504.78H332.222C333.462 504.78 333.952 505.51 334.482 506.34L336.742 509.9C337.252 510.71 337.322 511.32 337.322 511.82C337.322 512.32 337.242 512.92 336.742 513.74L334.482 517.42C333.962 518.27 333.442 518.98 332.222 518.98H332.202ZM332.202 517.25C332.522 517.25 332.702 517.05 332.992 516.56L335.112 512.97C335.402 512.47 335.532 512.2 335.532 511.82C335.532 511.43 335.432 511.18 335.112 510.67L332.982 507.24C332.692 506.77 332.482 506.55 332.202 506.55H332.182C331.902 506.55 331.722 506.77 331.432 507.24L329.302 510.67C329.022 511.11 328.892 511.38 328.892 511.82C328.892 512.25 329.032 512.51 329.302 512.97L331.412 516.54C331.712 517.05 331.862 517.25 332.182 517.25H332.202ZM340.004 518.83C339.736 518.667 339.586 518.422 339.586 518.132C339.586 517.955 339.641 517.76 339.764 517.56L343.154 511.87L339.704 506.09C339.624 505.955 339.589 505.817 339.589 505.682C339.589 505.392 339.751 505.12 340.004 504.95C340.174 504.837 340.349 504.785 340.514 504.785C340.811 504.785 341.079 504.952 341.234 505.21L344.174 510.14L347.114 505.21C347.269 504.952 347.534 504.79 347.834 504.79C347.999 504.79 348.174 504.84 348.344 504.95C348.596 505.112 348.759 505.387 348.759 505.68C348.759 505.815 348.724 505.955 348.644 506.09L345.194 511.87L348.584 517.56C348.701 517.757 348.756 517.952 348.756 518.13C348.756 518.42 348.611 518.67 348.344 518.83C348.181 518.927 348.019 518.975 347.866 518.975C347.551 518.975 347.269 518.777 347.054 518.42L344.174 513.59L341.294 518.42C341.079 518.777 340.796 518.975 340.481 518.975C340.329 518.975 340.166 518.927 340.004 518.83Z" fill="white"/>
<path d="M256.119 111.008C255.639 111.008 255.279 110.638 255.279 110.168V110.098C255.279 109.628 255.639 109.258 256.119 109.258H261.909C262.429 109.258 262.739 109.028 262.739 108.628C262.739 108.298 262.449 107.838 261.519 106.798L257.419 102.228C256.119 100.778 255.569 100.058 255.569 99.1878C255.569 97.7578 256.569 97.0078 258.169 97.0078H263.499C263.979 97.0078 264.339 97.3778 264.339 97.8578V97.9078C264.339 98.3878 263.979 98.7578 263.499 98.7578H258.549C258.089 98.7578 257.679 98.9078 257.679 99.3778C257.679 99.6478 257.969 100.038 258.909 101.098L262.989 105.668C264.279 107.118 264.869 107.888 264.869 108.788C264.869 110.118 263.849 111.008 262.339 111.008H256.119ZM268.081 111.008C267.601 111.008 267.241 110.658 267.241 110.128V110.088C267.241 109.608 267.601 109.258 268.081 109.258H274.801C274.921 109.258 274.991 109.158 274.991 109.078V105.878C274.991 105.188 274.571 104.968 273.891 104.968H270.551C270.071 104.968 269.711 104.608 269.711 104.128V104.068C269.711 103.588 270.071 103.218 270.551 103.218H273.891C274.571 103.218 274.991 103.008 274.991 102.308V98.9378C274.991 98.8578 274.921 98.7578 274.801 98.7578H268.081C267.601 98.7578 267.241 98.4078 267.241 97.9278V97.8878C267.241 97.3578 267.601 97.0078 268.081 97.0078H274.831C275.931 97.0078 276.831 97.9078 276.831 99.0078V102.308C276.831 103.048 276.541 103.848 275.551 104.108C276.541 104.348 276.831 105.128 276.831 105.868V109.008C276.831 110.108 275.931 111.008 274.831 111.008H268.081ZM291.885 111.008V97.0078H297.335C299.755 97.0078 300.975 98.3778 300.975 100.578V101.138C300.975 102.568 300.355 103.668 298.945 103.928C300.355 104.168 300.975 105.338 300.975 106.688V107.628C300.975 109.768 299.635 111.008 297.445 111.008H291.885ZM297.245 109.258C298.605 109.258 299.135 108.628 299.135 107.358V106.668C299.135 105.448 298.395 104.798 297.195 104.798H293.725V109.258H297.245ZM297.195 103.048C298.375 103.048 299.135 102.458 299.135 101.138V100.608C299.135 99.4678 298.505 98.7578 297.355 98.7578H293.725V103.048H297.195ZM305.397 111.008C304.317 111.008 303.507 110.188 303.507 109.118V97.9578C303.507 97.3378 303.907 97.0078 304.397 97.0078H304.447C304.957 97.0078 305.347 97.3378 305.347 97.9578V108.698C305.347 109.178 305.667 109.258 305.947 109.258H310.487C310.767 109.258 311.087 109.178 311.087 108.698V97.9578C311.087 97.3378 311.497 97.0078 311.987 97.0078H312.037C312.527 97.0078 312.927 97.3378 312.927 97.9578V109.118C312.927 110.188 312.117 111.008 311.037 111.008H305.397ZM320.069 111.008C318.829 111.008 318.239 110.288 317.769 109.448L315.969 106.208C315.499 105.368 315.389 104.748 315.389 104.008C315.389 103.268 315.499 102.648 315.969 101.808L317.769 98.5678C318.239 97.7278 318.829 97.0078 320.069 97.0078H323.509C323.989 97.0078 324.349 97.3778 324.349 97.8478V97.9178C324.349 98.3878 323.989 98.7578 323.509 98.7578H320.349C319.929 98.7578 319.689 98.8578 319.299 99.5578L317.659 102.498C317.359 103.038 317.239 103.458 317.239 104.008C317.239 104.558 317.359 104.978 317.659 105.518L319.299 108.458C319.689 109.158 319.929 109.258 320.349 109.258H323.509C323.989 109.258 324.349 109.628 324.349 110.098V110.168C324.349 110.638 323.989 111.008 323.509 111.008H320.069ZM337.022 110.708C336.812 110.913 336.587 111.003 336.367 111.003C336.117 111.003 335.874 110.885 335.672 110.688L329.862 105.078V110.148C329.862 110.638 329.492 111.008 328.962 111.008H328.922C328.412 111.008 328.022 110.638 328.022 110.148V97.8678C328.022 97.3778 328.412 97.0078 328.922 97.0078H328.962C329.482 97.0078 329.862 97.3778 329.862 97.8678V102.498L335.282 97.3378C335.482 97.1428 335.734 97.0203 335.992 97.0203C336.209 97.0203 336.432 97.1078 336.632 97.3078C336.797 97.4728 336.907 97.6953 336.907 97.9378C336.907 98.1628 336.809 98.4053 336.572 98.6278L331.162 103.788L337.002 109.438C337.214 109.645 337.302 109.87 337.302 110.083C337.302 110.32 337.192 110.543 337.022 110.708ZM339.644 111.008V97.0078H347.924C348.394 97.0078 348.764 97.3778 348.764 97.8478V97.9178C348.764 98.3878 348.394 98.7578 347.924 98.7578H341.484V103.028H345.434C345.904 103.028 346.274 103.388 346.274 103.868V103.928C346.274 104.408 345.904 104.778 345.434 104.778H341.484V109.258H347.924C348.394 109.258 348.764 109.628 348.764 110.098V110.168C348.764 110.638 348.394 111.008 347.924 111.008H339.644ZM356.166 111.008C355.646 111.008 355.266 110.638 355.266 110.148V98.7578H352.006C351.536 98.7578 351.166 98.3878 351.166 97.9178V97.8478C351.166 97.3778 351.536 97.0078 352.006 97.0078H360.366C360.836 97.0078 361.206 97.3778 361.206 97.8478V97.9178C361.206 98.3878 360.836 98.7578 360.366 98.7578H357.106V110.148C357.106 110.638 356.736 111.008 356.206 111.008H356.166Z" fill="white"/>
<path d="M68.7485 111.108C67.5085 111.108 66.9685 110.398 66.4485 109.548L64.2085 105.868C63.7085 105.048 63.6285 104.448 63.6285 103.948C63.6285 103.448 63.6985 102.828 64.2085 102.028L66.4485 98.4678C66.9785 97.6278 67.5085 96.9078 68.7085 96.9078H68.7685C70.0085 96.9078 70.4985 97.6378 71.0285 98.4678L73.2885 102.028C73.7985 102.838 73.8685 103.448 73.8685 103.948C73.8685 104.448 73.7885 105.048 73.2885 105.868L71.0285 109.548C70.5085 110.398 69.9885 111.108 68.7685 111.108H68.7485ZM68.7485 109.378C69.0685 109.378 69.2485 109.178 69.5385 108.688L71.6585 105.098C71.9485 104.598 72.0785 104.328 72.0785 103.948C72.0785 103.558 71.9785 103.308 71.6585 102.798L69.5285 99.3678C69.2385 98.8978 69.0285 98.6778 68.7485 98.6778H68.7285C68.4485 98.6778 68.2685 98.8978 67.9785 99.3678L65.8485 102.798C65.5685 103.238 65.4385 103.508 65.4385 103.948C65.4385 104.378 65.5785 104.638 65.8485 105.098L67.9585 108.668C68.2585 109.178 68.4085 109.378 68.7285 109.378H68.7485ZM76.8907 111.008C76.3807 111.008 75.9607 110.678 75.9607 110.058V97.0078H82.5607C84.4807 97.0078 85.5207 97.9878 85.5207 100.078V100.938C85.5207 103.028 84.4607 103.938 82.5407 103.938H81.0957L85.0507 109.458C85.2207 109.693 85.3007 109.913 85.3007 110.115C85.3007 110.35 85.1932 110.565 85.0007 110.758C84.8307 110.928 84.5907 111.015 84.3482 111.015C84.0757 111.015 83.8007 110.903 83.6307 110.658L78.9007 103.938H77.8007V110.058C77.8007 110.658 77.4307 111.008 76.9207 111.008H76.8907ZM82.3407 102.198C83.2707 102.198 83.6707 101.958 83.6707 101.058V99.9678C83.6707 99.0678 83.3007 98.7578 82.3507 98.7578H77.8007V102.198H82.3407ZM88.3929 111.008V97.0078H93.8429C96.2629 97.0078 97.4829 98.3778 97.4829 100.578V101.138C97.4829 102.568 96.8629 103.668 95.4529 103.928C96.8629 104.168 97.4829 105.338 97.4829 106.688V107.628C97.4829 109.768 96.1429 111.008 93.9529 111.008H88.3929ZM93.7529 109.258C95.1129 109.258 95.6429 108.628 95.6429 107.358V106.668C95.6429 105.448 94.9029 104.798 93.7029 104.798H90.2329V109.258H93.7529ZM93.7029 103.048C94.8829 103.048 95.6429 102.458 95.6429 101.138V100.608C95.6429 99.4678 95.0129 98.7578 93.8629 98.7578H90.2329V103.048H93.7029ZM100.615 111.008C100.145 111.008 99.7751 110.638 99.7751 110.168V110.098C99.7751 109.628 100.145 109.258 100.615 109.258H103.785V98.7578H100.615C100.145 98.7578 99.7751 98.3878 99.7751 97.9178V97.8478C99.7751 97.3778 100.145 97.0078 100.615 97.0078H108.835C109.315 97.0078 109.675 97.3778 109.675 97.8478V97.9178C109.675 98.3878 109.315 98.7578 108.835 98.7578H105.625V109.258H108.835C109.315 109.258 109.675 109.628 109.675 110.098V110.168C109.675 110.638 109.315 111.008 108.835 111.008H100.615ZM112.587 111.008C112.107 111.008 111.747 110.638 111.747 110.168V110.098C111.747 109.628 112.107 109.258 112.587 109.258H118.377C118.897 109.258 119.207 109.028 119.207 108.628C119.207 108.298 118.917 107.838 117.987 106.798L113.887 102.228C112.587 100.778 112.037 100.058 112.037 99.1878C112.037 97.7578 113.037 97.0078 114.637 97.0078H119.967C120.447 97.0078 120.807 97.3778 120.807 97.8578V97.9078C120.807 98.3878 120.447 98.7578 119.967 98.7578H115.017C114.557 98.7578 114.147 98.9078 114.147 99.3778C114.147 99.6478 114.437 100.038 115.377 101.098L119.457 105.668C120.747 107.118 121.337 107.888 121.337 108.788C121.337 110.118 120.317 111.008 118.807 111.008H112.587ZM125.319 111.008C124.839 111.008 124.479 110.648 124.479 110.168V97.8478C124.479 97.3678 124.839 97.0078 125.319 97.0078H129.169C130.409 97.0078 130.979 97.7378 131.469 98.5678L133.319 101.678C133.769 102.435 133.912 102.983 133.912 103.723C133.912 103.773 133.912 103.825 133.909 103.878C133.889 104.698 133.769 105.268 133.319 106.088L131.469 109.448C131.009 110.278 130.409 111.008 129.169 111.008H125.319ZM128.999 109.258C129.599 109.258 129.749 108.998 130.029 108.468L131.629 105.438C131.919 104.888 132.069 104.518 132.069 103.878C132.069 103.238 131.939 102.858 131.629 102.318L130.029 99.5478C129.729 99.0278 129.599 98.7578 128.999 98.7578H126.319V109.258H128.999ZM136.362 111.008V97.0078H141.812C144.232 97.0078 145.452 98.3778 145.452 100.578V101.138C145.452 102.568 144.832 103.668 143.422 103.928C144.832 104.168 145.452 105.338 145.452 106.688V107.628C145.452 109.768 144.112 111.008 141.922 111.008H136.362ZM141.722 109.258C143.082 109.258 143.612 108.628 143.612 107.358V106.668C143.612 105.448 142.872 104.798 141.672 104.798H138.202V109.258H141.722ZM141.672 103.048C142.852 103.048 143.612 102.458 143.612 101.138V100.608C143.612 99.4678 142.982 98.7578 141.832 98.7578H138.202V103.048H141.672Z" fill="white"/>
<path d="M64.6285 314.5C64.016 314.5 63.711 314.135 63.711 313.615C63.711 313.472 63.7335 313.32 63.7785 313.16L66.9585 301.89C67.1885 301.06 67.7985 300.49 68.6485 300.49C69.4585 300.49 70.0685 301.06 70.3185 301.89L73.7185 313.19C73.7635 313.337 73.7835 313.48 73.7835 313.61C73.7835 314.135 73.4435 314.5 72.8685 314.5H72.8085C72.3985 314.5 72.0885 314.31 71.9585 313.87L71.2385 311.53H66.1885L65.5085 313.91C65.3885 314.32 65.0685 314.5 64.6885 314.5H64.6285ZM66.6185 309.78H70.7585L68.6685 302.58H68.6085L66.6185 309.78ZM76.8907 314.5C76.3807 314.5 75.9607 314.17 75.9607 313.55V300.5H82.5607C84.4807 300.5 85.5207 301.48 85.5207 303.57V304.43C85.5207 306.52 84.4607 307.43 82.5407 307.43H81.0957L85.0507 312.95C85.2207 313.185 85.3007 313.405 85.3007 313.607C85.3007 313.842 85.1932 314.057 85.0007 314.25C84.8307 314.42 84.5907 314.508 84.3482 314.508C84.0757 314.508 83.8007 314.395 83.6307 314.15L78.9007 307.43H77.8007V313.55C77.8007 314.15 77.4307 314.5 76.9207 314.5H76.8907ZM82.3407 305.69C83.2707 305.69 83.6707 305.45 83.6707 304.55V303.46C83.6707 302.56 83.3007 302.25 82.3507 302.25H77.8007V305.69H82.3407ZM88.7529 300.5H88.7929C89.3029 300.5 89.6929 300.87 89.6929 301.34V312.27L91.8529 309.14V308.22C91.8529 307.74 92.1929 307.38 92.7129 307.38H92.7529C93.2729 307.38 93.6129 307.74 93.6129 308.22V309.14L95.7729 312.27V301.34C95.7729 300.87 96.1629 300.5 96.6729 300.5H96.7129C97.2329 300.5 97.6129 300.87 97.6129 301.34V314.5H95.1329L92.7329 310.94L90.3129 314.5H87.8529V301.34C87.8529 300.87 88.2329 300.5 88.7529 300.5ZM100.175 314.5V300.5H108.455C108.925 300.5 109.295 300.87 109.295 301.34V301.41C109.295 301.88 108.925 302.25 108.455 302.25H102.015V306.52H105.965C106.435 306.52 106.805 306.88 106.805 307.36V307.42C106.805 307.9 106.435 308.27 105.965 308.27H102.015V312.75H108.455C108.925 312.75 109.295 313.12 109.295 313.59V313.66C109.295 314.13 108.925 314.5 108.455 314.5H100.175ZM112.597 314.5C111.985 314.5 111.68 314.135 111.68 313.615C111.68 313.472 111.702 313.32 111.747 313.16L114.927 301.89C115.157 301.06 115.767 300.49 116.617 300.49C117.427 300.49 118.037 301.06 118.287 301.89L121.687 313.19C121.732 313.337 121.752 313.48 121.752 313.61C121.752 314.135 121.412 314.5 120.837 314.5H120.777C120.367 314.5 120.057 314.31 119.927 313.87L119.207 311.53H114.157L113.477 313.91C113.357 314.32 113.037 314.5 112.657 314.5H112.597ZM114.587 309.78H118.727L116.637 302.58H116.577L114.587 309.78ZM128.709 314.5C128.189 314.5 127.689 314.17 127.399 313.45L123.969 305.03C123.809 304.64 123.789 304.51 123.789 304.14V301.36C123.789 300.88 124.179 300.5 124.659 300.5H124.769C125.249 300.5 125.619 300.88 125.619 301.36V304.03C125.619 304.41 125.659 304.59 125.789 304.92L128.559 312.03C128.639 312.24 128.659 312.29 128.709 312.41C128.759 312.29 128.779 312.24 128.859 312.03L131.629 304.91C131.759 304.58 131.799 304.41 131.799 304.03V301.36C131.799 300.88 132.169 300.5 132.649 300.5H132.759C133.239 300.5 133.629 300.88 133.629 301.36V304.14C133.629 304.51 133.609 304.64 133.449 305.03L130.039 313.45C129.749 314.17 129.229 314.5 128.709 314.5ZM136.152 314.5V300.5H144.432C144.902 300.5 145.272 300.87 145.272 301.34V301.41C145.272 301.88 144.902 302.25 144.432 302.25H137.992V306.52H141.942C142.412 306.52 142.782 306.88 142.782 307.36V307.42C142.782 307.9 142.412 308.27 141.942 308.27H137.992V312.75H144.432C144.902 312.75 145.272 313.12 145.272 313.59V313.66C145.272 314.13 144.902 314.5 144.432 314.5H136.152Z" fill="white"/>
<path d="M489.741 300.5H489.781C490.291 300.5 490.681 300.87 490.681 301.34V312.27L492.841 309.14V308.22C492.841 307.74 493.181 307.38 493.701 307.38H493.741C494.261 307.38 494.601 307.74 494.601 308.22V309.14L496.761 312.27V301.34C496.761 300.87 497.151 300.5 497.661 300.5H497.701C498.221 300.5 498.601 300.87 498.601 301.34V314.5H496.121L493.721 310.94L491.301 314.5H488.841V301.34C488.841 300.87 489.221 300.5 489.741 300.5ZM501.593 314.5C500.981 314.5 500.676 314.135 500.676 313.615C500.676 313.472 500.698 313.32 500.743 313.16L503.923 301.89C504.153 301.06 504.763 300.49 505.613 300.49C506.423 300.49 507.033 301.06 507.283 301.89L510.683 313.19C510.728 313.337 510.748 313.48 510.748 313.61C510.748 314.135 510.408 314.5 509.833 314.5H509.773C509.363 314.5 509.053 314.31 508.923 313.87L508.203 311.53H503.153L502.473 313.91C502.353 314.32 502.033 314.5 501.653 314.5H501.593ZM503.583 309.78H507.723L505.633 302.58H505.573L503.583 309.78ZM522.526 314.2C522.316 314.405 522.091 314.495 521.871 314.495C521.621 314.495 521.378 314.377 521.176 314.18L515.366 308.57V313.64C515.366 314.13 514.996 314.5 514.466 314.5H514.426C513.916 314.5 513.526 314.13 513.526 313.64V301.36C513.526 300.87 513.916 300.5 514.426 300.5H514.466C514.986 300.5 515.366 300.87 515.366 301.36V305.99L520.786 300.83C520.986 300.635 521.238 300.512 521.496 300.512C521.713 300.512 521.936 300.6 522.136 300.8C522.301 300.965 522.411 301.187 522.411 301.43C522.411 301.655 522.313 301.897 522.076 302.12L516.666 307.28L522.506 312.93C522.718 313.137 522.806 313.362 522.806 313.575C522.806 313.812 522.696 314.035 522.526 314.2ZM526.878 314.5C525.798 314.5 524.988 313.68 524.988 312.61V301.45C524.988 300.83 525.388 300.5 525.878 300.5H525.928C526.438 300.5 526.828 300.83 526.828 301.45V312.19C526.828 312.67 527.148 312.75 527.428 312.75H531.968C532.248 312.75 532.568 312.67 532.568 312.19V301.45C532.568 300.83 532.978 300.5 533.468 300.5H533.518C534.008 300.5 534.408 300.83 534.408 301.45V312.61C534.408 313.68 533.598 314.5 532.518 314.5H526.878Z" fill="white"/>
<path d="M460.181 518.88C459.661 518.88 459.281 518.51 459.281 518.02V504.88H461.251L466.361 515.15V505.74C466.361 505.25 466.751 504.88 467.261 504.88H467.301C467.841 504.88 468.201 505.25 468.201 505.74V518.88H466.231L461.121 508.61V518.02C461.121 518.51 460.751 518.88 460.221 518.88H460.181ZM471.183 518.88V504.88H479.463C479.933 504.88 480.303 505.25 480.303 505.72V505.79C480.303 506.26 479.933 506.63 479.463 506.63H473.023V510.9H476.973C477.443 510.9 477.813 511.26 477.813 511.74V511.8C477.813 512.28 477.443 512.65 476.973 512.65H473.023V517.13H479.463C479.933 517.13 480.303 517.5 480.303 517.97V518.04C480.303 518.51 479.933 518.88 479.463 518.88H471.183ZM483.535 518.83C483.268 518.667 483.118 518.422 483.118 518.132C483.118 517.955 483.173 517.76 483.295 517.56L486.685 511.87L483.235 506.09C483.155 505.955 483.12 505.817 483.12 505.682C483.12 505.392 483.283 505.12 483.535 504.95C483.705 504.837 483.88 504.785 484.045 504.785C484.343 504.785 484.61 504.952 484.765 505.21L487.705 510.14L490.645 505.21C490.8 504.952 491.065 504.79 491.365 504.79C491.53 504.79 491.705 504.84 491.875 504.95C492.128 505.112 492.29 505.387 492.29 505.68C492.29 505.815 492.255 505.955 492.175 506.09L488.725 511.87L492.115 517.56C492.233 517.757 492.288 517.952 492.288 518.13C492.288 518.42 492.143 518.67 491.875 518.83C491.713 518.927 491.55 518.975 491.398 518.975C491.083 518.975 490.8 518.777 490.585 518.42L487.705 513.59L484.825 518.42C484.61 518.777 484.328 518.975 484.013 518.975C483.86 518.975 483.698 518.927 483.535 518.83ZM499.697 518.88C499.177 518.88 498.797 518.51 498.797 518.02V506.63H495.537C495.067 506.63 494.697 506.26 494.697 505.79V505.72C494.697 505.25 495.067 504.88 495.537 504.88H503.897C504.367 504.88 504.737 505.25 504.737 505.72V505.79C504.737 506.26 504.367 506.63 503.897 506.63H500.637V518.02C500.637 518.51 500.267 518.88 499.737 518.88H499.697ZM511.569 518.88C510.329 518.88 509.739 518.16 509.269 517.32L507.469 514.08C506.999 513.24 506.889 512.62 506.889 511.88C506.889 511.14 506.999 510.52 507.469 509.68L509.269 506.44C509.739 505.6 510.329 504.88 511.569 504.88H515.009C515.489 504.88 515.849 505.25 515.849 505.72V505.79C515.849 506.26 515.489 506.63 515.009 506.63H511.849C511.429 506.63 511.189 506.73 510.799 507.43L509.159 510.37C508.859 510.91 508.739 511.33 508.739 511.88C508.739 512.43 508.859 512.85 509.159 513.39L510.799 516.33C511.189 517.03 511.429 517.13 511.849 517.13H515.009C515.489 517.13 515.849 517.5 515.849 517.97V518.04C515.849 518.51 515.489 518.88 515.009 518.88H511.569ZM519.562 505.74C519.562 505.24 519.942 504.88 520.452 504.88H520.502C521.012 504.88 521.402 505.24 521.402 505.74V517.13H527.602C528.082 517.13 528.442 517.5 528.442 517.97V518.04C528.442 518.51 528.082 518.88 527.602 518.88H519.562V505.74ZM535.694 518.98C534.454 518.98 533.914 518.27 533.394 517.42L531.154 513.74C530.654 512.92 530.574 512.32 530.574 511.82C530.574 511.32 530.644 510.7 531.154 509.9L533.394 506.34C533.924 505.5 534.454 504.78 535.654 504.78H535.714C536.954 504.78 537.444 505.51 537.974 506.34L540.234 509.9C540.744 510.71 540.814 511.32 540.814 511.82C540.814 512.32 540.734 512.92 540.234 513.74L537.974 517.42C537.454 518.27 536.934 518.98 535.714 518.98H535.694ZM535.694 517.25C536.014 517.25 536.194 517.05 536.484 516.56L538.604 512.97C538.894 512.47 539.024 512.2 539.024 511.82C539.024 511.43 538.924 511.18 538.604 510.67L536.474 507.24C536.184 506.77 535.974 506.55 535.694 506.55H535.674C535.394 506.55 535.214 506.77 534.924 507.24L532.794 510.67C532.514 511.11 532.384 511.38 532.384 511.82C532.384 512.25 532.524 512.51 532.794 512.97L534.904 516.54C535.204 517.05 535.354 517.25 535.674 517.25H535.694ZM544.866 518.88C543.786 518.88 542.976 518.06 542.976 516.99V505.83C542.976 505.21 543.376 504.88 543.866 504.88H543.916C544.426 504.88 544.816 505.21 544.816 505.83V516.57C544.816 517.05 545.136 517.13 545.416 517.13H549.956C550.236 517.13 550.556 517.05 550.556 516.57V505.83C550.556 505.21 550.966 504.88 551.456 504.88H551.506C551.996 504.88 552.396 505.21 552.396 505.83V516.99C552.396 518.06 551.586 518.88 550.506 518.88H544.866ZM556.288 518.88C555.808 518.88 555.448 518.52 555.448 518.04V505.72C555.448 505.24 555.808 504.88 556.288 504.88H560.138C561.378 504.88 561.948 505.61 562.438 506.44L564.288 509.55C564.738 510.307 564.881 510.855 564.881 511.595C564.881 511.645 564.881 511.697 564.878 511.75C564.858 512.57 564.738 513.14 564.288 513.96L562.438 517.32C561.978 518.15 561.378 518.88 560.138 518.88H556.288ZM559.968 517.13C560.568 517.13 560.718 516.87 560.998 516.34L562.598 513.31C562.888 512.76 563.038 512.39 563.038 511.75C563.038 511.11 562.908 510.73 562.598 510.19L560.998 507.42C560.698 506.9 560.568 506.63 559.968 506.63H557.288V517.13H559.968Z" fill="white"/>
<path d="M34.6381 518.88C34.1581 518.88 33.7981 518.51 33.7981 518.04V517.97C33.7981 517.5 34.1581 517.13 34.6381 517.13H40.4281C40.9481 517.13 41.2581 516.9 41.2581 516.5C41.2581 516.17 40.9681 515.71 40.0381 514.67L35.9381 510.1C34.6381 508.65 34.0881 507.93 34.0881 507.06C34.0881 505.63 35.0881 504.88 36.6881 504.88H42.0181C42.4981 504.88 42.8581 505.25 42.8581 505.73V505.78C42.8581 506.26 42.4981 506.63 42.0181 506.63H37.0681C36.6081 506.63 36.1981 506.78 36.1981 507.25C36.1981 507.52 36.4881 507.91 37.4281 508.97L41.5081 513.54C42.7981 514.99 43.3881 515.76 43.3881 516.66C43.3881 517.99 42.3681 518.88 40.8581 518.88H34.6381ZM46.6503 518.88C46.1803 518.88 45.8103 518.51 45.8103 518.04V517.97C45.8103 517.5 46.1803 517.13 46.6503 517.13H49.8203V506.63H46.6503C46.1803 506.63 45.8103 506.26 45.8103 505.79V505.72C45.8103 505.25 46.1803 504.88 46.6503 504.88H54.8703C55.3503 504.88 55.7103 505.25 55.7103 505.72V505.79C55.7103 506.26 55.3503 506.63 54.8703 506.63H51.6603V517.13H54.8703C55.3503 517.13 55.7103 517.5 55.7103 517.97V518.04C55.7103 518.51 55.3503 518.88 54.8703 518.88H46.6503ZM59.3624 518.88C58.8824 518.88 58.5224 518.52 58.5224 518.04V505.72C58.5224 505.24 58.8824 504.88 59.3624 504.88H63.2124C64.4524 504.88 65.0224 505.61 65.5124 506.44L67.3624 509.55C67.8124 510.307 67.9549 510.855 67.9549 511.595C67.9549 511.645 67.9549 511.697 67.9524 511.75C67.9324 512.57 67.8124 513.14 67.3624 513.96L65.5124 517.32C65.0524 518.15 64.4524 518.88 63.2124 518.88H59.3624ZM63.0424 517.13C63.6424 517.13 63.7924 516.87 64.0724 516.34L65.6724 513.31C65.9624 512.76 66.1124 512.39 66.1124 511.75C66.1124 511.11 65.9824 510.73 65.6724 510.19L64.0724 507.42C63.7724 506.9 63.6424 506.63 63.0424 506.63H60.3624V517.13H63.0424ZM70.1946 518.88V504.88H78.4746C78.9446 504.88 79.3146 505.25 79.3146 505.72V505.79C79.3146 506.26 78.9446 506.63 78.4746 506.63H72.0346V510.9H75.9846C76.4546 510.9 76.8246 511.26 76.8246 511.74V511.8C76.8246 512.28 76.4546 512.65 75.9846 512.65H72.0346V517.13H78.4746C78.9446 517.13 79.3146 517.5 79.3146 517.97V518.04C79.3146 518.51 78.9446 518.88 78.4746 518.88H70.1946ZM98.589 518.88C97.349 518.88 96.759 518.16 96.289 517.32L94.489 514.08C94.019 513.24 93.909 512.62 93.909 511.88C93.909 511.14 94.019 510.52 94.489 509.68L96.289 506.44C96.759 505.6 97.349 504.88 98.589 504.88H102.029C102.509 504.88 102.869 505.25 102.869 505.72V505.79C102.869 506.26 102.509 506.63 102.029 506.63H98.869C98.449 506.63 98.209 506.73 97.819 507.43L96.179 510.37C95.879 510.91 95.759 511.33 95.759 511.88C95.759 512.43 95.879 512.85 96.179 513.39L97.819 516.33C98.209 517.03 98.449 517.13 98.869 517.13H102.029C102.509 517.13 102.869 517.5 102.869 517.97V518.04C102.869 518.51 102.509 518.88 102.029 518.88H98.589ZM106.841 518.88C106.331 518.88 105.951 518.51 105.951 518.02V505.74C105.951 505.25 106.331 504.88 106.841 504.88H106.891C107.401 504.88 107.791 505.25 107.791 505.74V510.9H113.651V505.74C113.651 505.25 114.041 504.88 114.551 504.88H114.601C115.111 504.88 115.491 505.25 115.491 505.74V518.02C115.491 518.51 115.131 518.88 114.601 518.88H114.551C114.041 518.88 113.651 518.51 113.651 518.02V512.65H107.791V518.02C107.791 518.51 107.421 518.88 106.891 518.88H106.841ZM118.593 518.88C117.981 518.88 117.676 518.515 117.676 517.995C117.676 517.852 117.698 517.7 117.743 517.54L120.923 506.27C121.153 505.44 121.763 504.87 122.613 504.87C123.423 504.87 124.033 505.44 124.283 506.27L127.683 517.57C127.728 517.717 127.748 517.86 127.748 517.99C127.748 518.515 127.408 518.88 126.833 518.88H126.773C126.363 518.88 126.053 518.69 125.923 518.25L125.203 515.91H120.153L119.473 518.29C119.353 518.7 119.033 518.88 118.653 518.88H118.593ZM120.583 514.16H124.723L122.633 506.96H122.573L120.583 514.16ZM131.146 518.88C130.626 518.88 130.246 518.51 130.246 518.02V504.88H132.216L137.326 515.15V505.74C137.326 505.25 137.716 504.88 138.226 504.88H138.266C138.806 504.88 139.166 505.25 139.166 505.74V518.88H137.196L132.086 508.61V518.02C132.086 518.51 131.716 518.88 131.186 518.88H131.146ZM143.138 518.88C142.618 518.88 142.238 518.51 142.238 518.02V504.88H144.208L149.318 515.15V505.74C149.318 505.25 149.708 504.88 150.218 504.88H150.258C150.798 504.88 151.158 505.25 151.158 505.74V518.88H149.188L144.078 508.61V518.02C144.078 518.51 143.708 518.88 143.178 518.88H143.138ZM154.14 518.88V504.88H162.42C162.89 504.88 163.26 505.25 163.26 505.72V505.79C163.26 506.26 162.89 506.63 162.42 506.63H155.98V510.9H159.93C160.4 510.9 160.77 511.26 160.77 511.74V511.8C160.77 512.28 160.4 512.65 159.93 512.65H155.98V517.13H162.42C162.89 517.13 163.26 517.5 163.26 517.97V518.04C163.26 518.51 162.89 518.88 162.42 518.88H154.14ZM166.542 505.74C166.542 505.24 166.922 504.88 167.432 504.88H167.482C167.992 504.88 168.382 505.24 168.382 505.74V517.13H174.582C175.062 517.13 175.422 517.5 175.422 517.97V518.04C175.422 518.51 175.062 518.88 174.582 518.88H166.542V505.74Z" fill="white"/>
<path d="M490.5 111.008C490.03 111.008 489.66 110.638 489.66 110.168V110.098C489.66 109.628 490.03 109.258 490.5 109.258H493.67V98.7578H490.5C490.03 98.7578 489.66 98.3878 489.66 97.9178V97.8478C489.66 97.3778 490.03 97.0078 490.5 97.0078H498.72C499.2 97.0078 499.56 97.3778 499.56 97.8478V97.9178C499.56 98.3878 499.2 98.7578 498.72 98.7578H495.51V109.258H498.72C499.2 109.258 499.56 109.628 499.56 110.098V110.168C499.56 110.638 499.2 111.008 498.72 111.008H490.5ZM502.542 111.008C502.022 111.008 501.662 110.658 501.662 110.058V97.0078H508.642C510.272 97.0078 511.542 98.0878 511.542 99.8478V101.048C511.542 102.828 510.192 103.748 508.632 103.748H503.502V110.058C503.502 110.658 503.142 111.008 502.622 111.008H502.542ZM508.482 102.018C509.212 102.018 509.682 101.788 509.682 101.018V99.8178C509.682 99.0578 509.242 98.7578 508.512 98.7578H503.502V102.018H508.482ZM515.884 111.008C515.314 111.008 514.994 110.648 514.994 110.098V97.0078H523.244C523.724 97.0078 524.094 97.3778 524.094 97.8478V97.9178C524.094 98.3878 523.724 98.7578 523.244 98.7578H516.834V101.928H521.844C522.324 101.928 522.694 102.298 522.694 102.768V102.838C522.694 103.308 522.324 103.678 521.844 103.678H516.834V110.098C516.834 110.628 516.504 111.008 515.914 111.008H515.884ZM526.456 111.008C525.976 111.008 525.616 110.638 525.616 110.168V110.098C525.616 109.628 525.976 109.258 526.456 109.258H532.246C532.766 109.258 533.076 109.028 533.076 108.628C533.076 108.298 532.786 107.838 531.856 106.798L527.756 102.228C526.456 100.778 525.906 100.058 525.906 99.1878C525.906 97.7578 526.906 97.0078 528.506 97.0078H533.836C534.316 97.0078 534.676 97.3778 534.676 97.8578V97.9078C534.676 98.3878 534.316 98.7578 533.836 98.7578H528.886C528.426 98.7578 528.016 98.9078 528.016 99.3778C528.016 99.6478 528.306 100.038 529.246 101.098L533.326 105.668C534.616 107.118 535.206 107.888 535.206 108.788C535.206 110.118 534.186 111.008 532.676 111.008H526.456Z" fill="white"/>
<path d="M203.02 208.671V202.307H209.384M203.462 202.749L209.915 209.201" stroke="#96FF5E" stroke-width="1.5" stroke-miterlimit="10" stroke-linecap="square"/>
<path d="M203.02 406.329V412.693H209.384M203.462 412.251L209.915 405.799" stroke="#96FF5E" stroke-width="1.5" stroke-miterlimit="10" stroke-linecap="square"/>
<path d="M407.043 202.307L413.407 202.307L413.407 208.671M412.965 202.749L406.513 209.201" stroke="#96FF5E" stroke-width="1.5" stroke-miterlimit="10" stroke-linecap="square"/>
<path d="M407.043 412.693L413.407 412.693L413.407 406.329M412.965 412.251L406.513 405.799" stroke="#96FF5E" stroke-width="1.5" stroke-miterlimit="10" stroke-linecap="square"/>
</g>
<defs>
<clipPath id="clip0_96_344">
<rect width="615" height="615" fill="white" transform="translate(0.713379)"/>
</clipPath>
</defs>
</svg>
