<svg width="616" height="615" viewBox="0 0 616 615" fill="none" xmlns="http://www.w3.org/2000/svg">
<g clip-path="url(#clip0_1750_440)">
<path d="M8.26221 22.4988V592.498" stroke="white" stroke-width="1.5"/>
<path d="M608.344 22.4988V592.498" stroke="white" stroke-width="1.5"/>
<path d="M8.26221 14.7349V-0.000244141" stroke="#96FF5E" stroke-width="1.5"/>
<path d="M15.6317 7.36597H0.896484" stroke="#96FF5E" stroke-width="1.5"/>
<path d="M8.2627 615V600.265" stroke="#96FF5E" stroke-width="1.5"/>
<path d="M15.6317 607.631H0.896484" stroke="#96FF5E" stroke-width="1.5"/>
<path d="M608.534 14.7347V-0.000488281" stroke="#96FF5E" stroke-width="1.5"/>
<path d="M615.713 7.36572H600.978" stroke="#96FF5E" stroke-width="1.5"/>
<path d="M608.534 615V600.265" stroke="#96FF5E" stroke-width="1.5"/>
<path d="M615.713 607.631H600.978" stroke="#96FF5E" stroke-width="1.5"/>
<path d="M593.303 7.45752H23.3037" stroke="white" stroke-width="1.5"/>
<path d="M593.303 607.539H23.3037" stroke="white" stroke-width="1.5"/>
<path d="M235.966 314.5C235.446 314.5 235.086 314.15 235.086 313.55V300.5H242.066C243.696 300.5 244.966 301.58 244.966 303.34V304.54C244.966 306.32 243.616 307.24 242.056 307.24H236.926V313.55C236.926 314.15 236.566 314.5 236.046 314.5H235.966ZM241.906 305.51C242.636 305.51 243.106 305.28 243.106 304.51V303.31C243.106 302.55 242.666 302.25 241.936 302.25H236.926V305.51H241.906ZM249.199 314.5C248.119 314.5 247.309 313.68 247.309 312.61V301.45C247.309 300.83 247.709 300.5 248.199 300.5H248.249C248.759 300.5 249.149 300.83 249.149 301.45V312.19C249.149 312.67 249.469 312.75 249.749 312.75H254.289C254.569 312.75 254.889 312.67 254.889 312.19V301.45C254.889 300.83 255.299 300.5 255.789 300.5H255.839C256.329 300.5 256.729 300.83 256.729 301.45V312.61C256.729 313.68 255.919 314.5 254.839 314.5H249.199ZM259.671 314.5V300.5H265.121C267.541 300.5 268.761 301.87 268.761 304.07V304.63C268.761 306.06 268.141 307.16 266.731 307.42C268.141 307.66 268.761 308.83 268.761 310.18V311.12C268.761 313.26 267.421 314.5 265.231 314.5H259.671ZM265.031 312.75C266.391 312.75 266.921 312.12 266.921 310.85V310.16C266.921 308.94 266.181 308.29 264.981 308.29H261.511V312.75H265.031ZM264.981 306.54C266.161 306.54 266.921 305.95 266.921 304.63V304.1C266.921 302.96 266.291 302.25 265.141 302.25H261.511V306.54H264.981ZM271.863 301.36C271.863 300.86 272.243 300.5 272.753 300.5H272.803C273.313 300.5 273.703 300.86 273.703 301.36V312.75H279.903C280.383 312.75 280.743 313.12 280.743 313.59V313.66C280.743 314.13 280.383 314.5 279.903 314.5H271.863V301.36ZM283.885 314.5C283.415 314.5 283.045 314.13 283.045 313.66V313.59C283.045 313.12 283.415 312.75 283.885 312.75H287.055V302.25H283.885C283.415 302.25 283.045 301.88 283.045 301.41V301.34C283.045 300.87 283.415 300.5 283.885 300.5H292.105C292.585 300.5 292.945 300.87 292.945 301.34V301.41C292.945 301.88 292.585 302.25 292.105 302.25H288.895V312.75H292.105C292.585 312.75 292.945 313.12 292.945 313.59V313.66C292.945 314.13 292.585 314.5 292.105 314.5H283.885ZM299.847 314.5C298.607 314.5 298.017 313.78 297.547 312.94L295.747 309.7C295.277 308.86 295.167 308.24 295.167 307.5C295.167 306.76 295.277 306.14 295.747 305.3L297.547 302.06C298.017 301.22 298.607 300.5 299.847 300.5H303.287C303.767 300.5 304.127 300.87 304.127 301.34V301.41C304.127 301.88 303.767 302.25 303.287 302.25H300.127C299.707 302.25 299.467 302.35 299.077 303.05L297.437 305.99C297.137 306.53 297.017 306.95 297.017 307.5C297.017 308.05 297.137 308.47 297.437 309.01L299.077 311.95C299.467 312.65 299.707 312.75 300.127 312.75H303.287C303.767 312.75 304.127 313.12 304.127 313.59V313.66C304.127 314.13 303.767 314.5 303.287 314.5H299.847ZM328.792 314.2C328.582 314.405 328.357 314.495 328.137 314.495C327.887 314.495 327.644 314.377 327.442 314.18L321.632 308.57V313.64C321.632 314.13 321.262 314.5 320.732 314.5H320.692C320.182 314.5 319.792 314.13 319.792 313.64V301.36C319.792 300.87 320.182 300.5 320.692 300.5H320.732C321.252 300.5 321.632 300.87 321.632 301.36V305.99L327.052 300.83C327.252 300.635 327.504 300.512 327.762 300.512C327.979 300.512 328.202 300.6 328.402 300.8C328.567 300.965 328.677 301.187 328.677 301.43C328.677 301.655 328.579 301.897 328.342 302.12L322.932 307.28L328.772 312.93C328.984 313.137 329.072 313.362 329.072 313.575C329.072 313.812 328.962 314.035 328.792 314.2ZM331.414 314.5V300.5H339.694C340.164 300.5 340.534 300.87 340.534 301.34V301.41C340.534 301.88 340.164 302.25 339.694 302.25H333.254V306.52H337.204C337.674 306.52 338.044 306.88 338.044 307.36V307.42C338.044 307.9 337.674 308.27 337.204 308.27H333.254V312.75H339.694C340.164 312.75 340.534 313.12 340.534 313.59V313.66C340.534 314.13 340.164 314.5 339.694 314.5H331.414ZM347.896 314.5C347.346 314.5 346.996 314.15 346.996 313.58V308.29L343.446 303.31V301.42C343.446 300.88 343.776 300.5 344.346 300.5H344.386C344.916 300.5 345.286 300.83 345.286 301.42V302.94L347.916 306.7H347.956L350.626 302.94V301.42C350.626 300.83 350.996 300.5 351.526 300.5H351.566C352.136 300.5 352.466 300.88 352.466 301.42V303.31L348.836 308.29V313.58C348.836 314.12 348.486 314.5 347.936 314.5H347.896Z" fill="white"/>
</g>
<defs>
<clipPath id="clip0_1750_440">
<rect width="614.817" height="615" fill="white" transform="translate(0.896484)"/>
</clipPath>
</defs>
</svg>
