<svg width="615" height="615" viewBox="0 0 615 615" fill="none" xmlns="http://www.w3.org/2000/svg">
<g clip-path="url(#clip0_2168_694)">
<path d="M194.755 406.617H22.6292" stroke="white" stroke-width="1.5"/>
<path d="M393.47 406.617H221.344" stroke="white" stroke-width="1.5"/>
<path d="M592.188 406.617H420.059" stroke="white" stroke-width="1.5"/>
<path d="M7.59961 419.911V592.037" stroke="white" stroke-width="1.5"/>
<path d="M208.049 419.911V592.037" stroke="white" stroke-width="1.5"/>
<path d="M406.764 419.911V592.037" stroke="white" stroke-width="1.5"/>
<path d="M607.214 419.911V592.037" stroke="white" stroke-width="1.5"/>
<path d="M194.755 607.066H22.6292" stroke="white" stroke-width="1.5"/>
<path d="M393.47 607.066H221.344" stroke="white" stroke-width="1.5"/>
<path d="M592.188 607.066H420.059" stroke="white" stroke-width="1.5"/>
<path d="M7.59961 14.7237V0" stroke="white" stroke-width="1.5"/>
<path d="M14.963 7.36035H0.239258" stroke="white" stroke-width="1.5"/>
<path d="M208.049 14.7237V0" stroke="white" stroke-width="1.5"/>
<path d="M215.413 7.36035H200.689" stroke="white" stroke-width="1.5"/>
<path d="M406.764 14.7237V0" stroke="white" stroke-width="1.5"/>
<path d="M414.128 7.36035H399.404" stroke="white" stroke-width="1.5"/>
<path d="M607.404 14.7237V0" stroke="white" stroke-width="1.5"/>
<path d="M614.578 7.36035H599.854" stroke="white" stroke-width="1.5"/>
<path d="M406.765 22.4814L108.694 393.322" stroke="white" stroke-width="1.5" stroke-miterlimit="4.13936" stroke-dasharray="4.79 4.79"/>
<path d="M406.765 22.4814L307.409 393.322" stroke="white" stroke-width="1.5" stroke-miterlimit="4.13936" stroke-dasharray="4.79 4.79"/>
<path d="M406.765 22.4814L506.124 393.322" stroke="white" stroke-width="1.5" stroke-miterlimit="4.13936" stroke-dasharray="4.79 4.79"/>
<path d="M7.59961 22.4814L108.694 393.322" stroke="white" stroke-width="1.5" stroke-miterlimit="4.13936" stroke-dasharray="4.79 4.79"/>
<path d="M7.59961 22.4814L307.409 393.322" stroke="white" stroke-width="1.5" stroke-miterlimit="4.13936" stroke-dasharray="4.79 4.79"/>
<path d="M7.59961 22.4814L506.124 393.322" stroke="white" stroke-width="1.5" stroke-miterlimit="4.13936" stroke-dasharray="4.79 4.79"/>
<path d="M208.05 22.4814L108.694 393.322" stroke="white" stroke-width="1.5" stroke-miterlimit="4.13936" stroke-dasharray="4.79 4.79"/>
<path d="M208.05 22.4814L307.409 393.322" stroke="white" stroke-width="1.5" stroke-miterlimit="4.13936" stroke-dasharray="4.79 4.79"/>
<path d="M208.05 22.4814L506.123 393.322" stroke="white" stroke-width="1.5" stroke-miterlimit="4.13936" stroke-dasharray="4.79 4.79"/>
<path d="M607.404 22.4814L108.694 393.322" stroke="white" stroke-width="1.5" stroke-miterlimit="4.13936" stroke-dasharray="4.79 4.79"/>
<path d="M607.404 22.4814L307.409 393.322" stroke="white" stroke-width="1.5" stroke-miterlimit="4.13936" stroke-dasharray="4.79 4.79"/>
<path d="M607.404 22.4814L506.124 393.322" stroke="white" stroke-width="1.5" stroke-miterlimit="4.13936" stroke-dasharray="4.79 4.79"/>
<path d="M96.6047 513.06C95.3647 513.06 94.7747 512.34 94.3047 511.5L92.5047 508.26C92.0347 507.42 91.9247 506.8 91.9247 506.06C91.9247 505.32 92.0347 504.7 92.5047 503.86L94.3047 500.62C94.7747 499.78 95.3647 499.06 96.6047 499.06H100.045C100.525 499.06 100.885 499.43 100.885 499.9V499.97C100.885 500.44 100.525 500.81 100.045 500.81H96.8847C96.4647 500.81 96.2247 500.91 95.8347 501.61L94.1947 504.55C93.8947 505.09 93.7747 505.51 93.7747 506.06C93.7747 506.61 93.8947 507.03 94.1947 507.57L95.8347 510.51C96.2247 511.21 96.4647 511.31 96.8847 511.31H100.045C100.525 511.31 100.885 511.68 100.885 512.15V512.22C100.885 512.69 100.525 513.06 100.045 513.06H96.6047ZM104.907 513.06C104.427 513.06 104.067 512.69 104.067 512.22V512.15C104.067 511.68 104.427 511.31 104.907 511.31H107.587V500.81H104.907C104.427 500.81 104.067 500.44 104.067 499.97V499.9C104.067 499.43 104.427 499.06 104.907 499.06H109.427V511.31H111.547V508C111.547 507.51 111.927 507.14 112.437 507.14H112.487C112.997 507.14 113.387 507.51 113.387 508V512.2C113.387 512.69 113.017 513.06 112.487 513.06H104.907Z" fill="#96FF5E"/>
<path d="M297.628 513.06C296.388 513.06 295.798 512.34 295.328 511.5L293.528 508.26C293.058 507.42 292.948 506.8 292.948 506.06C292.948 505.32 293.058 504.7 293.528 503.86L295.328 500.62C295.798 499.78 296.388 499.06 297.628 499.06H301.068C301.548 499.06 301.908 499.43 301.908 499.9V499.97C301.908 500.44 301.548 500.81 301.068 500.81H297.908C297.488 500.81 297.248 500.91 296.858 501.61L295.218 504.55C294.918 505.09 294.798 505.51 294.798 506.06C294.798 506.61 294.918 507.03 295.218 507.57L296.858 510.51C297.248 511.21 297.488 511.31 297.908 511.31H301.068C301.548 511.31 301.908 511.68 301.908 512.15V512.22C301.908 512.69 301.548 513.06 301.068 513.06H297.628ZM307.181 513.06C306.171 513.06 305.351 512.24 305.351 511.24V507.06C305.351 505.96 306.251 505.15 307.351 505.15H312.391C312.511 505.15 312.571 505.05 312.571 504.97V500.99C312.571 500.91 312.511 500.81 312.391 500.81H306.211C305.731 500.81 305.371 500.46 305.371 499.98V499.94C305.371 499.41 305.731 499.06 306.211 499.06H312.421C313.511 499.06 314.411 499.96 314.411 501.06V504.99C314.411 506 313.511 506.9 312.411 506.9H307.381C307.261 506.9 307.191 507 307.191 507.09V511.29C307.191 511.31 307.191 511.31 307.211 511.31H313.861C314.341 511.31 314.711 511.66 314.711 512.14V512.18C314.711 512.71 314.341 513.06 313.861 513.06H307.181Z" fill="#96FF5E"/>
<path d="M498.652 513.06C497.412 513.06 496.822 512.34 496.352 511.5L494.552 508.26C494.082 507.42 493.972 506.8 493.972 506.06C493.972 505.32 494.082 504.7 494.552 503.86L496.352 500.62C496.822 499.78 497.412 499.06 498.652 499.06H502.092C502.572 499.06 502.932 499.43 502.932 499.9V499.97C502.932 500.44 502.572 500.81 502.092 500.81H498.932C498.512 500.81 498.272 500.91 497.882 501.61L496.242 504.55C495.942 505.09 495.822 505.51 495.822 506.06C495.822 506.61 495.942 507.03 496.242 507.57L497.882 510.51C498.272 511.21 498.512 511.31 498.932 511.31H502.092C502.572 511.31 502.932 511.68 502.932 512.15V512.22C502.932 512.69 502.572 513.06 502.092 513.06H498.652ZM506.624 513.06C506.144 513.06 505.784 512.71 505.784 512.18V512.14C505.784 511.66 506.144 511.31 506.624 511.31H513.344C513.464 511.31 513.534 511.21 513.534 511.13V507.93C513.534 507.24 513.114 507.02 512.434 507.02H509.094C508.614 507.02 508.254 506.66 508.254 506.18V506.12C508.254 505.64 508.614 505.27 509.094 505.27H512.434C513.114 505.27 513.534 505.06 513.534 504.36V500.99C513.534 500.91 513.464 500.81 513.344 500.81H506.624C506.144 500.81 505.784 500.46 505.784 499.98V499.94C505.784 499.41 506.144 499.06 506.624 499.06H513.374C514.474 499.06 515.374 499.96 515.374 501.06V504.36C515.374 505.1 515.084 505.9 514.094 506.16C515.084 506.4 515.374 507.18 515.374 507.92V511.06C515.374 512.16 514.474 513.06 513.374 513.06H506.624Z" fill="#96FF5E"/>
</g>
<defs>
<clipPath id="clip0_2168_694">
<rect width="614.339" height="607.54" fill="white" transform="translate(0.239014)"/>
</clipPath>
</defs>
</svg>
