<svg width="616" height="615" viewBox="0 0 616 615" fill="none" xmlns="http://www.w3.org/2000/svg">
<g clip-path="url(#clip0_1750_440)">
<path d="M8.26221 22.4988V592.498" stroke="white" stroke-width="1.5"/>
<path d="M608.344 22.4988V592.498" stroke="white" stroke-width="1.5"/>
<path d="M8.26221 14.7349V-0.000244141" stroke="white" stroke-width="1.5"/>
<path d="M15.6317 7.36597H0.896484" stroke="white" stroke-width="1.5"/>
<path d="M8.2627 615V600.265" stroke="white" stroke-width="1.5"/>
<path d="M15.6317 607.631H0.896484" stroke="white" stroke-width="1.5"/>
<path d="M608.534 14.7347V-0.000488281" stroke="white" stroke-width="1.5"/>
<path d="M615.713 7.36572H600.978" stroke="white" stroke-width="1.5"/>
<path d="M608.534 615V600.265" stroke="white" stroke-width="1.5"/>
<path d="M615.713 607.631H600.978" stroke="white" stroke-width="1.5"/>
<path d="M593.303 7.45752H23.3037" stroke="white" stroke-width="1.5"/>
<path d="M593.303 607.539H23.3037" stroke="white" stroke-width="1.5"/>
<path d="M249.979 314.5C249.459 314.5 249.099 314.15 249.099 313.55V300.5H256.079C257.709 300.5 258.979 301.58 258.979 303.34V304.54C258.979 306.32 257.629 307.24 256.069 307.24H250.939V313.55C250.939 314.15 250.579 314.5 250.059 314.5H249.979ZM255.919 305.51C256.649 305.51 257.119 305.28 257.119 304.51V303.31C257.119 302.55 256.679 302.25 255.949 302.25H250.939V305.51H255.919ZM263.211 314.5C262.131 314.5 261.321 313.68 261.321 312.61V301.45C261.321 300.83 261.721 300.5 262.211 300.5H262.261C262.771 300.5 263.161 300.83 263.161 301.45V312.19C263.161 312.67 263.481 312.75 263.761 312.75H268.301C268.581 312.75 268.901 312.67 268.901 312.19V301.45C268.901 300.83 269.311 300.5 269.801 300.5H269.851C270.341 300.5 270.741 300.83 270.741 301.45V312.61C270.741 313.68 269.931 314.5 268.851 314.5H263.211ZM273.683 314.5V300.5H279.133C281.553 300.5 282.773 301.87 282.773 304.07V304.63C282.773 306.06 282.153 307.16 280.743 307.42C282.153 307.66 282.773 308.83 282.773 310.18V311.12C282.773 313.26 281.433 314.5 279.243 314.5H273.683ZM279.043 312.75C280.403 312.75 280.933 312.12 280.933 310.85V310.16C280.933 308.94 280.193 308.29 278.993 308.29H275.523V312.75H279.043ZM278.993 306.54C280.173 306.54 280.933 305.95 280.933 304.63V304.1C280.933 302.96 280.303 302.25 279.153 302.25H275.523V306.54H278.993ZM285.876 301.36C285.876 300.86 286.256 300.5 286.766 300.5H286.816C287.326 300.5 287.716 300.86 287.716 301.36V312.75H293.916C294.396 312.75 294.756 313.12 294.756 313.59V313.66C294.756 314.13 294.396 314.5 293.916 314.5H285.876V301.36ZM297.898 314.5C297.428 314.5 297.058 314.13 297.058 313.66V313.59C297.058 313.12 297.428 312.75 297.898 312.75H301.068V302.25H297.898C297.428 302.25 297.058 301.88 297.058 301.41V301.34C297.058 300.87 297.428 300.5 297.898 300.5H306.118C306.598 300.5 306.958 300.87 306.958 301.34V301.41C306.958 301.88 306.598 302.25 306.118 302.25H302.908V312.75H306.118C306.598 312.75 306.958 313.12 306.958 313.59V313.66C306.958 314.13 306.598 314.5 306.118 314.5H297.898ZM313.86 314.5C312.62 314.5 312.03 313.78 311.56 312.94L309.76 309.7C309.29 308.86 309.18 308.24 309.18 307.5C309.18 306.76 309.29 306.14 309.76 305.3L311.56 302.06C312.03 301.22 312.62 300.5 313.86 300.5H317.3C317.78 300.5 318.14 300.87 318.14 301.34V301.41C318.14 301.88 317.78 302.25 317.3 302.25H314.14C313.72 302.25 313.48 302.35 313.09 303.05L311.45 305.99C311.15 306.53 311.03 306.95 311.03 307.5C311.03 308.05 311.15 308.47 311.45 309.01L313.09 311.95C313.48 312.65 313.72 312.75 314.14 312.75H317.3C317.78 312.75 318.14 313.12 318.14 313.59V313.66C318.14 314.13 317.78 314.5 317.3 314.5H313.86ZM342.804 314.2C342.594 314.405 342.369 314.495 342.149 314.495C341.899 314.495 341.657 314.377 341.454 314.18L335.644 308.57V313.64C335.644 314.13 335.274 314.5 334.744 314.5H334.704C334.194 314.5 333.804 314.13 333.804 313.64V301.36C333.804 300.87 334.194 300.5 334.704 300.5H334.744C335.264 300.5 335.644 300.87 335.644 301.36V305.99L341.064 300.83C341.264 300.635 341.517 300.512 341.774 300.512C341.992 300.512 342.214 300.6 342.414 300.8C342.579 300.965 342.689 301.187 342.689 301.43C342.689 301.655 342.592 301.897 342.354 302.12L336.944 307.28L342.784 312.93C342.997 313.137 343.084 313.362 343.084 313.575C343.084 313.812 342.974 314.035 342.804 314.2ZM345.427 314.5V300.5H353.707C354.177 300.5 354.547 300.87 354.547 301.34V301.41C354.547 301.88 354.177 302.25 353.707 302.25H347.267V306.52H351.217C351.687 306.52 352.057 306.88 352.057 307.36V307.42C352.057 307.9 351.687 308.27 351.217 308.27H347.267V312.75H353.707C354.177 312.75 354.547 313.12 354.547 313.59V313.66C354.547 314.13 354.177 314.5 353.707 314.5H345.427ZM361.909 314.5C361.359 314.5 361.009 314.15 361.009 313.58V308.29L357.459 303.31V301.42C357.459 300.88 357.789 300.5 358.359 300.5H358.399C358.929 300.5 359.299 300.83 359.299 301.42V302.94L361.929 306.7H361.969L364.639 302.94V301.42C364.639 300.83 365.009 300.5 365.539 300.5H365.579C366.149 300.5 366.479 300.88 366.479 301.42V303.31L362.849 308.29V313.58C362.849 314.12 362.499 314.5 361.949 314.5H361.909Z" fill="#96FF5E"/>
</g>
<defs>
<clipPath id="clip0_1750_440">
<rect width="614.817" height="615" fill="white" transform="translate(0.896484)"/>
</clipPath>
</defs>
</svg>
