<svg width="623" height="615" viewBox="0 0 623 615" fill="none" xmlns="http://www.w3.org/2000/svg">
<g clip-path="url(#clip0_1750_502)">
<path d="M197.618 411.61H23.3784" stroke="white" stroke-width="1.5"/>
<path d="M398.773 411.61H224.534" stroke="white" stroke-width="1.5"/>
<path d="M599.931 411.61H425.688" stroke="white" stroke-width="1.5"/>
<path d="M8.16455 425.067V599.307" stroke="white" stroke-width="1.5"/>
<path d="M211.076 425.067V599.307" stroke="white" stroke-width="1.5"/>
<path d="M412.231 425.067V599.307" stroke="white" stroke-width="1.5"/>
<path d="M615.142 425.067V599.307" stroke="white" stroke-width="1.5"/>
<path d="M197.618 614.521H23.3784" stroke="white" stroke-width="1.5"/>
<path d="M398.773 614.521H224.533" stroke="white" stroke-width="1.5"/>
<path d="M599.931 614.521H425.688" stroke="white" stroke-width="1.5"/>
<path d="M8.16455 14.9045V0" stroke="white" stroke-width="1.5"/>
<path d="M15.6184 7.45093H0.713867" stroke="white" stroke-width="1.5"/>
<path d="M211.076 14.9045V0" stroke="white" stroke-width="1.5"/>
<path d="M218.529 7.45093H203.625" stroke="white" stroke-width="1.5"/>
<path d="M412.231 14.9045V0" stroke="white" stroke-width="1.5"/>
<path d="M419.685 7.45093H404.78" stroke="white" stroke-width="1.5"/>
<path d="M615.334 14.9045V0" stroke="white" stroke-width="1.5"/>
<path d="M622.596 7.45093H607.691" stroke="white" stroke-width="1.5"/>
<path d="M412.23 22.7573L110.5 398.152" stroke="white" stroke-width="1.5" stroke-miterlimit="4.13936" stroke-dasharray="4.79 4.79"/>
<path d="M412.23 22.7571L311.654 398.151" stroke="white" stroke-width="1.5" stroke-miterlimit="4.13936" stroke-dasharray="4.79 4.79"/>
<path d="M412.23 22.7571L512.81 398.151" stroke="white" stroke-width="1.5" stroke-miterlimit="4.13936" stroke-dasharray="4.79 4.79"/>
<path d="M8.16406 22.7576L110.5 398.152" stroke="white" stroke-width="1.5" stroke-miterlimit="4.13936" stroke-dasharray="4.79 4.79"/>
<path d="M8.16406 22.7576L311.654 398.152" stroke="white" stroke-width="1.5" stroke-miterlimit="4.13936" stroke-dasharray="4.79 4.79"/>
<path d="M8.16406 22.7576L512.809 398.152" stroke="white" stroke-width="1.5" stroke-miterlimit="4.13936" stroke-dasharray="4.79 4.79"/>
<path d="M211.075 22.7573L110.5 398.152" stroke="white" stroke-width="1.5" stroke-miterlimit="4.13936" stroke-dasharray="4.79 4.79"/>
<path d="M211.075 22.7571L311.654 398.151" stroke="white" stroke-width="1.5" stroke-miterlimit="4.13936" stroke-dasharray="4.79 4.79"/>
<path d="M211.075 22.7571L512.809 398.151" stroke="white" stroke-width="1.5" stroke-miterlimit="4.13936" stroke-dasharray="4.79 4.79"/>
<path d="M615.333 22.7573L110.5 398.152" stroke="white" stroke-width="1.5" stroke-miterlimit="4.13936" stroke-dasharray="4.79 4.79"/>
<path d="M615.333 22.7571L311.654 398.151" stroke="white" stroke-width="1.5" stroke-miterlimit="4.13936" stroke-dasharray="4.79 4.79"/>
<path d="M615.333 22.7571L512.809 398.151" stroke="white" stroke-width="1.5" stroke-miterlimit="4.13936" stroke-dasharray="4.79 4.79"/>
<path d="M98.3375 519.188C97.0975 519.188 96.5075 518.467 96.0375 517.627L94.2375 514.387C93.7675 513.547 93.6575 512.927 93.6575 512.187C93.6575 511.447 93.7675 510.827 94.2375 509.987L96.0375 506.747C96.5075 505.907 97.0975 505.187 98.3375 505.187H101.778C102.258 505.187 102.618 505.557 102.618 506.027V506.097C102.618 506.567 102.258 506.937 101.778 506.937H98.6175C98.1975 506.937 97.9575 507.037 97.5675 507.737L95.9275 510.677C95.6275 511.217 95.5075 511.637 95.5075 512.187C95.5075 512.737 95.6275 513.157 95.9275 513.697L97.5675 516.637C97.9575 517.337 98.1975 517.437 98.6175 517.437H101.778C102.258 517.437 102.618 517.807 102.618 518.277V518.347C102.618 518.817 102.258 519.188 101.778 519.188H98.3375ZM106.64 519.188C106.16 519.188 105.8 518.817 105.8 518.347V518.277C105.8 517.807 106.16 517.437 106.64 517.437H109.32V506.937H106.64C106.16 506.937 105.8 506.567 105.8 506.097V506.027C105.8 505.557 106.16 505.187 106.64 505.187H111.16V517.437H113.28V514.127C113.28 513.637 113.66 513.267 114.17 513.267H114.22C114.73 513.267 115.12 513.637 115.12 514.127V518.327C115.12 518.817 114.75 519.188 114.22 519.188H106.64Z" fill="#96FF5E"/>
<path d="M301.83 519.188C300.59 519.188 300 518.467 299.53 517.627L297.73 514.387C297.26 513.547 297.15 512.927 297.15 512.187C297.15 511.447 297.26 510.827 297.73 509.987L299.53 506.747C300 505.907 300.59 505.187 301.83 505.187H305.27C305.75 505.187 306.11 505.557 306.11 506.027V506.097C306.11 506.567 305.75 506.937 305.27 506.937H302.11C301.69 506.937 301.45 507.037 301.06 507.737L299.42 510.677C299.12 511.217 299 511.637 299 512.187C299 512.737 299.12 513.157 299.42 513.697L301.06 516.637C301.45 517.337 301.69 517.437 302.11 517.437H305.27C305.75 517.437 306.11 517.807 306.11 518.277V518.347C306.11 518.817 305.75 519.188 305.27 519.188H301.83ZM311.382 519.188C310.372 519.188 309.552 518.367 309.552 517.367V513.187C309.552 512.087 310.452 511.277 311.552 511.277H316.592C316.712 511.277 316.772 511.177 316.772 511.097V507.117C316.772 507.037 316.712 506.937 316.592 506.937H310.412C309.932 506.937 309.572 506.587 309.572 506.107V506.067C309.572 505.537 309.932 505.187 310.412 505.187H316.622C317.712 505.187 318.612 506.087 318.612 507.187V511.117C318.612 512.127 317.712 513.027 316.612 513.027H311.582C311.462 513.027 311.392 513.127 311.392 513.217V517.417C311.392 517.437 311.392 517.437 311.412 517.437H318.062C318.542 517.437 318.912 517.787 318.912 518.267V518.307C318.912 518.837 318.542 519.188 318.062 519.188H311.382Z" fill="#96FF5E"/>
<path d="M505.322 519.188C504.082 519.188 503.492 518.467 503.022 517.627L501.222 514.387C500.752 513.547 500.642 512.927 500.642 512.187C500.642 511.447 500.752 510.827 501.222 509.987L503.022 506.747C503.492 505.907 504.082 505.187 505.322 505.187H508.762C509.242 505.187 509.602 505.557 509.602 506.027V506.097C509.602 506.567 509.242 506.937 508.762 506.937H505.602C505.182 506.937 504.942 507.037 504.552 507.737L502.912 510.677C502.612 511.217 502.492 511.637 502.492 512.187C502.492 512.737 502.612 513.157 502.912 513.697L504.552 516.637C504.942 517.337 505.182 517.437 505.602 517.437H508.762C509.242 517.437 509.602 517.807 509.602 518.277V518.347C509.602 518.817 509.242 519.188 508.762 519.188H505.322ZM513.294 519.188C512.814 519.188 512.454 518.837 512.454 518.307V518.267C512.454 517.787 512.814 517.437 513.294 517.437H520.014C520.134 517.437 520.204 517.337 520.204 517.257V514.057C520.204 513.367 519.784 513.147 519.104 513.147H515.764C515.284 513.147 514.924 512.787 514.924 512.307V512.247C514.924 511.767 515.284 511.397 515.764 511.397H519.104C519.784 511.397 520.204 511.187 520.204 510.487V507.117C520.204 507.037 520.134 506.937 520.014 506.937H513.294C512.814 506.937 512.454 506.587 512.454 506.107V506.067C512.454 505.537 512.814 505.187 513.294 505.187H520.044C521.144 505.187 522.044 506.087 522.044 507.187V510.487C522.044 511.227 521.754 512.027 520.764 512.287C521.754 512.527 522.044 513.308 522.044 514.048V517.187C522.044 518.287 521.144 519.188 520.044 519.188H513.294Z" fill="#96FF5E"/>
</g>
<defs>
<clipPath id="clip0_1750_502">
<rect width="621.882" height="615" fill="white" transform="translate(0.713379)"/>
</clipPath>
</defs>
</svg>
